<?xml version="1.0" encoding="UTF-8"?>
<svg id="_レイヤー_1" data-name="レイヤー_1" xmlns="http://www.w3.org/2000/svg" version="1.1" viewBox="0 0 283.5 283.5">
  <!-- Generator: Adobe Illustrator 29.8.3, SVG Export Plug-In . SVG Version: 2.1.1 Build 3)  -->
  <path d="M266,110.4c-.4-4.4-4-8.6-8.4-9.3-.9-.1-4.3,0-4.6-.3l-2.9-11.3c4.9-2.3,7.7-6.1,7.2-11.7-.2-1.6-.9-3-1.6-4.4-4.3-8-9.7-15.8-14.1-23.8-2.7-4-7.6-5.6-12.2-4.1-1.5.5-2.8,1.6-4.2,2.2l-6.3-6.4c3.8-5,3.9-11.6-1.2-15.7-8.3-4.5-16.6-10.5-25-14.7-4.8-2.4-10.1-1.8-13.6,2.5-.5.7-1.8,3.3-2.4,3.4-3.1-1.2-6.8-1.6-9.9-2.6-.1,0-.3,0-.5-.2-.4-.4-.1-3.3-.2-4.1-.5-4.9-5-8.6-9.8-9-9.4-.7-19.5.5-29,0-4.5.3-8.9,4.1-9.5,8.6-.1.9.1,4.1-.3,4.5l-11,3.1c-2.7-4.9-6-7.9-11.9-7.4-1.6.2-2.9.9-4.4,1.6-8.6,4.5-16.7,10.2-25.1,15-3.8,3.9-4.3,8.4-1.9,13.2.3.5,1.5,2.1,1.3,2.5l-6.2,6.1c-1.3-.6-2.4-1.5-3.7-2-5.4-2.1-10,0-13.1,4.5-5.2,7.7-9.4,16.9-14.4,24.9-2.6,6.2.9,12.1,6.7,14.5-1.1,3.2-1.6,7-2.6,10.1,0,.1,0,.3-.2.5-.4.4-3.5.1-4.3.2-4.9.5-8.6,5-9,9.8-.7,9.4.5,19.5,0,29,.4,3.9,2.9,7.4,6.5,8.9,2.3.9,4.4.6,6.8.7l2.9,10.8c0,.8-2.3,1.8-3,2.3-4.9,3.5-5.5,9.2-2.8,14.4,4.5,8.6,10.1,16.7,15,25.1,3.9,3.8,8.4,4.3,13.2,1.9.6-.3,2-1.5,2.7-1.2l5.9,6c-.4,1.4-1.4,2.5-2,3.9-2.1,5.3,0,10,4.5,13.1,7.8,5.2,16.9,9.4,24.9,14.4,6.1,2.5,12.1-.9,14.5-6.7l.4-.2,10.4,2.9c0,2.6-.2,4.7.8,7.1,1.6,3.6,5.1,6,9,6.2,9.4.7,19.5-.5,29,0,3.9-.4,7.4-2.9,8.9-6.5.9-2.3.6-4.4.7-6.8l10.8-2.9c.3,0,.4,0,.6.2.4.4,1.3,2.3,1.8,2.9,3.6,4.8,9.2,5.3,14.3,2.6,6.4-3.4,13.3-7.7,19.5-11.5,3.4-2,6.6-3.4,8.1-7.3,1.7-4.3.4-8-2.1-11.6l6.3-6.4c1.3.6,2.4,1.5,3.7,2,5.3,2.1,10,0,13.1-4.5,5.2-7.8,9.4-16.9,14.4-24.9,2.5-6-.8-12.2-6.7-14.4l2.9-10.9c2.4,0,4.4.2,6.6-.7,3.6-1.4,6.2-5,6.5-8.9.7-9.4-.6-19.9,0-29.4ZM232.1,58.1l12.2,20.7-7.7,4.5-12.2-20.7,7.7-4.5ZM187.9,22.5l20.6,12-4.5,7.7-20.6-12,4.5-7.7ZM130,13.4h23.7v8.8h-23.7v-8.8ZM95.4,22.7l4.5,7.7-20.7,12.2-4.5-7.7,20.7-12.2ZM38.9,137h-8.8v-23.7h8.8v23.7ZM51.2,58.5l7.7,4.5-12,20.6-7.7-4.5,12-20.6ZM51.5,192.3l-12.2-20.7,7.7-4.5,12.2,20.7-7.7,4.5ZM95.8,227.8l-20.6-12,4.5-7.7,20.6,12-4.5,7.7ZM153.7,237h-23.7v-8.8h23.7v8.8ZM188.5,227.5l-4.6-7.5,20.3-12,.6.4,4,7.2-20.3,11.9ZM212.4,184.3c-1.3,3.7-.5,7.9,2.1,10.8l-2.3,2.3c-4.1-3.3-8.2-3.4-12.8-1.1-8.3,4.3-16.4,10.1-24.6,14.6-3.3,2.7-4.4,6.7-3.6,10.9l-5.5,1.4c-.9-4.1-4.8-7.1-9-7.6-9.5.4-19.6-.6-29,0-4.4.3-8.3,3.1-9.6,7.4l-5.1-1.2c1.3-4.6-.9-8.9-4.7-11.5-6.6-4.4-15.3-9.2-22.3-13-1-.5-2.2-1.3-3.2-1.7-3.9-1.4-7.7-.4-10.9,2.1l-2.2-2.3c2.6-3.2,3.4-7.1,1.9-11-4.9-8.1-9.3-17.1-14.5-25-2.8-4.3-6.7-6.1-11.9-5.1l-1.4-5.6c4.2-1,7.1-4.8,7.6-9-.4-9.5.6-19.6,0-29-.3-4.4-3.2-8.5-7.6-9.6l1.2-5.1c4.7,1.3,9-.7,11.7-4.7,5.3-7.9,9.7-17.4,14.7-25.6,1.3-3.8.5-8.1-2.4-11l2.2-2.2c.5-.3,1.4.8,2,1.1,3.9,2.3,7.3,2,11.2,0,8.3-4.3,16.4-10.1,24.6-14.6,3.4-2.8,4.4-6.8,3.6-11.1l5.3-1.4c1.3,4.2,4.8,7.2,9.2,7.7,9.5-.5,19.6.7,29,0,3.4-.2,6.6-2,8.5-4.9.6-1,.8-2,1.4-2.9l4.8,1.2c-1.2,4.8.6,9.2,4.7,11.9,7.9,5.3,17.2,9.6,25.3,14.6,3.8,1.6,8.3.7,11.3-2.2.5.4,2.5,1.8,2.3,2.4-.1.4-.9,1.2-1.2,1.7-2.3,3.9-2,7.3,0,11.2,4.3,8.3,10.1,16.4,14.6,24.6,2.8,3.4,6.8,4.4,11.1,3.6l1.4,5.3c-4.2,1.3-7.2,4.8-7.7,9.2.4,9.5-.6,19.6,0,29,.3,4.5,3.2,8.5,7.6,9.6l-1.2,5.1c-3.5-1.1-7.7.2-10.3,2.8-.8.8-1.5,2.1-2.1,3-5,7.9-9.3,16.3-14.1,24.4ZM232.4,191.8l-7.7-4.5,12-20.6,7.7,4.5-12,20.6ZM253.6,137h-8.8v-23.7h8.8v23.7Z"/>
  <path d="M177.1,276.2v-3.9l-.3-.3h-6.9v-.6h8.4v-2.7h-8.4l1.4-1.9h.6s.5,1.4.5,1.4l.4.2,2.8-.6-.4-1h3.1v-2.9h-5.3l.2-.8-3-.4-2.2,3.3v-2.1h-3.7l.2-.8-3.1-.3c-.8,1.4-1.8,2.6-3,3.6v.4s1.3,1.6,1.3,1.6c.2.6-1.1.2-1.2.3,0,.5-.2,2.5.3,2.7h7.9v.6h-6.7l-.3.3v5.1c.6.6,1.7.2,2.5.3l-3.9,1.8,1.6,2.7c2.7-.8,4.7-2.8,6.9-4.5v4.9h3.1v-4.9c2.1,1.9,4.4,3.7,7.2,4.5l1.4-3.1-3.5-1.1c1.1,0,2.1-.7,2.1-1.9ZM162.9,277.3v-2.9h3.5c-1,1.1-2,2.5-3.5,2.9ZM166.8,268.7h-6.2l1.6-1.9c.8-.2.8,1.6,1.2,1.7l2.7-.6-.4-1c1.1-.1,1.9,0,2.7.9h-1.6c0,.1,0,.9,0,.9ZM173.8,275.6h-1s.1,1.1.1,1.1c-1-.5-1.8-1.3-2.4-2.3h3.5l-.2,1.2Z"/>
  <path d="M191.7,262.9h-3.5c0,0-.6,2.1-.6,2.1h-5.8v17.7h3.3v-1h10.1v1h3.1v-17.7h-7.2l.6-2.1ZM195.2,278.7h-10.1v-2.1h9.8c.6.5.2,1.4.3,2.1ZM194.9,274.2h-9.8v-2.1h10.1c0,.7.3,1.6-.3,2.1ZM195.2,267.8v1.6h-10.1v-1.6h10.1Z"/>
  <path d="M217.9,275.5c0,1.2.2,2.5-.4,3.6l-.6.3c-3.1-.2-6.8.4-9.8,0-.5,0-.8-.2-1.1-.5v-5.5h13.8v-9.9h-17.7v2.9h14.1l.3.3v3.6h-14v10c0,1,.9,2.1,2,2.1,4.4-.3,9.4.4,13.8,0,3.1-.3,3-3.7,2.9-6.2l-3.2-.8Z"/>
  <path d="M27.8,274c-.1.2,1.6,2.7,2.1,2.6,3.9-1.9,6-5.5,6.2-9.8l-10.7.8v-4.1h-3.3v4.5l-4.3.4.2,3.3,4.1-.4v7.5c0,.4.7,1.4,1,1.7,2.4,2.1,9.3.7,12.3.9v-3.5c-2.6.4-5.9.7-8.5.4-1-.1-1.4-.3-1.5-1.3-.1-1-.2-4.7,0-5.6,0-.2,0-.4.3-.5l6-.6c.5.5-2.9,3.9-3.9,3.7Z"/>
  <polygon points="57.4 272 50.3 272.8 50.1 272.6 49.8 269.7 56.4 269.1 56.2 265.8 49.4 266.4 49.2 263.3 45.7 263.5 45.8 266.8 39.5 267.4 39.9 270.6 46.3 270.1 46.4 273 39.1 273.8 39.3 276.9 46.9 276.3 47.6 282 51 281.8 50.4 275.9 57.6 275.2 57.4 272"/>
  <path d="M145,268.7h1v-3.1h-3.2c-.7-.4-.1-2.7-.3-2.9h-2.9c0,0-.2,2.9-.2,2.9h-3.5v3.1h6l-.6,3.5-3-2.4-2.1,1.9,3.6,3.5c-.9,1.9-2.6,3.1-4.1,4.6l2,2.5c.4,0,3.7-3.6,4.1-4.3.5-.1,1.5,2.3,1.9,2.5.6.2,1.8-1.5,2.5-1.7.4-.7-2.4-3.4-2.6-4.2l1.4-5.9Z"/>
  <path d="M75.6,277.9h-3l.6-9.7h-11.1v3.1h7.6l-.4,6.6h-8.5c-.5.7-.5,2.4,0,3.1h15.1c-.1-1,.3-2.3-.3-3.1Z"/>
  <path d="M232,262.7v1.4h-7.8v5.1h1.9s.2.6.2.6h14.4l.2-.6h1.9s0-5.1,0-5.1h-7.8v-1.4h-3.1ZM239.9,266.6v1h-12.5v-.7s.3-.3.3-.3h12.2Z"/>
  <path d="M98.4,272.6h7.5c0,4.2-3.1,6.2-7,6.4l1.2,3.1c4-.8,7.6-2.3,8.7-6.6.2-1,.3-1.8.5-2.8l6.4-.2.2-3h-17.9c.1,1-.3,2.3.3,3.1Z"/>
  <path d="M226.1,278.5h14.8v-7.8h-14.8v7.8ZM237.8,276.7h-8.3c-.4,0-.4-1.2,0-1.2h8.3v1.2ZM229.2,272.9l.3-.3h8.3v1h-8.6v-.7Z"/>
  <path d="M154.3,262.7h-3l-.3.3v3.4h-4.5v3.1h4.5v9.8l-.3.3h-3.2l.4,3.1c1.1,0,6.4.5,6.4-1.3v-11.8h1.6v-3.1h-1.6v-3.7Z"/>
  <path d="M247.5,282.7h3.2s.2-.6.2-.6h9.6l.2.6h3.2v-7h-16.5v7ZM260.6,277.9v1.6h-9.6l-.3-.3v-1.3s9.8,0,9.8,0Z"/>
  <path d="M89.9,264v10.5c0,.3-.9,1.7-1.1,2-1.7,1.8-5.4,2-7.7,2.3l1.2,3.2c3.9-.4,8.5-1.2,10.4-5.1.3-.7.9-2.7.9-3.4v-9.8h-3.4l-.3.3Z"/>
  <path d="M116.8,275c-.2.2,1.3,2.7,1.7,2.7,1.1,0,4.3-1.9,5.5-2.5v6.7c.4.5,3,.4,3.2.1v-8.9c.1,0,4.8-4.4,4.8-4.4l-2.5-1.9c-3.3,3.9-7.7,6.9-12.7,8.2Z"/>
  <rect x="223.6" y="279.4" width="19.7" height="2.7"/>
  <rect x="245.8" y="266.4" width="19.7" height="2.3"/>
  <rect x="100" y="264.1" width="14.4" height="3.1"/>
  <rect x="79.8" y="264.1" width="3.7" height="11.5"/>
  <rect x="248.1" y="263.3" width="15.2" height="2.3"/>
  <rect x="248.1" y="269.5" width="15.2" height="2.3"/>
  <rect x="248.1" y="272.6" width="15.2" height="2.3"/>
  <path d="M147.5,277.3l3-1.3c-.6-1.8-1.4-3.7-2.5-5.2l-2.6,1.3,2,5.2Z"/>
  <path d="M195.9,130.6l-.3.7v13.7c-2.5-5.2-6.5-9.7-10-14.4h-5.3l-.3.3v21.2l.3.3h5.1l.3-.7v-13.9c2.5,5.3,6.5,9.8,10,14.6h5.3l.3-.3v-21.2l-.3-.3h-5.1Z"/>
  <path d="M164.7,130c-6.4,0-11.6,5.2-11.6,11.6s5.2,11.6,11.6,11.6,11.6-5.2,11.6-11.6-5.2-11.6-11.6-11.6ZM163.5,147.9c-5.9-.9-6.1-11.8.4-12.7,8.6-1.1,8.7,14.1-.4,12.7Z"/>
  <path d="M144.4,114.1v-14.3h-5.8c-.7,4.4.2,9.4-.2,13.9,0,.6-.3,1.8-.6,2.2-1,1.6-4.7,1.6-5.9.2-.3-.3-.9-1.8-.9-2.2v-13.8l-.3-.3h-5.3c-.3.2-.3.4-.3.7-.4,3.1-.2,9.3,0,12.6.2,4,1.1,7.4,5.4,8.6,3.8,1.1,10.4.9,12.7-2.9.7-1.2,1.3-3.3,1.3-4.7Z"/>
  <path d="M154.9,121.3v-7.9l5,8.2h6.5c-.4-1.6-5.6-7.6-5.6-8.5,0-.5,2.4-1.4,3-1.9,2.7-2.4,1.9-8.1-1.1-10-1.2-.8-3.4-1.3-4.9-1.3h-8.5v21.8h5.2l.3-.3ZM154.9,104.6c0-.7,3.3,0,3.8.3.7.4,1,1.8,1,2.5,0,2.5-2.8,2.6-4.8,2.6v-5.5Z"/>
  <path d="M86.3,130.8l-7.3,21.6h5.5c.8-.5.9-3.6,1.7-3.9h8.1c0,0,1.3,3.9,1.3,3.9h5.7l-7.7-21.8-7.2.2ZM87.2,144.2l2.7-9.7,3.1,9.7h-5.8Z"/>
  <polygon points="99.8 121.3 99.8 116.9 99.5 116.6 92.2 116.6 92.2 113.2 92.5 112.9 99.1 112.9 99.4 112.6 99.4 108.7 99.1 108.4 92.5 108.4 92.2 108.1 92.2 104.8 92.5 104.5 99.5 104.5 99.8 104.2 99.8 100.1 99.5 99.8 86.4 99.8 86.4 121.6 99.5 121.6 99.8 121.3"/>
  <polygon points="125.3 165 122.2 174.4 112.5 174.4 120.2 180.3 117.3 190.1 125.4 184.4 133.6 190.1 130.9 180.4 138.2 174.4 128.6 174.4 125.3 165"/>
  <polygon points="158.4 165 155.1 174.4 145.4 174.4 153 180.5 150.1 190.1 158.3 184.4 166.4 190.1 163.5 180.3 171.2 174.4 161.5 174.4 158.4 165"/>
  <path d="M82,113.1c-.7-4.8-5.8-4.1-8.7-6.2-1.3-.9-.8-2.4.5-3,2.4-1.1,5.2,1.6,5.6,1.3l1.6-4c-2.1-1.9-5.5-2.3-8.2-1.9-5.8.8-8.2,9.2-2.5,12,1.9.9,8,1.6,5.9,5-1.3,2.1-4.4.7-6-.4-.4-.3-1.1-1.4-1.6-1.2-.3,0-2.7,4-2.4,4.5,0,.2,2.7,1.8,3.1,2,6.1,2.9,13.8-.7,12.7-8.2Z"/>
  <path d="M120.3,120.7v-6.3c-1.4,1.1-2.5,2.3-4.4,2.5-8,.7-8.4-11.7-1.2-12.3,2.6-.2,3.8,1,5.7,2.5v-6.1c-2.3-1.8-5.9-1.9-8.7-1.3-7.6,1.8-10.6,12.3-5.7,18.2,3.8,4.6,9.1,5.6,14.4,2.9Z"/>
  <path d="M119.1,151.5v-6.3c-3.8,4.4-10.5,2.7-10.7-3.4-.2-6.4,6.6-8.7,10.7-4v-6.3c-7.5-4.1-16.3.7-16.7,9.2-.4,9.2,8.5,15.1,16.7,10.7Z"/>
  <path d="M212,99.8l-3.6,7.2-4-7.2h-6.5l7.4,11.8v9.7l.3.3h5.1l.3-.3v-9.7c1.9-3.6,5.5-7.5,7.2-11.1.1-.3.3-.4.2-.7h-6.5Z"/>
  <path d="M123,130.6c-.3.7-.3,4.9,0,5.1h4.4l.3.3v16l.3.3h5.3l.3-.3v-16l.3-.3h4.3l.3-.3v-4.5l-.3-.3h-15.3Z"/>
  <polygon points="184.9 121.3 185.2 121.6 190.9 121.6 190.9 105.2 191.2 104.9 195.5 104.9 195.8 104.6 195.8 100.1 195.5 99.8 180.2 99.8 180.2 104.9 184.9 104.9 184.9 121.3"/>
  <rect x="142.6" y="130.6" width="6" height="21.8"/>
  <rect x="170.5" y="99.8" width="6" height="21.8"/>
</svg>