<?xml version="1.0" encoding="utf-8"?>
<!-- Generator: Adobe Illustrator 25.1.0, SVG Export Plug-In . SVG Version: 6.00 Build 0)  -->
<svg version="1.1" id="レイヤー_1" xmlns="http://www.w3.org/2000/svg" xmlns:xlink="http://www.w3.org/1999/xlink" x="0px"
	 y="0px" viewBox="0 0 20 20" style="enable-background:new 0 0 20 20;" xml:space="preserve">
<path d="M10,0C4.5,0,0,4.5,0,10s4.5,10,10,10s10-4.5,10-10S15.5,0,10,0z M11.5,7h2.8v0.8h-2.8V7z M9.8,12.2
	c-0.1,0.2-0.3,0.4-0.5,0.5c-0.2,0.2-0.5,0.3-0.7,0.3c-0.3,0.1-0.6,0.1-0.9,0.1h-3V6.7h3.2c0.8,0,1.4,0.2,1.7,0.7
	c0.2,0.3,0.3,0.6,0.3,1c0,0.4-0.1,0.7-0.3,1C9.4,9.4,9.3,9.6,9.1,9.7c0.3,0.1,0.6,0.3,0.8,0.6c0.2,0.3,0.3,0.6,0.3,1
	C10.1,11.6,10,11.9,9.8,12.2z M12.3,12.1c0.2,0.1,0.4,0.2,0.7,0.2c0.3,0,0.5-0.1,0.7-0.2c0.1-0.1,0.2-0.2,0.3-0.3h1.3
	c0,0.3-0.2,0.6-0.5,0.9c-0.4,0.5-1,0.7-1.8,0.7c-0.6,0-1.2-0.2-1.7-0.6c-0.5-0.4-0.7-1-0.7-1.9c0-0.8,0.2-1.5,0.7-1.9
	c0.4-0.4,1-0.7,1.7-0.7c0.4,0,0.8,0.1,1.1,0.2c0.3,0.1,0.6,0.4,0.8,0.7c0.2,0.3,0.3,0.6,0.4,1c0,0.2,0,0.5,0,1h-3.6
	C11.8,11.6,12,11.9,12.3,12.1z M13.7,9.5C13.9,9.7,14,10,14,10.3h-2.2c0-0.3,0.2-0.6,0.3-0.7c0.2-0.2,0.4-0.3,0.8-0.3
	C13.2,9.3,13.5,9.4,13.7,9.5z M7.6,9.2H6V7.8h1.4c0.3,0,0.6,0,0.8,0.1C8.4,8,8.5,8.2,8.5,8.5c0,0.3-0.1,0.5-0.3,0.6
	C8.1,9.2,7.9,9.2,7.6,9.2z M8.7,11.1c0,0.4-0.1,0.7-0.4,0.8C8.1,12,7.9,12,7.6,12H6v-1.7h1.6c0.3,0,0.5,0,0.7,0.1
	C8.5,10.5,8.7,10.8,8.7,11.1z"/>
</svg>
