<?xml version="1.0" encoding="utf-8"?>
<!-- Generator: Adobe Illustrator 25.1.0, SVG Export Plug-In . SVG Version: 6.00 Build 0)  -->
<svg version="1.1" id="レイヤー_1" xmlns="http://www.w3.org/2000/svg" xmlns:xlink="http://www.w3.org/1999/xlink" x="0px"
	 y="0px" viewBox="0 0 20 20" style="enable-background:new 0 0 20 20;" xml:space="preserve">
<style type="text/css">
	.st0{fill-rule:evenodd;clip-rule:evenodd;}
</style>
<path class="st0" d="M10,0C4.5,0,0,4.5,0,10s4.5,10,10,10s10-4.5,10-10S15.5,0,10,0z M11.3,12.4c0.2,0.2,0.4,0.7,0.4,1.2
	c0,0.9,0,1.6,0,1.9c0,0,0,0,0,0.1c-0.4,0.1-0.9,0.2-1.3,0.2H9.7c-0.4,0-0.9-0.1-1.3-0.2v-0.1c0-0.1,0-0.5,0-1.1
	c-1.9,0.4-2.3-0.9-2.3-0.9c-0.3-0.8-0.8-1-0.8-1c-0.7-0.4,0-0.4,0-0.4c0.7,0,1,0.7,1,0.7c0.5,1,1.5,0.8,2,0.5
	c0.1-0.4,0.2-0.8,0.4-0.9c-1.5-0.2-3.1-0.8-3.1-3.3c0-0.8,0.2-1.3,0.7-1.8c0.2-0.2,0-1,0.3-1.9c0,0,0.5-0.2,1.9,0.7
	C9,6.1,9.6,6,10.1,6s1.1,0.1,1.6,0.2c1.3-0.9,1.9-0.7,1.9-0.7c0.3,0.9,0.1,1.6,0.1,1.8c0.4,0.4,0.7,1.1,0.7,1.8
	C14.4,11.6,12.9,12.2,11.3,12.4z"/>
</svg>
