<?xml version="1.0" encoding="utf-8"?>
<!-- Generator: Adobe Illustrator 27.1.1, SVG Export Plug-In . SVG Version: 6.00 Build 0)  -->
<svg version="1.1" id="レイヤー_1" xmlns="http://www.w3.org/2000/svg" xmlns:xlink="http://www.w3.org/1999/xlink" x="0px"
	 y="0px" viewBox="0 0 20 20" style="enable-background:new 0 0 20 20;" xml:space="preserve">
<style type="text/css">
	.st0{display:none;fill:#ff0348;}
	.st1{display:none;fill:#FFFFFF;}
	.st2{fill:#ff0348;}
</style>
<path class="st0" d="M20,10c0,5.5-4.5,10-10,10S0,15.5,0,10S4.5,0,10,0S20,4.5,20,10z"/>
<path class="st1" d="M11.9,6.8c-0.7-0.4-1-0.7-1-0.7c-0.1-0.2-0.2-0.3-0.4-0.3c-0.2,0-0.4,0.2-0.4,0.4v4.6c-0.5-0.2-1.1-0.1-1.7,0.1
	c-1.1,0.4-1.7,1.4-1.4,2.2c0.3,0.8,1.4,1,2.5,0.6c0.9-0.4,1.5-1.1,1.5-1.9V7.8c0.1,0,0.5,0.2,1.2,1c0.9,1.1,0.3,2.4,0.4,2.5
	c0.1,0.1,1.3-0.5,1.3-2.3C13.8,7.7,12.7,7.2,11.9,6.8z"/>
<path class="st2" d="M10,0C4.5,0,0,4.5,0,10s4.5,10,10,10s10-4.5,10-10S15.5,0,10,0z M12.5,11.3c-0.1-0.1,0.5-1.5-0.4-2.5
	c-0.6-0.8-1.1-0.9-1.2-1v4.1c0,0.7-0.5,1.5-1.5,1.9c-1.1,0.4-2.2,0.2-2.5-0.6c-0.3-0.8,0.3-1.8,1.4-2.2c0.6-0.2,1.2-0.3,1.7-0.1V6.2
	c0-0.2,0.2-0.4,0.4-0.4c0.2,0,0.4,0.1,0.4,0.3c0,0,0.3,0.3,1,0.7c0.8,0.4,1.8,1,1.8,2.3C13.8,10.8,12.6,11.4,12.5,11.3z"/>
<path class="st0" d="M10,0C4.5,0,0,4.5,0,10s4.5,10,10,10s10-4.5,10-10S15.5,0,10,0z M12.7,11.3c-0.1-0.1,0.6-1.6-0.4-2.8
	c-0.7-0.8-1.2-1.1-1.3-1.1v4.5c0.1,0.8-0.6,1.6-1.6,2.1c-1.2,0.5-2.4,0.2-2.8-0.7s0.3-2,1.5-2.4c0.7-0.3,1.4-0.3,1.9-0.1V5.6
	c0-0.3,0.2-0.5,0.5-0.5c0.2,0,0.4,0.1,0.5,0.3c0,0,0.4,0.4,1.1,0.8c0.8,0.5,2.1,1.1,2.1,2.5C14.1,10.8,12.8,11.4,12.7,11.3z"/>
</svg>
