<?xml version="1.0" encoding="utf-8"?>
<!-- Generator: Adobe Illustrator 25.0.1, SVG Export Plug-In . SVG Version: 6.00 Build 0)  -->
<svg version="1.1" id="レイヤー_1" xmlns="http://www.w3.org/2000/svg" xmlns:xlink="http://www.w3.org/1999/xlink" x="0px"
	 y="0px" viewBox="0 0 11 11" style="enable-background:new 0 0 11 11;" xml:space="preserve">
<style type="text/css">
	.st0{display:none;}
	.st1{display:inline;}
	.st2{fill:#555555;}
</style>
<g id="レイヤー_1_1_" class="st0">
	<path class="st1" d="M13.4,5.8c0.2-0.2,0.2-0.5,0-0.7l-3.2-3.2c-0.2-0.2-0.5-0.2-0.7,0s-0.2,0.5,0,0.7l2.8,2.8L9.5,8.3
		C9.3,8.5,9.3,8.8,9.5,9s0.5,0.2,0.7,0L13.4,5.8z M-1,6h14V5H-1V6z"/>
</g>
<g id="レイヤー_1のコピー">
	<path class="st2" d="M6.6,5c-0.3,0.3-0.3,0.7,0,0.9l4.3,4.3L10.3,11L5.9,6.6C5.7,6.4,5.3,6.4,5,6.6L0.7,11L0,10.3L4.3,6
		c0.3-0.3,0.3-0.7,0-0.9L0,0.7L0.7,0L5,4.3c0.3,0.3,0.7,0.3,0.9,0L10.3,0L11,0.7L6.6,5z"/>
</g>
</svg>
