<?xml version="1.0" encoding="utf-8"?>
<!-- Generator: Adobe Illustrator 28.0.0, SVG Export Plug-In . SVG Version: 6.00 Build 0)  -->
<svg version="1.1" id="レイヤー_1" xmlns="http://www.w3.org/2000/svg" xmlns:xlink="http://www.w3.org/1999/xlink" x="0px"
	 y="0px" viewBox="0 0 225.6 27.7" style="enable-background:new 0 0 225.6 27.7;" xml:space="preserve">
<style type="text/css">
	.st0{fill-rule:evenodd;clip-rule:evenodd;fill:#FF0348;}
</style>
<path class="st0" d="M0,0.2h1v18H0V0.2z M3.2,0.2h1v18h-1C3.2,18.2,3.2,0.2,3.2,0.2z M5.2,0.2h2.2v18H5.2V0.2z M8.5,0.2h2.2v18H8.5
	V0.2z M11.7,0.2h1v18h-1V0.2z M14.2,0.2h1v18h-1V0.2z M16.2,0.2h1v18h-1V0.2z M18.2,0.2h2.2v18h-2.2V0.2z M21.4,0.2h2.2v18h-2.2V0.2
	z M25.9,0.2h1v18h-1V0.2z M28.4,0.2h1v18h-1V0.2z M30.4,0.2h1v18h-1V0.2z M33.6,0.2h1v18h-1V0.2z M35.6,0.2h2.2v18h-2.2V0.2z
	 M38.9,0.2h2.2v18h-2.2V0.2z M42.6,0.2h1v18h-1V0.2z M44.6,0.2h1v18h-1V0.2z M47.8,0.2H50v18h-2.2V0.2z M51.1,0.2h2.2v18h-2.2V0.2z
	 M54.3,0.2h1v18h-1V0.2z M56.8,0.2H59v18h-2.2V0.2z M60,0.2h1v18h-1V0.2z M63.2,0.2h1v18h-1C63.2,18.2,63.2,0.2,63.2,0.2z M65.2,0.2
	h1v18h-1V0.2z M67.2,0.2h2.2v18h-2.2V0.2z M70.9,0.2h1v18h-1V0.2z M72.9,0.2h1v18h-1V0.2z M76.2,0.2h2.2v18h-2.2V0.2z M79.4,0.2h2.2
	v18h-2.2V0.2z M82.7,0.2h1v18h-1V0.2z M85.1,0.2h1v18h-1V0.2z M87.1,0.2h2.2v18h-2.2V0.2z M91.6,0.2h1v18h-1V0.2z M93.6,0.2h2.2v18
	h-2.2V0.2z M96.9,0.2h1v18h-1V0.2z M99.3,0.2h1v18h-1V0.2z M101.3,0.2h1v18h-1V0.2z M104.6,0.2h2.2v18h-2.2V0.2z M107.8,0.2h2.2v18
	h-2.2V0.2z M111,0.2h1v18h-1V0.2z M113.5,0.2h2.2v18h-2.2V0.2z M116.8,0.2h2.2v18h-2.2V0.2z M121.2,0.2h1v18h-1V0.2z M123.2,0.2h1
	v18h-1V0.2z M125.2,0.2h1v18h-1V0.2z M127.7,0.2h1v18h-1V0.2z M129.7,0.2h1v18h-1V0.2z M132.9,0.2h2.2v18h-2.2V0.2z M136.2,0.2h2.2
	v18h-2.2V0.2z M139.4,0.2h1v18h-1V0.2z M141.9,0.2h1v18h-1V0.2z M143.9,0.2h1v18h-1V0.2z M147.1,0.2h2.2v18h-2.2V0.2z M150.4,0.2
	h2.2v18h-2.2V0.2z M153.6,0.2h1v18h-1V0.2z M156.1,0.2h1v18h-1V0.2z M158.1,0.2h2.2v18h-2.2V0.2z M162.6,0.2h2.2v18h-2.2V0.2z
	 M165.8,0.2h1v18h-1V0.2z M167.8,0.2h1v18h-1V0.2z M170.3,0.2h1v18h-1V0.2z M172.3,0.2h2.2v18h-2.2V0.2z M176.8,0.2h1v18h-1V0.2z
	 M178.8,0.2h1v18h-1V0.2z M180.8,0.2h2.2v18h-2.2V0.2z M184.5,0.2h2.2v18h-2.2V0.2z M187.7,0.2h1v18h-1V0.2z M191,0.2h1v18h-1V0.2z
	 M193,0.2h1v18h-1V0.2z M195,0.2h2.2v18H195V0.2z M198.7,0.2h1v18h-1V0.2z M200.7,0.2h1v18h-1V0.2z M203.9,0.2h2.2v18h-2.2V0.2z
	 M207.1,0.2h2.2v18h-2.2V0.2z M210.4,0.2h1v18h-1V0.2z M212.9,0.2h1v18h-1V0.2z M216.1,0.2h1v18h-1V0.2z M218.1,0.2h2.2v18h-2.2V0.2
	z M221.3,0.2h2.2v18h-2.2V0.2z M224.6,0.2h1v18h-1V0.2z M3.8,23.3l0.3-0.9L5.8,23v-1.9h0.9V23l1.7-0.6l0.3,0.9l-1.5,0.5l1,1.6
	l-0.8,0.5l-1-1.6L5.1,26l-0.8-0.6l1.1-1.5L3.8,23.3z M18.1,21.6v-0.9h4.7v0.9h-1.9v5.7H20v-5.7C20,21.6,18.1,21.6,18.1,21.6z
	 M32.3,21.1v-0.9H37v0.5c0,0.5-0.2,1-0.6,1.5c-0.1,0.2-0.3,0.4-0.7,0.8c-0.3,0.4-0.6,0.7-0.7,1c-0.4,0.7-0.6,1.7-0.6,2.9v0.5h-0.9
	v-0.5c0-1.3,0.2-2.5,0.7-3.3c0.1-0.3,0.4-0.6,0.7-1s0.6-0.7,0.7-0.9c0.2-0.2,0.3-0.4,0.3-0.5h-3.6V21.1z M46.5,24v-0.4
	c0-0.8,0.1-1.5,0.2-1.9c0.3-1.1,1-1.7,2.2-1.7c0.3,0,0.6,0,0.8,0.1s0.4,0.2,0.6,0.3c0.2,0.1,0.3,0.3,0.4,0.5
	c0.1,0.2,0.2,0.4,0.3,0.6s0.1,0.5,0.2,0.8c0,0.3,0.1,0.6,0.1,0.8c0,0.2,0,0.5,0,0.9c0,0.6,0,1-0.1,1.5c-0.1,0.4-0.3,0.8-0.5,1.2
	c-0.3,0.3-0.6,0.6-1,0.6c-0.1,0-0.3,0-0.6,0c-0.4,0-0.8-0.1-1.1-0.3c-0.3-0.2-0.6-0.4-0.7-0.7c-0.2-0.3-0.3-0.7-0.4-1
	C46.6,24.9,46.5,24.5,46.5,24L46.5,24z M47.4,24c0,1.4,0.3,2.2,1,2.4c0.1,0,0.2,0,0.3,0h0.2c0.3,0,0.6-0.1,0.8-0.2s0.3-0.3,0.4-0.6
	c0.1-0.4,0.2-0.9,0.2-1.6v-0.5c0-0.3,0-0.5,0-0.7s0-0.4-0.1-0.6c0-0.2-0.1-0.4-0.1-0.6c-0.1-0.2-0.2-0.3-0.3-0.4S49.5,21,49.4,21
	c-0.1,0-0.1,0-0.3,0h-0.2h-0.2h-0.3c-0.2,0-0.4,0.1-0.5,0.3c-0.1,0.2-0.2,0.4-0.3,0.7c-0.1,0.3-0.1,0.5-0.1,0.8c0,0.2,0,0.5,0,0.8
	V24H47.4z M60.8,21.9L63,20h0.9v7.3H63v-6l-1.6,1.3L60.8,21.9z M74.9,24v-0.4c0-0.8,0.1-1.5,0.2-1.9c0.3-1.1,1-1.7,2.2-1.7
	c0.3,0,0.6,0,0.8,0.1s0.4,0.2,0.6,0.3c0.2,0.1,0.3,0.3,0.4,0.5s0.2,0.4,0.3,0.6c0.1,0.2,0.1,0.5,0.2,0.8c0,0.3,0.1,0.6,0.1,0.8
	c0,0.2,0,0.5,0,0.9c0,0.6,0,1-0.1,1.5c-0.1,0.4-0.3,0.8-0.5,1.2c-0.3,0.3-0.6,0.6-1,0.6c-0.1,0-0.3,0-0.6,0c-0.4,0-0.8-0.1-1.1-0.3
	c-0.3-0.2-0.6-0.4-0.7-0.7c-0.2-0.3-0.3-0.7-0.4-1C74.9,24.9,74.9,24.5,74.9,24L74.9,24z M75.8,24c0,1.4,0.3,2.2,1,2.4
	c0.1,0,0.2,0,0.3,0h0.2c0.3,0,0.6-0.1,0.8-0.2c0.2-0.1,0.3-0.3,0.4-0.6c0.1-0.4,0.2-0.9,0.2-1.6v-0.5c0-0.3,0-0.5,0-0.7
	s0-0.4-0.1-0.6c0-0.2-0.1-0.4-0.1-0.6c-0.1-0.2-0.2-0.3-0.3-0.4C78,21,77.8,21,77.7,20.9c-0.1,0-0.1,0-0.3,0h-0.2H77h-0.3
	c-0.2,0-0.4,0.1-0.5,0.3c-0.1,0.2-0.2,0.4-0.3,0.7c-0.1,0.3-0.1,0.5-0.1,0.8c0,0.2,0,0.5,0,0.8C75.8,23.5,75.8,24,75.8,24z
	 M89.1,22.4c0-0.7,0.2-1.2,0.7-1.7s1-0.7,1.7-0.7s1.2,0.2,1.7,0.7c0.4,0.4,0.7,1,0.7,1.8c0,0.4-0.1,0.8-0.2,1.2
	c-0.1,0.4-0.3,0.7-0.6,1.2c-0.5,0.9-1.3,1.8-2.3,2.7l-0.6-0.7c0.8-0.7,1.5-1.5,1.9-2.2c-0.2,0-0.4,0-0.6,0c-0.7,0-1.3-0.2-1.7-0.6
	C89.3,23.6,89.1,23,89.1,22.4L89.1,22.4z M90,22.4c0,0.4,0.1,0.7,0.4,1c0.3,0.2,0.6,0.4,1,0.4c0.5,0,0.8-0.1,1.1-0.3
	c0.2-0.2,0.3-0.5,0.3-1s-0.1-0.8-0.4-1.1c-0.2-0.3-0.6-0.4-1-0.4s-0.7,0.1-1,0.4C90.2,21.6,90,22,90,22.4L90,22.4z M103.3,24v-0.4
	c0-0.8,0.1-1.5,0.2-1.9c0.3-1.1,1-1.7,2.2-1.7c0.3,0,0.6,0,0.8,0.1c0.2,0.1,0.4,0.2,0.6,0.3c0.2,0.1,0.3,0.3,0.4,0.5
	s0.2,0.4,0.3,0.6c0.1,0.2,0.1,0.5,0.2,0.8c0,0.3,0.1,0.6,0.1,0.8c0,0.2,0,0.5,0,0.9c0,0.6,0,1-0.1,1.5c-0.1,0.4-0.3,0.8-0.5,1.2
	c-0.3,0.3-0.6,0.6-1,0.6c-0.1,0-0.3,0-0.6,0c-0.4,0-0.8-0.1-1.1-0.3c-0.3-0.2-0.6-0.4-0.7-0.7c-0.2-0.3-0.3-0.7-0.4-1
	C103.3,24.9,103.3,24.5,103.3,24L103.3,24z M104.2,24c0,1.4,0.3,2.2,1,2.4c0.1,0,0.2,0,0.3,0h0.2c0.3,0,0.6-0.1,0.8-0.2
	c0.2-0.1,0.3-0.3,0.4-0.6c0.1-0.4,0.2-0.9,0.2-1.6v-0.5c0-0.3,0-0.5,0-0.7s0-0.4-0.1-0.6c0-0.2-0.1-0.4-0.1-0.6
	c-0.1-0.2-0.2-0.3-0.3-0.4c-0.1-0.1-0.3-0.2-0.4-0.2s-0.1,0-0.3,0h-0.2h-0.2h-0.3c-0.2,0-0.4,0.1-0.5,0.3c-0.1,0.2-0.2,0.4-0.3,0.7
	c-0.1,0.3-0.1,0.5-0.1,0.8c0,0.2,0,0.5,0,0.8L104.2,24L104.2,24z M117.3,26.8l0.4-0.9c0.7,0.3,1.3,0.4,1.7,0.4
	c0.5,0,0.9-0.1,1.2-0.3c0.3-0.2,0.5-0.6,0.5-1l0,0c0-0.5-0.2-0.8-0.6-1s-0.8-0.3-1.3-0.3l-0.3-0.8l1.7-1.8h-3.1v-0.9h4.3v1l-1.6,1.7
	c0.5,0.1,1,0.4,1.3,0.7c0.4,0.4,0.5,0.8,0.5,1.4v0.1c0,0.7-0.3,1.2-0.8,1.6s-1.1,0.6-1.9,0.6C118.8,27.3,118.1,27.1,117.3,26.8
	L117.3,26.8z M131.7,24v-0.4c0-0.8,0.1-1.5,0.2-1.9c0.3-1.1,1-1.7,2.2-1.7c0.3,0,0.6,0,0.8,0.1s0.4,0.2,0.6,0.3
	c0.2,0.1,0.3,0.3,0.4,0.5c0.1,0.2,0.2,0.4,0.3,0.6s0.1,0.5,0.2,0.8c0,0.3,0.1,0.6,0.1,0.8c0,0.2,0,0.5,0,0.9c0,0.6,0,1-0.1,1.5
	c-0.1,0.4-0.3,0.8-0.5,1.2c-0.3,0.3-0.6,0.6-1,0.6c-0.1,0-0.3,0-0.6,0c-0.4,0-0.8-0.1-1.1-0.3c-0.3-0.2-0.6-0.4-0.7-0.7
	c-0.2-0.3-0.3-0.7-0.4-1C131.7,24.9,131.7,24.5,131.7,24L131.7,24z M132.6,24c0,1.4,0.3,2.2,1,2.4c0.1,0,0.2,0,0.3,0h0.2
	c0.3,0,0.6-0.1,0.8-0.2s0.3-0.3,0.4-0.6c0.1-0.4,0.2-0.9,0.2-1.6v-0.5c0-0.3,0-0.5,0-0.7s0-0.4-0.1-0.6c0-0.2-0.1-0.4-0.1-0.6
	c-0.1-0.2-0.2-0.3-0.3-0.4s-0.3-0.2-0.4-0.2c-0.1,0-0.1,0-0.3,0H134h-0.2h-0.3c-0.2,0-0.4,0.1-0.5,0.3c-0.1,0.2-0.2,0.4-0.3,0.7
	c-0.1,0.3-0.1,0.5-0.1,0.8c0,0.2,0,0.5,0,0.8L132.6,24L132.6,24z M145.8,24v-0.4c0-0.8,0.1-1.5,0.2-1.9c0.3-1.1,1-1.7,2.2-1.7
	c0.3,0,0.6,0,0.8,0.1s0.4,0.2,0.6,0.3c0.2,0.1,0.3,0.3,0.4,0.5c0.1,0.2,0.2,0.4,0.3,0.6s0.1,0.5,0.2,0.8c0,0.3,0.1,0.6,0.1,0.8
	c0,0.2,0,0.5,0,0.9c0,0.6,0,1-0.1,1.5c-0.1,0.4-0.3,0.8-0.5,1.2c-0.3,0.3-0.6,0.6-1,0.6c-0.1,0-0.3,0-0.6,0c-0.4,0-0.8-0.1-1.1-0.3
	c-0.3-0.2-0.6-0.4-0.7-0.7c-0.2-0.3-0.3-0.7-0.4-1C145.9,24.9,145.8,24.5,145.8,24L145.8,24z M146.8,24c0,1.4,0.3,2.2,1,2.4
	c0.1,0,0.2,0,0.3,0h0.2c0.3,0,0.6-0.1,0.8-0.2s0.3-0.3,0.4-0.6c0.1-0.4,0.2-0.9,0.2-1.6v-0.5c0-0.3,0-0.5,0-0.7s0-0.4-0.1-0.6
	c0-0.2-0.1-0.4-0.1-0.6c-0.1-0.2-0.2-0.3-0.3-0.4s-0.3-0.2-0.4-0.2c-0.1,0-0.1,0-0.3,0h-0.2H148h-0.3c-0.2,0-0.4,0.1-0.5,0.3
	c-0.1,0.2-0.2,0.4-0.3,0.7c-0.1,0.3-0.1,0.5-0.1,0.8c0,0.2,0,0.5,0,0.8L146.8,24L146.8,24z M160,25.1c0-0.9,0.2-1.6,0.7-2.4
	c0.5-0.9,1.3-1.8,2.4-2.9l0.7,0.6c-0.1,0.1-0.2,0.2-0.4,0.4c-0.2,0.2-0.3,0.4-0.4,0.5c-0.1,0.1-0.2,0.2-0.4,0.4
	c-0.2,0.2-0.3,0.3-0.4,0.5c-0.1,0.2-0.2,0.3-0.3,0.5c0.2,0,0.4-0.1,0.6-0.1c0.7,0,1.3,0.2,1.7,0.7c0.4,0.4,0.6,1,0.6,1.8
	c0,0.7-0.2,1.2-0.7,1.6c-0.4,0.4-1,0.6-1.7,0.6s-1.3-0.2-1.7-0.6C160.2,26.3,160,25.7,160,25.1L160,25.1z M161,25.1
	c0,0.4,0.1,0.7,0.4,1c0.3,0.2,0.6,0.4,1,0.4s0.8-0.1,1-0.4c0.3-0.2,0.4-0.6,0.4-1c0-0.5-0.1-0.8-0.4-1.1c-0.2-0.3-0.6-0.4-1-0.4
	s-0.8,0.1-1,0.4C161.1,24.2,161,24.6,161,25.1L161,25.1z M174.2,20.8c0.4-0.3,0.8-0.5,1.1-0.6s0.7-0.2,1.2-0.2
	c0.6,0,1.1,0.2,1.5,0.6s0.6,0.8,0.6,1.4c0,0.2,0,0.5-0.1,0.7s-0.2,0.4-0.3,0.5s-0.2,0.3-0.5,0.5c-0.2,0.2-0.4,0.3-0.5,0.4
	s-0.3,0.2-0.5,0.3c-0.2,0.1-0.4,0.3-0.5,0.3c-0.1,0.1-0.3,0.2-0.4,0.4c-0.2,0.2-0.3,0.3-0.3,0.5c-0.1,0.2-0.1,0.4-0.1,0.7h3.3v0.9
	h-4.2c0-0.3-0.1-0.5-0.1-0.7c0-0.4,0-0.7,0.1-1s0.2-0.6,0.4-0.8c0.2-0.2,0.4-0.4,0.6-0.6c0.2-0.2,0.4-0.3,0.7-0.5
	c0,0,0.1-0.1,0.2-0.1c0.1-0.1,0.2-0.1,0.3-0.2c0.1,0,0.1-0.1,0.3-0.2c0.1-0.1,0.2-0.2,0.3-0.2c0.1-0.1,0.1-0.1,0.2-0.2
	c0.1-0.1,0.1-0.2,0.1-0.3c0-0.1,0-0.2,0-0.3c0-0.3-0.1-0.6-0.3-0.8c-0.2-0.2-0.5-0.3-0.8-0.3s-0.5,0-0.8,0.1
	c-0.2,0.1-0.4,0.1-0.5,0.2s-0.3,0.2-0.5,0.3L174.2,20.8z M188.5,21.9l2.2-1.9h0.9v7.3h-0.9v-6l-1.6,1.3L188.5,21.9z M202.6,24v-0.4
	c0-0.8,0.1-1.5,0.2-1.9c0.3-1.1,1-1.7,2.2-1.7c0.3,0,0.6,0,0.8,0.1s0.4,0.2,0.6,0.3c0.2,0.1,0.3,0.3,0.4,0.5
	c0.1,0.2,0.2,0.4,0.3,0.6s0.1,0.5,0.2,0.8c0,0.3,0.1,0.6,0.1,0.8c0,0.2,0,0.5,0,0.9c0,0.6,0,1-0.1,1.5c-0.1,0.4-0.3,0.8-0.5,1.2
	c-0.3,0.3-0.6,0.6-1,0.6c-0.1,0-0.3,0-0.6,0c-0.4,0-0.8-0.1-1.1-0.3c-0.3-0.2-0.6-0.4-0.7-0.7c-0.2-0.3-0.3-0.7-0.4-1
	C202.6,24.9,202.6,24.5,202.6,24L202.6,24z M203.5,24c0,1.4,0.3,2.2,1,2.4c0.1,0,0.2,0,0.3,0h0.2c0.3,0,0.6-0.1,0.8-0.2
	s0.3-0.3,0.4-0.6c0.1-0.4,0.2-0.9,0.2-1.6v-0.5c0-0.3,0-0.5,0-0.7s0-0.4-0.1-0.6c0-0.2-0.1-0.4-0.1-0.6c-0.1-0.2-0.2-0.3-0.3-0.4
	s-0.3-0.2-0.4-0.2c-0.1,0-0.1,0-0.3,0H205h-0.2h-0.3c-0.2,0-0.4,0.1-0.5,0.3c-0.1,0.2-0.2,0.4-0.3,0.7c-0.1,0.3-0.1,0.5-0.1,0.8
	c0,0.2,0,0.5,0,0.8L203.5,24L203.5,24z M216.7,23.3l0.3-0.9l1.7,0.6v-1.9h0.9V23l1.7-0.6l0.3,0.9l-1.5,0.5l1,1.6l-0.8,0.5l-1-1.6
	L218,26l-0.8-0.6l1.1-1.5L216.7,23.3z"/>
</svg>
