<?xml version="1.0" encoding="utf-8"?>
<!-- Generator: Adobe Illustrator 25.1.0, SVG Export Plug-In . SVG Version: 6.00 Build 0)  -->
<svg version="1.1" id="レイヤー_1" xmlns="http://www.w3.org/2000/svg" xmlns:xlink="http://www.w3.org/1999/xlink" x="0px"
	 y="0px" viewBox="0 0 240 159" style="enable-background:new 0 0 240 159;" xml:space="preserve">
<style type="text/css">
	.st0{fill:#231815;}
	.st1{fill:#E40046;}
	.st2{display:none;}
	.st3{display:inline;opacity:0.1;fill:#606060;enable-background:new    ;}
</style>
<g id="レイヤー_2_1_">
	<g>
		<g>
			<path class="st0" d="M74.2,153.2c-0.6-0.2-1.1-0.5-1.7-0.9v0.5c-0.5,0-1.4,0-1.9,0h-2c-0.4,0-1.2,0-1.6,0v-0.6
				c-0.8,0.6-1.4,0.9-1.7,1l-0.9-0.9c1.1-0.3,2.3-1.2,2.9-1.7c1-0.9,1.5-1.9,1.9-2.6l1.3,0.4c0.1,0,0.2,0.1,0.2,0.2
				c0,0.1-0.1,0.1-0.2,0.2c0.4,0.9,1.5,1.8,1.7,2c0.9,0.7,1.5,1,2.6,1.5L74.2,153.2z M71.7,157.9c0-0.3,0-0.3,0-0.5h-3.9v0.5h-1.1
				c0-0.2,0.1-1.1,0.1-1.3v-1.7c0-0.4,0-0.8-0.1-1.2c0.4,0,1.1,0.1,1.8,0.1h2.2c0.4,0,0.8,0,2-0.1c0,0.5,0,1,0,1.2v1.5
				c0,0.4,0,1,0,1.5H71.7z M69.7,149.4c-1,1.5-2.1,2.3-2.2,2.4c0.9,0,1,0.1,1.1,0.1h1.9c0.3,0,0.9,0,1.3,0
				C71,151.2,70.3,150.3,69.7,149.4z M71.8,154.7h-4v1.8h4V154.7z"/>
			<path class="st0" d="M88.4,151v2.9c0,0.4,0,2.3,0,2.7c0,1-0.6,1.1-1.9,1.1l-0.5-1.2c0.3,0,0.6,0.1,0.9,0.1c0.5,0,0.5-0.1,0.5-0.5
				v-6.8h-6.7v5.2c0,1.9,0,2.7,0.1,3.1h-1.2c0.1-0.3,0.2-2.8,0.2-3.1v-3.2c0-0.6,0-2.4-0.1-2.9c0.7,0,2,0,2.8,0h0.2h2.7
				c0.1,0,2.8-0.1,3.3-0.1C88.4,148.7,88.4,150.7,88.4,151z M84.9,151h-1.7c-0.6,0-1.2,0-1.7,0.1v-1c0.7,0.1,1.7,0.1,1.7,0.1h1.7
				c0.2,0,1,0,1.7-0.1v1C86.1,151,85.4,151,84.9,151z M84.5,155.3h-1.9c0,0.1,0,0.5,0.1,0.7h-1c0-0.4,0.1-1.1,0.1-1.3v-1.5
				c0-0.4,0-0.7,0-1.3c0.7,0,1.5,0.1,1.6,0.1h1.2c0.1,0,0.8,0,0.9,0c0.3,0,0.7,0,0.8,0c0,0.2,0,1.2,0,1.4v0.6c0,0.4,0,1,0.1,1.4
				C85.4,155.4,85,155.3,84.5,155.3z M85.2,152.9h-2.6v1.6h2.6V152.9z"/>
			<path class="st0" d="M102.8,152.6c-0.9-0.3-1.3-0.5-1.9-0.9v0.6c-0.5-0.1-1.2-0.1-1.7-0.1h-1.7c-0.6,0-1.2,0-1.7,0.1v-0.7
				c-0.9,0.6-1.4,0.8-1.7,0.9l-0.8-0.9c1-0.3,1.7-0.6,2.8-1.4c0.8-0.6,1.5-1.4,1.9-2.3l1.1,0.4c0.1,0,0.2,0.1,0.2,0.2
				c0,0.1-0.1,0.2-0.2,0.2c0.3,0.7,2,2.3,4.5,2.9L102.8,152.6z M99.2,154.3h-0.9c-0.3,0.8-0.8,1.6-1.1,2.1c0.8-0.1,2-0.2,3.1-0.4
				c-0.3-0.3-0.4-0.4-1-0.8l0.8-0.6c1,0.7,1.9,2,2.2,2.6l-0.8,0.7c-0.1-0.3-0.2-0.6-0.6-1.1c-3.6,0.5-3.9,0.6-5.5,0.7
				c0,0.1-0.1,0.3-0.3,0.3c0,0-0.1,0-0.1-0.2l-0.1-1.1c0.6,0,0.8,0,1.1,0c0.3-0.4,0.9-1.2,1.2-2.2h-0.4c-1.2,0-1.7,0-2.7,0.1v-1
				c1,0.1,1.4,0.1,2.8,0.1h2.4c1.3,0,2,0,3.6-0.1v1C102,154.3,101.1,154.3,99.2,154.3z M98.2,149.3c-0.4,0.6-1,1.3-2.1,2.1
				c0.1,0,0.8,0.1,1.3,0.1h1.7c0.4,0,1,0,1.2,0C99.3,150.7,98.9,150.2,98.2,149.3z"/>
			<path class="st0" d="M111.7,154.7c-0.2-0.2-0.7-0.5-1.2-1.1v2.3c0,0.4,0.1,1.7,0.1,2h-1.1c0.1-1,0.1-1.9,0.1-2v-2.1
				c-0.6,0.6-1.2,1-1.6,1.2l-0.7-0.9c2-1.1,2.9-2.4,3.1-3.1h-1.2c-0.5,0-0.9,0-1.4,0.1v-1c0.4,0.1,0.4,0.1,1.3,0.1h0.4V150
				c0-0.6,0-0.9,0-1.8l1.2,0.1c0.1,0,0.2,0.1,0.2,0.2c0,0.2-0.2,0.2-0.3,0.3c0,0.3,0,0.8,0,1.3v0.2c0.4,0,0.8,0,1.1-0.1l0.4,0.4
				c-0.2,0.3-0.9,1.5-1.1,1.7c-0.1,0.2-0.2,0.3-0.3,0.4c0.5,0.6,1.1,1,1.8,1.5L111.7,154.7z M115.5,157.3h-1.9c-0.9,0-1.2,0-1.9,0.1
				v-1c0.6,0.1,0.9,0.1,1.9,0.1h0.6v-4.2h-0.5c-0.6,0-1.2,0-1.7,0.1v-1c0.7,0.1,1.7,0.1,1.7,0.1h0.5c0-1.7,0-1.9,0-3.4l1.1,0.1
				c0.1,0,0.3,0,0.3,0.2c0,0.1-0.1,0.2-0.2,0.2c0,1.2,0,1.3,0,2.9h0.2c0,0,1,0,1.7-0.1v1c-0.5-0.1-1.2-0.1-1.7-0.1h-0.2v4.2h0.3
				c0.5,0,1.4,0,2-0.1v1C116.8,157.3,116.5,157.3,115.5,157.3z"/>
			<path class="st0" d="M129.6,153.5l-1.1,0.2l0.1,0.3c0.1,0.4,0.8,2.7,1,3.2l-1.4,0.3c0-0.7-0.4-2.4-0.7-3.4l-0.1-0.3l-1.3,0.2
				c-0.7,0.1-2,0.4-2.5,0.6l-0.3-1.2c0.7,0,2-0.2,2.7-0.3l1.1-0.2l-0.4-1.7l-0.7,0.1c-0.7,0.1-1.6,0.4-2.2,0.6l-0.3-1.1
				c0.3,0,0.6,0,1.2-0.1c0.9-0.1,1-0.1,1.1-0.2l0.6-0.1c0,0-0.4-1.4-0.7-2.1l1.3-0.1c0.2,0,0.3,0,0.3,0.1s-0.1,0.2-0.2,0.4
				c0.1,0.6,0.2,0.8,0.3,1.5l0.6-0.1c0.9-0.2,1.4-0.4,2-0.6l0.3,1.1c-0.7,0.1-1.3,0.2-2,0.3l-0.6,0.1l0.4,1.7l1.1-0.2
				c0.8-0.1,1.5-0.3,2.3-0.6l0.3,1.1C130.8,153.3,130.2,153.4,129.6,153.5z"/>
			<path class="st0" d="M144.3,149.5c-1.1,1.1-1.4,1.5-2.2,2.1v2.9c0,0.8,0,0.9,0.1,1.8c0,0.7,0,0.9,0.1,1.2h-1.2c0-0.2,0-0.5,0-0.5
				c0-0.4,0-2.2,0-2.6v-2.1c-0.9,0.6-1.9,1.2-3,1.6l-1-0.8c0.6-0.2,1.9-0.6,3.7-1.9c1.1-0.8,2.1-1.8,2.9-2.9l1,0.7
				c0.1,0.1,0.1,0.1,0.1,0.2C144.8,149.4,144.6,149.4,144.3,149.5z"/>
			<path class="st0" d="M156.2,153h-0.4c0,0.5-0.1,1.5-0.9,2.7c-0.9,1.2-1.9,1.7-2.4,1.9l-1.1-0.8c0.5-0.1,1.7-0.4,2.6-1.6
				c0.7-0.9,0.7-1.7,0.7-2.2h-1.4c-1,0-1.9,0-2.9,0.1V152c1,0.1,2.5,0.1,2.9,0.1h1.4c0-0.6,0-1.2-0.1-1.8c-1.1,0.3-1.8,0.5-2.7,0.6
				l-0.7-1c0.7,0,1.6,0,3.1-0.5c0.8-0.3,1.6-0.5,2.4-1l0.8,0.7c0.1,0.1,0.1,0.1,0.1,0.2c0,0.1-0.1,0.1-0.1,0.1c-0.1,0-0.1,0-0.3,0
				c-0.2,0.1-1.3,0.5-1.5,0.6c0,1.4,0,1.6,0,2.2h0.4c1,0,2,0,2.9-0.1v1.1C157.8,153,156.3,153,156.2,153z"/>
			<path class="st0" d="M170.2,156.6c0-0.1,0-0.2,0.1-0.6h-2.6c-2.3,0-2.6,0-3.4,0.1V155c0.3,0,0.5,0.1,1.6,0.1c0.3,0,1.4,0,1.6,0
				h2.8v-4.2h-3c-0.8,0-2.4,0-3.1,0.1v-1.1c0.8,0.1,1.7,0.1,2.5,0.1h2.3c0.4,0,0.5,0,0.8,0s1.4,0,1.6,0c-0.1,0.6-0.1,1.5-0.1,2.3
				v2.2c0,0.2,0,1.6,0.1,2.2h-1.2V156.6z M170.9,149.7c-0.2-0.3-0.8-0.7-1.2-1l0.5-0.6c0.4,0.2,1,0.6,1.3,1L170.9,149.7z
				 M172.7,149.4c-0.4-0.5-0.7-0.7-1.2-1l0.5-0.6c0.6,0.3,1.1,0.8,1.3,1.1L172.7,149.4z"/>
		</g>
		<g>
			<path class="st0" d="M136.8,131.2c-0.1,0-0.1,0-0.2,0c-0.1,0.1-0.3,0.2-0.4,0.4c-0.1-0.1-0.2,0.2-0.3,0.1l-0.1-0.1
				c-0.2,0.1-0.4,0.2-0.5,0.3c-0.2,0-0.3,0-0.5,0l-0.1,0.1c-0.2,0-0.4,0-0.6,0l-0.1,0.1c-0.1,0-0.2,0-0.3,0l-0.1,0.1
				c-0.2,0-0.4,0-0.6,0c-0.1,0-0.1-0.1-0.2-0.1c-0.1,0-0.1,0.1-0.2,0.1c-0.1,0-0.2-0.1-0.2-0.1c-0.4,0-0.6-0.3-0.9-0.4
				c0-0.1,0-0.2,0-0.2c-0.1-0.1-0.1-0.1-0.2-0.2c-0.1,0-0.1,0-0.2,0c0-0.1,0.1-0.1,0.1-0.1c0-0.1-0.1,0-0.2-0.1c0,0,0-0.1,0-0.2
				l-0.1-0.1c0-0.2,0-0.4,0-0.6l-0.1-0.1V130c0-0.6,0-1.1,0-1.7l0.1-0.1c0-0.1,0-0.2,0-0.4c0,0-0.1-0.1-0.2-0.1l-0.1,0.1
				c-0.2,0-0.3,0-0.4,0c-0.1,0.1-0.2,0.1-0.2,0.2l0.1,0.1c0,0.1-0.1,0.1-0.1,0.2c-0.1-0.1-0.1-0.1-0.2-0.1c-0.1,0.1-0.2,0.1-0.3,0.2
				c-0.1,0.1-0.2,0.1-0.2,0.3c-0.1,0.1-0.2,0.3-0.4,0.3c-0.1,0.1-0.2,0.3-0.3,0.3c-0.2,0.1-0.3,0.2-0.4,0.3
				c-0.2,0.2-0.4,0.2-0.5,0.4v0.1c-0.1,0-0.1,0-0.2,0.1c0,0,0,0.1,0,0.2c-0.2,0.2-0.4,0.4-0.5,0.6c-0.1,0.1-0.3,0.2-0.3,0.4
				c0,0.1-0.3,0.2-0.4,0.3v0.1c-0.1,0-0.1,0-0.2,0.1s0,0.2,0,0.3c-0.2,0.2-0.4,0.5-0.7,0.7c-0.1,0.1-0.1,0.3-0.2,0.4
				c-0.1,0.1-0.2,0.2-0.4,0.4c-0.1,0-0.3,0-0.5,0c-0.1,0.1-0.2,0.2-0.3,0.3c-0.1,0-0.1,0-0.1,0c-0.1-0.1-0.3-0.3-0.4-0.4
				c-0.1-0.2-0.1-0.3-0.2-0.4c-0.1-0.1,0-0.3-0.2-0.4c0-0.2,0-0.4,0-0.6c0,0,0-0.1,0.1-0.1c0-0.1,0-0.2,0-0.3
				c0.1-0.2,0.2-0.4,0.3-0.5c0.1-0.1,0.1-0.1,0.1-0.3l0.1-0.1c0-0.1,0-0.2,0-0.3c0,0,0-0.1,0.1-0.1c0.2-0.2,0.2-0.5,0.3-0.7
				c0-0.1,0-0.2,0-0.2c0.1-0.1,0.1-0.2,0.1-0.3c0.1-0.1,0.2-0.3,0.2-0.5c0.1-0.1,0.1-0.3,0.1-0.4c0.1-0.1,0.1-0.1,0.2-0.2l-0.1-0.1
				V128c0.1-0.1,0.1-0.3,0.2-0.4c-0.1-0.1-0.1-0.1-0.2-0.2c-0.1,0-0.2,0-0.4,0c-0.2,0.2-0.5,0.3-0.6,0.6c0,0,0,0,0,0.1
				c-0.2,0-0.4,0.2-0.6,0.3c-0.1,0-0.1,0.1-0.2,0.2c-0.1,0-0.1,0-0.3,0c-0.1,0.1-0.2,0.3-0.3,0.4c-0.1,0-0.1,0-0.2,0
				c-0.2,0.2-0.3,0.3-0.5,0.5c-0.1,0-0.2,0-0.3,0.1c-0.4,0.2-0.8,0.3-1.2,0.7c-0.1,0-0.1,0-0.2,0l-0.1,0.1c-0.1,0-0.2,0-0.2,0
				c-0.1,0.1-0.2,0.3-0.4,0.3c-0.1,0.1-0.2,0.1-0.3,0.2c-0.1,0.1-0.2,0.1-0.3,0.2c-0.1,0.1-0.2,0.1-0.3,0.2c-0.1,0.2-0.3,0-0.4,0.2
				c-0.1,0.1-0.2,0.1-0.3,0.2c-0.1,0-0.1,0-0.2,0.1s-0.2,0.1-0.3,0.2c-0.2,0-0.4,0-0.7,0l-0.1,0.1c-0.2,0-0.4,0-0.6,0l-0.1-0.1
				c-0.1,0-0.1,0-0.2,0l-0.1-0.1c-0.1,0-0.2,0-0.3,0c-0.1-0.1-0.1-0.1-0.2-0.2c-0.1,0-0.1,0-0.2,0l-0.1-0.1c-0.1,0-0.2,0-0.2,0
				l-0.1-0.1c-0.1,0-0.2,0-0.4,0c-0.1-0.1-0.1-0.1-0.2-0.2c0-0.1-0.1-0.2-0.2-0.2c-0.2-0.1-0.3-0.2-0.4-0.4s-0.1-0.4-0.3-0.4
				c0-0.1,0-0.2,0-0.3l-0.1-0.1c0-0.1,0-0.3,0-0.5l0.1-0.1c0-0.2,0-0.5,0-0.7l0.1-0.1c0-0.4,0-0.4,0.2-0.7c0-0.1,0-0.2,0-0.2
				l0.1-0.1c0-0.1,0-0.2,0-0.2c0.1-0.1,0.1-0.3,0.2-0.4s0.1-0.3,0.3-0.4c0-0.2,0.1-0.3,0.2-0.4s0.2-0.2,0.3-0.3c0.1,0,0.2,0,0.2,0
				s0,0,0.1,0c0.1-0.1,0.2-0.2,0.3-0.3c0.1,0,0.1,0,0.2,0c0-0.1,0-0.1,0-0.2h0.1c0.1,0,0.4-0.1,0.5-0.2l0.1-0.1c0,0,0,0,0.1,0
				c0.1-0.1,0.2-0.2,0.3-0.3c0.2,0,0.3,0,0.5,0l0.1,0.1h0.1c0.1,0.1,0.3,0.3,0.4,0.3c0.1,0.1,0.2,0.1,0.3,0.1
				c0.1,0.2,0.2,0.4,0.3,0.6c0,0-0.1,0.1-0.1,0.2s0,0.2,0,0.3c-0.1,0.2-0.2,0.4-0.3,0.6c-0.1,0-0.2,0-0.3,0
				c-0.2,0.1-0.2,0.2-0.3,0.3c-0.2,0-0.2,0.2-0.3,0.2c-0.1,0-0.1,0-0.2,0c0,0.1,0,0.1-0.1,0.2l-0.1-0.1l-0.1,0.1
				c-0.2,0-0.3,0.1-0.3,0.3c-0.1,0.1-0.1,0.3-0.3,0.4c-0.2,0.1-0.2,0.3-0.3,0.5c-0.1,0.1-0.2,0.3-0.2,0.4c0,0.1-0.1,0.1-0.1,0.1
				c0,0.2,0,0.4,0,0.6c0.1,0.1,0.3,0.3,0.4,0.4c0.4,0,0.9,0,1.3,0l0.1-0.1c0.2,0,0.3-0.1,0.5-0.1s0.3-0.2,0.5-0.1
				c0.2,0.1,0.2-0.2,0.4-0.1c0.1,0,0.2-0.1,0.3-0.1c0-0.1,0-0.1,0-0.2c0.1-0.1,0.3,0,0.3,0c0.1-0.1,0.2-0.1,0.2-0.1
				c0.1,0,0.2-0.1,0.3-0.1c0.1,0,0.3-0.1,0.3-0.1c0.2-0.2,0.4-0.2,0.6-0.5c0.1,0,0.2,0,0.3,0c0.3-0.2,0.7-0.2,0.9-0.5
				c0.1,0,0.2,0,0.2,0l0.1-0.1c0.1,0,0.1,0,0.2,0s0.1-0.2,0.3-0.1c0.2-0.2,0.3-0.3,0.5-0.5c0,0,0.1,0,0.2,0c0.1-0.1,0.1-0.2,0.2-0.2
				s0.2,0,0.3,0c0-0.1,0-0.1,0-0.2c0,0,0.1-0.1,0.2-0.2c0.1,0,0.2,0.1,0.3-0.1c0.1-0.1,0.2,0,0.3-0.1c0.1-0.1,0.2-0.1,0.3-0.2
				c0.1,0,0.2-0.1,0.2-0.1c0.1-0.1,0.1-0.2,0.2-0.3c0.1,0,0.3,0,0.4,0c0-0.1,0-0.1,0-0.2c0.1-0.1,0.3,0,0.4-0.2
				c0.2,0,0.3-0.1,0.4-0.2s0.3-0.1,0.4-0.3c0,0,0.1,0,0.1-0.1c0.1-0.1,0.3-0.2,0.4-0.4c0.1-0.2,0.1-0.4,0.3-0.5
				c0-0.1-0.1-0.1-0.1-0.1c0.2-0.1,0.2-0.5,0.5-0.6c-0.1-0.2,0.1-0.3,0.1-0.5c0.1-0.1,0.1-0.2,0.1-0.4c0.1-0.1,0.2-0.2,0.2-0.3
				c0-0.2,0.1-0.2,0.2-0.3c0.1-0.1,0.1-0.2,0.2-0.3c0.1-0.1,0.1-0.2,0.2-0.3c0.1-0.1,0.1-0.3,0.2-0.4c0.1-0.1,0.2-0.2,0.3-0.3
				c0.1-0.3,0.2-0.5,0.3-0.7c0.1-0.1,0.3-0.3,0.4-0.4c0.1-0.2,0.2-0.4,0.3-0.7c0.1-0.1,0.2-0.1,0.3-0.2c0-0.2,0.1-0.4,0.2-0.5
				c0.1-0.2,0.1-0.4,0.3-0.5c0-0.1,0-0.1,0-0.3c0.1,0,0.2-0.1,0.3-0.1c0,0-0.1,0-0.1-0.1s0.1-0.2,0.1-0.3c0,0,0-0.1,0-0.2
				c0.1-0.1,0.2-0.1,0.2-0.2c0.1-0.2,0.2-0.4,0.3-0.7c0.1,0,0.3-0.1,0.3-0.3c0-0.2,0.3-0.2,0.2-0.4c0.1-0.1,0.1-0.3,0.1-0.4
				c0.1-0.1,0.2,0,0.2-0.1l0.1-0.1c0-0.2,0.2-0.2,0.2-0.4c0-0.1,0.1-0.2,0.1-0.3c0-0.1,0.1-0.2,0.2-0.3c0.1-0.1,0.2-0.1,0.3-0.2
				c0.1,0,0.2,0,0.3,0c0,0.1,0.1,0.2,0.2,0.2c0.1,0,0.2,0,0.3,0c0,0.1,0.1,0.2,0.1,0.2h0.1c0,0.1,0,0.1,0.1,0.2s0.1,0.1,0.2,0.2
				c0,0.7,0,1.3,0,2l0.1,0.1c0,0.2,0,0.4,0,0.6l-0.1,0.1c0,0.2,0,0.3,0,0.5l-0.1,0.1l0.1,0.1l-0.1,0.1l0.1,0.1l-0.1,0.1
				c0,0.1,0,0.1,0,0.2c-0.2,0.3-0.3,0.6-0.5,0.9s-0.2,0.6-0.6,0.8c0,0,0,0-0.1,0c0,0,0,0.1-0.1,0.2s-0.3,0.3-0.4,0.4c0,0,0,0-0.1,0
				c0,0.1,0,0.2,0,0.3c-0.1,0.1-0.2,0-0.3,0.1s-0.1,0.1-0.2,0.2c-0.1,0.1-0.1,0.2-0.1,0.2c-0.1,0-0.1,0-0.2,0c-0.1,0.1,0,0.2,0,0.3
				c-0.1,0.1-0.3,0.1-0.4,0.2c0,0.1,0,0.1,0,0.2c-0.1,0.1-0.2,0.2-0.3,0.3c-0.1,0.1-0.2,0.1-0.3,0.2v0.1c-0.1,0-0.1,0-0.2,0.1
				c0,0.1,0,0.2,0,0.3c0,0-0.1,0-0.2,0.1c-0.1,0.1-0.2,0.2-0.2,0.3c-0.2,0-0.3,0-0.3,0.1l0.1,0.1c-0.1,0-0.2,0.1-0.2,0.1
				c-0.1,0-0.1,0.1-0.2,0.1c0,0.1,0,0.1,0,0.2c0,0-0.1,0-0.2,0c-0.2,0.1-0.2,0.4-0.3,0.6s-0.2,0.4-0.3,0.6s-0.2,0.4-0.3,0.6
				c0,0.1,0,0.2,0,0.3c0,0.1-0.1,0.2-0.1,0.2c-0.1,0.2-0.1,0.4-0.3,0.5s-0.2,0.3-0.3,0.4c0,0.1,0.1,0.2,0.2,0.3
				c0-0.1,0.1-0.2,0.1-0.2l0.1,0.1c0.1-0.1,0.2-0.1,0.3-0.2s0.2-0.1,0.4-0.1c0.1-0.1,0.2-0.2,0.3-0.2c0.2,0,0.2-0.2,0.3-0.2
				s0.2,0,0.3,0c0-0.1,0-0.1,0.1-0.2c0.1,0,0.2,0,0.4,0c0-0.1,0.1-0.2,0.1-0.2c0.2,0,0.2,0,0.3,0l0.1-0.1c0.1,0,0.2,0.1,0.2,0.1
				c0.1,0,0.1,0,0.2,0c0.1,0.1,0.3,0.1,0.4,0.2c0.1,0.1,0.2,0.1,0.3,0.2s0.2,0.2,0.3,0.3c-0.1,0.2,0.2,0.2,0.1,0.4
				c0.1,0.1,0.2,0.2,0.2,0.2l-0.1,0.1c0.1,0.2,0.3,0.4,0.2,0.6l0.1,0.1c0,0.1,0,0.2,0,0.2l0.1,0.1l-0.1,0.1c0,0.1,0,0.2,0,0.4
				c0,0,0,0.1,0.1,0.1c0,0.2,0,0.4,0,0.6c0,0-0.1,0.1-0.1,0.2c0,0.1,0.1,0.1,0.1,0.2c0,0.1,0,0.1,0,0.2c0.1,0.1,0.1,0.2,0.2,0.3
				c0.1,0,0.3,0.1,0.3-0.1c0.2,0,0.4,0,0.6,0l0.1-0.1c0.2,0,0.3,0,0.5,0l0.1-0.1c0.1,0,0.2,0,0.2,0l0.1-0.1c0.3,0,0.6-0.2,0.9-0.4
				c0,0,0.2,0,0.3,0l0.1-0.1c0.1,0,0.2,0,0.2,0l0.1-0.1c0.1,0,0.2,0,0.4,0c0.1-0.2,0.2-0.1,0.4-0.1c0.1,0,0.2-0.1,0.4-0.2
				c0.1,0,0.2,0,0.3,0l0.1-0.1c0.1,0,0.1,0,0.2,0l0.1-0.1c0.2,0,0.3,0,0.5,0c0.1-0.1,0.1-0.1,0.2-0.2c0.2,0,0.4-0.1,0.7-0.3
				c0.1,0,0.2,0,0.3,0l0.1-0.1c0.1,0,0.2,0,0.3,0c0.1-0.1,0.2-0.1,0.3-0.2c0.1-0.1,0.3,0,0.4-0.1c0.1-0.1,0.2,0,0.3-0.1
				s0.2-0.1,0.4-0.1c0.1-0.1,0.1-0.2,0.2-0.2c0.1,0,0.1,0,0.2,0l0.1-0.1c0.2,0,0.5,0,0.7,0c0.1-0.1,0.3-0.2,0.4-0.2
				c0.5-0.2,0.5-0.2,0.7-0.4l0.1-0.1c0.2,0.1,0.2-0.2,0.4-0.1c0.2,0,0.2-0.2,0.4-0.1c0.1,0,0.2-0.2,0.4-0.1c0.1-0.2,0.2-0.3,0.3-0.4
				c0.1,0,0.2,0,0.3,0c0.2-0.2,0.3-0.3,0.5-0.5c0.1,0,0.2,0,0.2,0l0.1-0.1c0.1-0.1,0.2-0.2,0.2-0.3c0-0.2,0.2-0.2,0.2-0.4
				c0-0.1,0.1-0.3,0.2-0.3c0.1-0.1,0-0.2,0.1-0.3c0.1-0.1,0.2-0.1,0.3-0.2c0.1,0,0.2,0,0.2,0c0.1,0.2,0.2,0.1,0.4,0.1
				c0.3,0.2,0.5,0.5,0.8,0.7c0,0.1,0,0.2,0,0.2l0.1,0.1c0,0.2,0,0.3,0,0.5l0.1,0.1c0,0.1-0.1,0.1-0.1,0.2s0,0.2,0,0.3
				c0,0,0,0.1-0.1,0.1c-0.1,0.1-0.2,0.1-0.2,0.3c-0.1,0.1-0.1,0.2-0.1,0.3l-0.1,0.1c0,0.2-0.2,0.3-0.2,0.5c-0.2,0.1-0.1,0.3-0.1,0.5
				l-0.1,0.1c0,0,0,0,0,0.1c0,0.3,0,0.5,0,0.8c0.1,0,0.2,0.1,0.3,0.1s0.2-0.1,0.3-0.1l0.1,0.1c0.2,0,0.5,0,0.7,0
				c0.1-0.1,0.3-0.2,0.4-0.2c0.2,0,0.4,0,0.7,0l0.1-0.1c0.1,0,0.2,0,0.3,0l0.1-0.1c0.1,0,0.2,0,0.3,0c0.1-0.1,0.3-0.3,0.4-0.4
				c0.1,0.1,0.1,0.1,0.1,0.1h0.1c0.1,0,0.3,0,0.3,0c0.3-0.1,0.5-0.3,0.8-0.4c0.2,0,0.3-0.1,0.5-0.2c0.1-0.1,0.3-0.1,0.3-0.2
				c0.1,0,0.2,0,0.3,0s0.2-0.1,0.2-0.1l0.2-0.1c0.1,0,0.2-0.1,0.3-0.1s0.2-0.1,0.2-0.1c0.1,0,0.2,0,0.2-0.1l0.1,0.1l0,0
				c0.2-0.2,0.4-0.2,0.6-0.4c0.1,0,0.2,0,0.3,0l0.1-0.1c0.1,0,0.1,0,0.2,0l0.1-0.1c0.2,0,0.3,0,0.5,0l0.1,0.1l0.1-0.1h0.1
				c0.2,0.2,0.4,0.3,0.7,0.3c0,0.1-0.1,0.1-0.1,0.2c0.1,0.1,0.2,0.1,0.2,0.2s0,0.2,0,0.3c-0.1,0.1-0.3,0.2-0.2,0.4
				c-0.1,0-0.1,0-0.2,0c0,0.1,0,0.1-0.1,0.2c-0.2,0.1-0.4,0.2-0.6,0.3c-0.1,0-0.1,0.1-0.2,0.2c-0.1,0-0.2,0-0.2,0
				c-0.1,0.2-0.3,0.3-0.4,0.5c-0.1,0-0.3,0-0.4,0c-0.1,0.2-0.3,0.3-0.6,0.4c0,0-0.1-0.1-0.2-0.1c-0.1,0.1-0.1,0.1-0.2,0.2
				c-0.4,0-0.6,0.3-1,0.4c-0.1,0.1-0.2,0.2-0.3,0.3c-0.1,0-0.2,0-0.4,0l-0.1,0.1c-0.1,0-0.2,0-0.3,0l-0.1,0.1c-0.1,0-0.2,0-0.3,0
				c-0.1,0.1-0.2,0.2-0.3,0.2s-0.2,0-0.2,0c-0.1,0.1-0.1,0.1-0.2,0.2c-0.2,0-0.3,0-0.5,0l-0.1,0.1c-0.2,0-0.4,0-0.6,0l-0.1,0.1
				c-0.2,0-0.3,0-0.4,0c-0.1,0.1-0.3,0.2-0.4,0.2c-0.4,0-0.8,0-1.2,0c-0.1,0-0.1-0.1-0.2-0.1c-0.1,0-0.1,0.1-0.2,0.1
				c-0.1-0.1-0.2-0.1-0.4-0.2c0,0-0.1,0-0.2,0c-0.1-0.1-0.2-0.2-0.3-0.3c-0.1,0-0.2,0-0.3,0c-0.2-0.1-0.2-0.2-0.3-0.4h-0.1
				c-0.1-0.1-0.3-0.2-0.4-0.4c-0.1-0.2-0.3-0.3-0.4-0.4c0-0.1,0-0.2,0-0.3s-0.1-0.1-0.1-0.2l0.1-0.1c-0.1-0.1-0.1-0.4-0.3-0.4
				c-0.1-0.2,0-0.3,0-0.4c0-0.1,0-0.2,0-0.3c-0.1-0.1-0.1,0-0.1,0s-0.1,0-0.2,0.1c0,0-0.1,0.1-0.2,0.2c-0.1,0-0.2,0-0.3,0
				c-0.2,0.2-0.6,0.2-0.8,0.5c-0.1,0-0.2,0-0.3,0c-0.3,0.2-0.6,0.3-0.8,0.4v0.1c-0.1,0.1-0.3,0-0.4,0.2c-0.2,0-0.3,0-0.5,0L142,130
				c-0.1,0-0.2,0-0.2,0c0,0.1,0,0.1-0.1,0.2c-0.3,0-0.5,0.2-0.8,0.3c-0.1,0.1-0.2,0-0.3,0.1c0,0.1-0.1,0.2-0.2,0.2
				c-0.2,0-0.3,0-0.4,0l-0.1,0.1c-0.1,0-0.2,0-0.4,0c0,0.1,0,0.1-0.1,0.2c-0.2,0-0.4,0-0.6,0c0,0.1-0.1,0.2-0.1,0.2
				c-0.2,0.1-0.3,0.1-0.4,0.2c0,0-0.1,0-0.2,0l-0.1,0.1c-0.1,0-0.3,0-0.4,0c-0.2,0.1-0.3,0.2-0.4,0.2c-0.1,0-0.2,0-0.3,0
				c0,0.1-0.1,0.2-0.1,0.3C136.8,131.2,136.8,131.2,136.8,131.2z M131.2,119.7c0,0.2,0,0.2,0,0.3c-0.1,0-0.1,0-0.2,0
				c-0.1,0.2-0.2,0.4-0.3,0.6c0.1,0,0.1,0,0.2,0c0-0.1,0-0.1,0.1-0.2c0.2-0.1,0.3-0.1,0.4-0.2c0-0.2,0-0.4,0-0.5
				c0.2,0,0.3-0.1,0.4-0.2c0.1-0.1,0.3-0.1,0.3-0.3c0-0.1,0-0.2,0.1-0.3c0.1-0.1,0-0.2,0.1-0.3c0.2-0.1,0.4-0.2,0.6-0.3
				c0-0.1,0-0.2,0-0.2l0.1-0.1c0-0.1,0-0.2,0-0.2l0.1-0.1l-0.1-0.1l0.1-0.1c0-0.1,0-0.3,0-0.4c-0.1-0.1-0.1-0.2-0.3-0.2
				c-0.1,0.1-0.2,0.1-0.2,0.2s-0.1,0.2-0.2,0.3c0,0.1,0,0.1,0,0.2c-0.2,0.1-0.3,0.3-0.3,0.5c0,0.1,0,0.2-0.1,0.3
				c-0.1,0.1-0.1,0.2-0.2,0.3c-0.1,0.1-0.2,0.2-0.2,0.3c0,0.1,0,0.2,0,0.3c-0.1,0.1-0.2,0.1-0.2,0.2
				C131.3,119.5,131.3,119.6,131.2,119.7z"/>
			<path class="st0" d="M176.8,125.9c-0.1,0-0.2,0-0.3,0l-0.1,0.1c-0.1,0-0.2,0-0.2,0c-0.1,0-0.1-0.1-0.1-0.1c-0.1,0-0.1,0-0.2,0
				c0,0-0.1,0.1-0.2,0.2c0,0,0,0.1,0,0.2c-0.1,0-0.1,0-0.2,0.1c-0.1,0.1-0.1,0.1-0.2,0.2c-0.1,0-0.2,0-0.2,0
				c-0.1,0.1-0.2,0.2-0.3,0.3c-0.2,0-0.2,0.2-0.4,0.2c-0.1,0-0.3,0.1-0.4,0.2c-0.1,0.1-0.2,0-0.3,0s-0.1,0.1-0.2,0.1
				c-0.2-0.1-0.2,0.1-0.4,0.1c-0.1,0-0.2,0.1-0.3,0.2c-0.3-0.1-0.6,0.2-0.9,0.3c0,0.1,0,0.1,0,0.2c-0.1,0.1-0.2,0-0.3,0
				c-0.3,0.1-0.5,0.4-0.9,0.4c-0.1,0.1-0.2,0.2-0.3,0.4c-0.1,0-0.2,0-0.3,0c0,0.1,0,0.1-0.1,0.2c-0.1,0-0.2,0-0.3,0s-0.1,0-0.1,0
				c-0.1,0.2-0.4,0.2-0.6,0.5c-0.1,0-0.1-0.1-0.1-0.1c-0.2,0.1-0.4,0.2-0.6,0.4c-0.1,0-0.2,0-0.3,0c-0.2,0.1-0.2,0.3-0.5,0.4
				c-0.1,0-0.1,0.1-0.2,0.1c-0.1,0-0.2,0-0.3,0c-0.1,0.1-0.2,0.1-0.2,0.3c-0.1,0-0.1,0.1-0.2,0.1c0,0.3-0.2,0.5-0.3,0.8
				c-0.2,0.1-0.1,0.3-0.3,0.4c0,0.2-0.2,0.2-0.2,0.4c0,0.1-0.1,0.3-0.2,0.4c0,0,0,0.1,0,0.2c-0.2,0.2-0.4,0.3-0.5,0.6
				c-0.1,0.2-0.3,0.4-0.5,0.6h-0.1c0,0.1-0.1,0.1-0.2,0.2c0,0.1,0,0.2,0,0.4c-0.1,0.1-0.2,0.1-0.2,0.2c0,0.1,0,0.1,0,0.2
				c-0.1,0-0.1,0-0.2,0.1c0,0.1-0.1,0.2-0.1,0.3s-0.1,0.1-0.2,0.2c-0.1,0-0.2,0.2-0.3,0.2c-0.2,0-0.1,0.1-0.2,0.2l0,0l-0.1,0.1
				c-0.2,0-0.3,0.3-0.5,0.3l-0.1,0.1c-0.1,0-0.2,0-0.2,0c-0.1,0.1-0.1,0.1-0.2,0.2c-0.1,0-0.2,0-0.3,0c-0.1,0.2-0.4,0-0.5,0.3
				c-0.2,0-0.3,0-0.5,0l-0.1,0.1l-0.1-0.1c-0.1,0-0.1,0-0.2,0c0,0-0.1,0-0.2-0.1c-0.1,0-0.3,0-0.4,0c-0.2-0.1-0.3-0.1-0.4-0.2
				c-0.1-0.1,0-0.3-0.2-0.2c0-0.1,0-0.2,0-0.3c-0.1-0.1-0.2-0.2-0.3-0.3s-0.1-0.2-0.2-0.3c0,0,0.1-0.1,0.1-0.2
				c-0.1-0.1-0.1-0.1-0.1-0.2c0-0.1,0.1-0.2,0.1-0.3c0,0-0.1-0.1-0.1-0.2c0-0.3,0-0.6,0-0.9c0.1,0,0.2-0.1,0.2-0.2
				c0-0.2,0-0.3,0.1-0.4v-0.1c0.2-0.1,0.2-0.3,0.3-0.5c0.1-0.1,0.3,0,0.3-0.2c0.1-0.1,0.2-0.2,0.3-0.2l0.1-0.1
				c0.1-0.1,0-0.2,0.1-0.2s0.1-0.1,0.2-0.2c0.1,0,0.2-0.1,0.2-0.1c0.1-0.1,0.1-0.1,0.2-0.2c0.1-0.1,0.2-0.1,0.2-0.1
				c0.1-0.1,0.3-0.1,0.3-0.2c0.2-0.2,0.4-0.2,0.5-0.4c0.1,0,0.3,0,0.4,0c0-0.1,0-0.1,0-0.2c0.1,0,0.2-0.1,0.3-0.2c0.1,0,0.3,0,0.5,0
				c0.1-0.1,0.2-0.2,0.3-0.4c0.2,0.1,0.4-0.2,0.6-0.1c0.1-0.1,0.2-0.3,0.3-0.4c0.1,0,0.1,0,0.2,0c0.2-0.1,0.2-0.4,0.4-0.5
				c0-0.1,0-0.2,0-0.3c0.1-0.1,0.1-0.3,0.2-0.4c0-0.1,0-0.3,0-0.5c0.1-0.1,0.2-0.1,0.2-0.1c0-0.2,0-0.3,0-0.4
				c-0.1,0-0.2-0.1-0.3-0.2c-0.1,0-0.2,0-0.3,0c-0.1,0.1-0.2,0.1-0.4,0.2c0,0-0.1,0-0.2,0l-0.1-0.1c-0.1,0-0.1,0-0.2,0
				c0,0-0.1-0.1-0.2-0.1c-0.1,0-0.2,0-0.4,0c0-0.1,0-0.1-0.1-0.2s-0.2-0.2-0.3-0.3h-0.1c-0.1-0.2-0.3-0.4-0.4-0.5c0-0.4,0-0.9,0-1.3
				c0.1-0.1,0.1-0.3,0.2-0.4c0-0.2,0.2-0.4,0.1-0.7c0.1-0.1,0.2-0.2,0.2-0.3c0-0.2,0.2-0.2,0.2-0.3c0-0.1,0-0.2,0-0.2
				c0.2-0.2,0.4-0.4,0.5-0.6c0-0.1,0.1-0.2,0.2-0.2c0.2-0.1,0.4-0.2,0.5-0.4c0.1,0,0.2,0,0.2,0c0.1-0.1,0.2-0.2,0.3-0.3h0.1
				c0.1-0.1,0.2-0.1,0.3-0.2l0,0c0.1,0,0.2,0,0.4,0l0.1-0.1c0.2,0,0.4,0,0.6,0l0.1,0.1c0.2,0,0.5,0.1,0.7,0.3
				c0.1,0.1,0.3,0.1,0.4,0.3c0.1,0.1,0.2,0.2,0.3,0.3v0.1c0.1,0.1,0.2,0.1,0.2,0.2c0.1,0.1,0.1,0.2,0.1,0.2c0.1,0.1,0.1,0.2,0.1,0.2
				c0,0.1,0,0.2,0.1,0.2c0,0.2,0,0.3,0,0.5c-0.1,0.2-0.3,0.2-0.4,0.3c-0.1,0-0.2,0-0.3,0c-0.1,0.1-0.1,0.1-0.2,0.1
				c-0.2,0-0.3-0.2-0.3-0.3c-0.2,0-0.4-0.1-0.6-0.3c-0.2,0-0.4,0-0.6,0c-0.1,0.1-0.3,0.3-0.4,0.5c0,0,0,0,0,0.1
				c-0.2,0.1-0.3,0.2-0.4,0.3c-0.1,0-0.2,0-0.3,0c0,0.1,0,0.1,0,0.2c0.1,0.1,0.3,0,0.4,0c0.2-0.1,0.4-0.2,0.7-0.3c0.2,0,0.4,0,0.7,0
				c0,0.1,0.1,0.2,0.2,0.3l0,0c0,0.1,0.1,0.1,0.1,0.2c0.1,0,0.2,0,0.3,0c0,0.1,0.1,0.2,0.1,0.2h0.1c0.1,0.1,0,0.2,0.1,0.3
				c0.1,0,0.2,0.1,0.2,0.2c0,0.2,0,0.3,0,0.4l0.1,0.1c0,0.1-0.1,0.2-0.1,0.3c0,0.1,0,0.2,0,0.3c0,0-0.1,0.1-0.1,0.2s0,0.3,0,0.5
				c-0.1,0.1-0.2,0.2-0.2,0.2c0,0.2,0,0.4,0,0.6c0,0,0,0,0.1,0.1c0.1,0,0.2,0,0.3,0h0.1c0.1-0.2,0.3-0.1,0.4-0.1
				c0.1-0.1,0.2-0.1,0.4-0.2c0.1,0,0.2,0,0.3,0l0.1-0.1c0.1-0.1,0.3,0,0.4-0.1c0.1-0.2,0.3-0.2,0.5-0.3c0.1,0,0.2,0,0.4,0
				c0.1-0.1,0.1-0.2,0.2-0.2c0.1,0,0.2,0,0.3,0c0.1-0.1,0.1-0.2,0.2-0.3c0.1-0.1,0.3-0.2,0.4-0.2c0.4-0.1,0.4-0.1,0.6-0.4
				c0.1,0,0.2,0,0.4,0l0.1-0.1c0.1,0,0.2,0,0.2,0c0.1-0.2,0.3-0.2,0.5-0.4c0.1,0,0.2,0,0.4,0c0-0.1,0-0.1,0-0.2
				c0.1-0.1,0.2,0,0.3-0.1s0.2-0.2,0.2-0.2c0.1,0,0.2,0,0.4,0c0.1-0.1,0.1-0.1,0.2-0.1c0.1,0,0.1-0.1,0.2-0.2c0.1,0,0.2,0,0.3,0
				c0.1-0.1,0.3-0.2,0.4-0.3c0,0,0.1,0,0.2,0l0.1-0.1l0.1,0.1c0.1,0,0.1-0.1,0.2-0.1c0.1,0,0.2,0,0.3-0.1c0,0,0.1,0,0.2-0.1
				c0.1-0.1,0.1-0.1,0.2-0.1l0.1,0.1c0-0.1,0.1-0.2,0.1-0.2c0.1,0.1,0.1,0.1,0.2,0.2c0.1,0,0.2-0.1,0.3-0.1c0-0.1,0-0.1,0.1-0.2
				c0.1,0,0.2,0,0.2,0c0.2-0.3,0.2-0.3,0.6-0.6c0.1,0,0.2,0,0.3,0c0.1-0.1,0.3-0.2,0.4-0.2l0.1,0.1c0.1-0.1,0.1-0.2,0.3-0.2
				s0.2-0.2,0.3-0.3c0.1,0,0.2,0,0.2,0c0.3-0.2,0.4-0.5,0.6-0.8c0.2-0.2,0.4-0.4,0.7-0.7c0.1,0,0.3,0,0.5,0l0.1,0.1
				c0.1,0,0.1,0,0.2,0c0.1,0.2,0.2,0.3,0.2,0.5c0.1,0,0.2,0,0.2,0c0.1,0.1,0.1,0.2,0.2,0.3c0,0,0,0.1,0,0.2l0.1,0.1
				c0,0.1,0,0.2,0,0.2l-0.1,0.1c0,0.1,0,0.2,0,0.4c-0.2,0.2-0.3,0.3-0.5,0.5c0.1,0.2-0.2,0.2-0.1,0.4c-0.1,0.1-0.2,0.2-0.3,0.2
				c0,0.1,0,0.1,0,0.3c-0.1,0-0.2,0.1-0.2,0.1c0.1,0.3-0.1,0.4-0.2,0.6c-0.1,0.1-0.1,0.2-0.1,0.3l-0.1,0.1c0,0.1,0,0.2,0,0.3
				l-0.1,0.1c0,0.4,0,0.8,0,1.2c0.1,0.1,0.2,0,0.3,0l0.1,0.1c0.1,0,0.2-0.1,0.2-0.1c0.1,0,0.2,0.1,0.3,0.1c0,0,0.1-0.1,0.2-0.1
				c0.2,0,0.5,0,0.8,0c0-0.1,0-0.1,0-0.2c0.1,0,0.2,0,0.3-0.1c0-0.1,0.2,0,0.3-0.2c0,0,0,0,0-0.1c-0.1-0.2-0.3-0.3-0.5-0.5
				c0-0.1-0.1-0.2-0.1-0.3c0-0.2-0.2-0.2-0.1-0.4c0-0.1,0-0.3,0-0.4c-0.1-0.1-0.1-0.1-0.1-0.1c0-0.1,0-0.2,0-0.4l0.1-0.1
				c-0.1-0.2,0.1-0.3,0.1-0.5c0-0.1,0.1-0.1,0.2-0.2c0-0.1,0-0.2,0.1-0.2c0.1-0.1,0.2-0.3,0.3-0.5c0-0.1,0-0.1,0.1-0.1
				s0.1-0.1,0.2-0.1c0.1-0.1,0.1-0.2,0.2-0.1c0-0.1,0.1-0.2,0.1-0.2c0.1-0.1,0.2-0.3,0.4-0.3v-0.1c0-0.1,0.1-0.2,0.2-0.2
				c0.2,0,0.3-0.2,0.4-0.3c0.1,0,0.2,0,0.2,0c0.1-0.1,0.1-0.1,0.2-0.2c0.1,0,0.2-0.1,0.3,0c0.2,0.1,0.4,0.1,0.5,0.3
				c0.1,0.1,0.3,0.2,0.5,0.3c0.1,0.1,0.2,0.1,0.2,0.1v0.1c0.1,0.1,0.2,0.2,0.3,0.3c0.1,0.1,0.1,0.2,0.2,0.3c0,0.1,0,0.2,0,0.4
				c0.1,0,0.2,0,0.4,0.1c-0.1,0.1-0.2,0.1-0.3,0.2c0,0.1,0.1,0.2,0.1,0.2l-0.1,0.1l0.1,0.1c-0.1,0.1-0.1,0.2-0.1,0.4l-0.1,0.1
				c0.1,0.1,0.1,0.1,0.1,0.2s0.1,0.1,0.2,0.2c0.1,0,0.2,0.1,0.2,0.1c0.2,0,0.3,0,0.5,0l0.1-0.1l0.1,0.1c0.4,0,0.8,0,1.2,0l0.1-0.1
				l0.1,0.1c0.4,0,0.8,0,1.2,0l0.1-0.1l0.1,0.1c0.8,0,1.5,0,2.3,0c0-0.1,0.1-0.2,0.1-0.3c0,0.1,0.1,0.2,0.1,0.2c0.2,0,0.5,0,0.8,0
				l0.1-0.1c0.1,0,0.2,0,0.4,0l0.1,0.1c0.1,0,0.1-0.1,0.2-0.1c0.1,0,0.1,0.1,0.2,0.1l0.1-0.1c0.1,0,0.1,0.1,0.3,0.1
				c0.1,0,0.2,0,0.3,0c0-0.1,0.1-0.1,0.1-0.2l0.1,0.1c0.3,0,0.5,0,0.8,0l0.1-0.1c0.3,0,0.7,0,1.1,0l0.1-0.1c0.1,0,0.2,0,0.2,0
				l0.1-0.1l0.1,0.1l0.1-0.1c0.2,0,0.5,0,0.7,0l0.1-0.1c0.1,0,0.2,0,0.3,0c0.1-0.1,0.1-0.1,0.2-0.1c0.1,0.1,0.2,0.1,0.3,0.1
				s0.1-0.1,0.2-0.1c0.1,0,0.2,0,0.2,0l0.1-0.1c0.3,0,0.5,0,0.8,0c0,0,0.1-0.1,0.2-0.1c0.3,0,0.7,0,1.1,0l0.1-0.1c0.2,0,0.4,0,0.6,0
				l0.1-0.1c0.1,0,0.2,0,0.3,0l0.1-0.1c0.1-0.1,0.3,0,0.4,0c0.1-0.1,0.1-0.1,0.2-0.2c0.1,0,0.3,0,0.4,0c0.1-0.2,0.4,0,0.4-0.2
				c0.2,0,0.4,0,0.6,0c0,0,0.1,0.1,0.1,0.2c0.1,0.1,0.1,0.3,0.2,0.4c0.1,0.1,0.2,0.2,0.3,0.3c0,0.1,0,0.1,0,0.2c0.1,0,0.1,0,0.2,0.1
				c0,0.2,0,0.3,0,0.5l0.1,0.1c-0.2,0.1-0.1,0.3-0.1,0.4c-0.3,0-0.5,0.2-0.8,0.3c-0.1,0.1-0.3,0.3-0.4,0.4c-0.2,0-0.3,0-0.5,0
				l-0.1,0.1c-0.2,0-0.4,0-0.6,0c-0.2,0.1-0.3,0.2-0.4,0.3c-0.1,0-0.2,0-0.3,0l-0.1-0.1c0,0,0,0.1-0.1,0.1c-0.1-0.1-0.2-0.1-0.4-0.2
				c-0.2,0.1-0.4,0.2-0.6,0.3l-0.1-0.1c-0.1,0-0.1,0-0.2,0c-0.1,0.1-0.3,0.1-0.4,0.1l-0.1,0.1c-0.3,0-0.6,0-0.8,0l-0.1,0.1
				c-0.3,0-0.6,0-0.9,0l-0.1,0.1c-0.1,0-0.3,0-0.5,0l-0.1,0.1c-0.2,0-0.4,0-0.6,0l-0.1,0.1c-0.3,0-0.6,0-0.8,0l-0.1,0.1
				c-0.2,0-0.5,0-0.7,0c-0.1,0-0.1,0.1-0.2,0.1c-0.2,0-0.4,0-0.6,0l-0.1,0.1c-0.1,0-0.3,0-0.4-0.1c-0.4,0-0.8,0-1.2,0l-0.1,0.1
				c-0.1,0-0.2,0-0.4,0l-0.1-0.1c-0.1,0-0.2,0.1-0.3,0.1s-0.1-0.1-0.2-0.1l-0.1,0.1c-0.7,0-1.4,0-2.1,0l-0.1-0.1c-0.1,0-0.3,0-0.5,0
				l-0.1,0.1c-0.1,0-0.2,0-0.4,0l-0.1-0.1l-0.1,0.1c-0.2,0-0.4,0-0.6,0l-0.1-0.1l-0.1,0.1c-0.3,0-0.5,0-0.8,0l-0.1-0.1
				c-0.1,0-0.2,0-0.4,0c-0.1,0-0.1,0.1-0.2,0.1c-0.1-0.1-0.1-0.1-0.2-0.1c-0.4,0-0.7,0-1.1,0c-0.1,0-0.1-0.1-0.2-0.1
				c-0.1,0-0.1,0.1-0.2,0.1c-0.1,0-0.2,0-0.3,0c-0.2,0.2-0.4,0.4-0.6,0.6c-0.1,0-0.2,0-0.3,0c-0.1,0.1-0.2,0.1-0.2,0.2
				c0,0.1-0.1,0.2-0.2,0.2c-0.1,0-0.2,0-0.2,0c-0.1,0.1-0.1,0.2-0.4,0.1c0.1,0.2,0.2,0.2,0.2,0.3s-0.1,0.1-0.2,0.2
				c-0.2,0-0.4,0.1-0.5,0.2c-0.2,0.1-0.4,0.1-0.4,0.3c-0.1,0-0.3,0-0.4,0c-0.1,0-0.1,0.1-0.1,0.1c-0.5,0-0.9,0-1.4,0l-0.1,0.1
				c-0.1,0-0.3,0-0.4,0l-0.1-0.1c-0.1,0-0.2,0-0.4,0c-0.1,0-0.1,0.1-0.1,0.1c-0.2,0-0.2-0.2-0.4-0.2c-0.1,0-0.1-0.1-0.2-0.1
				c-0.3,0-0.4-0.2-0.7-0.2h-0.1c0-0.1-0.1-0.2-0.1-0.2h-0.1c-0.1-0.1-0.1-0.2-0.2-0.3c0-0.1,0-0.2-0.1-0.3c0-0.1,0-0.2,0-0.4
				c-0.1-0.1-0.2-0.2-0.2-0.2c-0.1-0.1,0.1-0.2,0.1-0.3c0,0-0.1-0.1-0.1-0.2s0-0.3,0-0.5l0.1-0.1c0-0.4,0-0.8,0-1.2l0.1-0.1
				l-0.1-0.1l0.1-0.1c-0.1,0-0.1,0-0.2,0l-0.1,0.1c-0.1,0-0.2,0-0.3,0c-0.1,0.1-0.3,0.1-0.4,0.2c-0.1,0-0.4,0-0.6,0
				C176.8,125.8,176.8,125.8,176.8,125.9c-0.1,0-0.2,0.1-0.2,0.1c-0.1,0.1-0.2,0-0.3,0.1s-0.2,0.1-0.2,0.1
				C176.8,125.8,176.8,125.8,176.8,125.9z M162.8,132.5c0,0.1-0.1,0.2-0.1,0.3c-0.3,0.1-0.5,0.4-0.8,0.3c-0.1,0.2-0.1,0.5-0.4,0.6
				c-0.4,0.1-0.6,0.4-0.7,0.8c-0.1,0-0.2,0-0.3,0.1c-0.1,0.3,0.1,0.4,0.3,0.5c0.1-0.1,0.2-0.2,0.3-0.4c0.1,0,0.2,0,0.3-0.1
				c0-0.1,0.1-0.2,0.1-0.3c0.1,0,0.1,0,0.2,0c0.3-0.5,0.9-0.6,1.2-1.1c0-0.1,0-0.1,0-0.2c0.1-0.1,0.2-0.1,0.4-0.2
				c-0.1-0.1-0.2-0.2-0.3-0.3C163,132.5,162.9,132.5,162.8,132.5z"/>
			<path class="st0" d="M73.7,114.6c0.1,0.1,0.2,0.1,0.3,0.1c0.1,0.2,0.2,0.5,0.4,0.6c0,0.1,0,0.1,0,0.2c-0.1,0.1-0.2,0.2-0.3,0.3
				c-0.1,0-0.2-0.1-0.3-0.1c-0.1,0-0.2,0-0.3,0c-0.2,0.2-0.5,0.2-0.7,0.4c-0.2,0.2-0.5,0.2-0.7,0.4c-0.2,0.2-0.5,0.2-0.6,0.5
				c-0.1,0-0.2,0-0.2,0c-0.1,0.1-0.2,0.2-0.3,0.2c-0.1,0.1-0.2,0.1-0.4,0.2l-0.4,0.4c-0.2,0-0.3,0.3-0.5,0.4h-0.1
				c0,0.1,0,0.1-0.1,0.2s-0.3,0-0.4,0.1c-0.2,0.2-0.4,0.4-0.6,0.6h-0.1c0,0,0,0.1-0.1,0.1v0.1c-0.2,0-0.3,0.2-0.5,0.2
				c0,0.1,0,0.1,0,0.2c-0.2,0-0.3,0.2-0.4,0.3c-0.1,0-0.2,0-0.2,0c-0.1,0.2-0.4,0.2-0.6,0.5h-0.3c-0.1,0.1-0.2,0.2-0.3,0.2
				c-0.1,0-0.2,0.2-0.3,0.3h-0.5l-0.5,0.5c-0.1,0-0.2,0-0.2,0c-0.1,0.2-0.4,0.3-0.6,0.4c-0.2,0.2-0.4,0.2-0.7,0.3h-0.4l-0.2,0.4
				c-0.1,0-0.3,0-0.4,0c-0.2,0.2-0.3,0.3-0.5,0.5h-0.3c-0.3,0.2-0.6,0.3-0.8,0.4v0.1c-0.1,0-0.2,0-0.3,0.1c0,0.1,0,0.1-0.1,0.2
				c-0.1,0-0.1-0.1-0.2-0.1c-0.1,0.3-0.3,0.5-0.3,0.8l0.1,0.1c-0.1,0-0.2,0.1-0.2,0.1c0.1,0.1,0.3,0.1,0.4,0.2
				c0-0.1,0.1-0.2,0.1-0.3c0,0.1,0.1,0.2,0.1,0.3h0.5c0.1,0.1,0.2,0.2,0.3,0.1c0-0.1,0.1-0.1,0.1-0.2c0,0,0.1,0,0.1,0.1
				c0,0,0,0.1,0,0.2c0.1-0.1,0.1-0.1,0.2-0.1c0.1,0.1,0.1,0.1,0.2,0.1c0.7,0,1.4,0,2.1,0c0,0,0,0,0.1,0l0.1,0.1c0.2,0,0.5,0,0.7,0
				l0.1,0.1c0.1,0,0.2,0,0.4,0l0.1-0.1l0.1,0.1c0.1,0,0.1,0,0.2,0l0.1,0.1c0.1,0,0.2,0,0.2,0l0.1,0.1c0.2,0,0.4,0,0.6,0l0.1-0.1
				l0.1,0.1c0.5,0,0.9,0,1.4,0l0.1,0.1c0.2,0,0.3,0,0.5,0l0.1-0.1c0.1,0.1,0.3,0.1,0.4,0.2h0.2c0.1,0,0.1,0.1,0.1,0.1
				c0.2,0,0.3,0,0.5,0l0.1,0.1c0.1,0,0.2,0,0.4,0l0.1,0.1c0.1-0.1,0.2-0.2,0.4,0c0.1,0,0.2,0.1,0.2,0.1c0.3,0,0.7,0,1,0
				c-0.1,0.1-0.1,0.1-0.2,0.2c0.1,0.1,0.2,0,0.3,0.1c0,0,0.2,0.1,0.2,0.2s0.1,0.2,0.2,0.3c0.1,0,0.2,0,0.2,0
				c0.1,0.2,0.2,0.5,0.4,0.6c0,0.3,0,0.6,0,0.9c-0.1,0-0.1,0-0.2,0.1s-0.1,0.1-0.2,0.2c-0.1,0-0.2-0.1-0.2-0.1c-0.1,0-0.2,0-0.2,0
				l-0.1,0.1c-0.3,0-0.7,0-1,0c0,0-0.1-0.1-0.2-0.1s-0.2,0-0.3,0c-0.1-0.1-0.3-0.1-0.4-0.2c-0.1-0.1-0.3-0.1-0.3-0.2
				c-0.2,0-0.4,0-0.6,0l-0.1-0.1c-0.1-0.1-0.3,0-0.4,0l-0.1,0.1c-0.1,0-0.2,0-0.4,0c-0.1-0.1-0.2-0.1-0.4-0.2c-0.2,0-0.3,0-0.5,0
				l-0.1-0.1c-0.3,0-0.7,0-1.1,0l-0.1-0.1c-0.5,0-0.9,0-1.4,0c0,0-0.1-0.1-0.2-0.1s-0.1,0.1-0.2,0.1l-0.1-0.1c-0.2,0-0.5,0-0.7,0
				c-0.1-0.1-0.1-0.1-0.2-0.1c-0.1,0-0.2,0.1-0.3,0.2c-0.1,0-0.1-0.1-0.2-0.1c-0.1,0-0.1,0-0.2,0l-0.1-0.1l-0.1,0.1
				c-0.1,0-0.3,0.1-0.4-0.1h-1.7c0,0-0.1,0.1-0.2,0.1c-0.1,0-0.1-0.1-0.2-0.1c-0.1,0-0.1,0-0.2,0l-0.1-0.1c-0.2,0-0.5,0-0.7,0
				l-0.1-0.1c-0.1-0.1-0.3,0-0.4,0c-0.1,0.1-0.2,0.2-0.3,0.3c0,0.1,0,0.1,0,0.2c-0.1,0.1-0.1,0.2-0.1,0.4c-0.1,0.1-0.2,0.1-0.2,0.2
				c-0.1,0.1-0.1,0.2-0.1,0.3c0,0,0,0.2,0,0.3l-0.1,0.1c0,0.1,0,0.2,0,0.2l-0.1,0.1c0,0.1,0,0.2,0,0.4c-0.1,0.1-0.1,0.2-0.1,0.3
				s-0.1,0.2-0.1,0.4c0,0.1-0.1,0.2-0.1,0.3c-0.1,0.1-0.1,0.2-0.1,0.3l-0.1,0.1c0,0.1,0.1,0.2,0.2,0.3c0,0,0.1,0,0.2,0.1l-0.1,0.1
				l0.1,0.1c0,0.1-0.2,0.2-0.2,0.4c0,0.1-0.2,0.2-0.2,0.3s-0.1,0.3-0.2,0.4l0.1,0.1c-0.2,0.1-0.2,0.3-0.4,0.5v0.3l-0.6,0.6h-0.8
				c-0.1-0.1,0-0.3-0.1-0.4c0-0.1,0-0.3,0-0.4l-0.1-0.1c0-0.2,0-0.5,0-0.7l-0.1-0.1c0-0.1,0-0.2,0-0.4l0.1-0.1c0-0.1,0-0.2,0-0.3
				l0.1-0.1v-0.1c0.1-0.1,0.1-0.1,0.2-0.2c0-0.2,0-0.4,0-0.6c0-0.1,0.1-0.1,0.1-0.1c0-0.1,0-0.3,0-0.4c0.1-0.1,0.1-0.2,0.1-0.3
				c0.3-0.2,0.3-0.5,0.4-0.7c0-0.3,0.2-0.4,0.1-0.7c0-0.1,0.1-0.1,0.1-0.2c0-0.1,0-0.1,0-0.2l0.1-0.1c0-0.1,0-0.2,0-0.4l0.1-0.1
				l-0.1-0.1c0.1-0.1,0.1-0.2,0.2-0.4c0,0-0.1-0.1-0.1-0.2c-0.1,0-0.2,0-0.3,0l-0.1,0.1c-0.1-0.1-0.3-0.1-0.4-0.2c0,0-0.1,0-0.2,0
				l-0.1,0.1c-0.1-0.1-0.3-0.1-0.4-0.2c-0.1,0-0.2,0-0.3,0s-0.2,0.1-0.2,0.1c-0.1-0.1-0.1-0.1-0.2-0.1c-0.1,0-0.3,0-0.5,0l-0.1,0.1
				c-0.1,0-0.2,0-0.4,0l-0.2,0.2c-0.1,0.1-0.2,0-0.4,0c-0.1,0-0.2,0-0.3,0c0,0.1-0.1,0.1-0.1,0.2c-0.2,0-0.3,0-0.5,0
				c-0.1,0.2-0.3,0.3-0.5,0.4c-0.4-0.2-0.4-0.2-0.5-0.4c-0.1,0-0.1,0-0.2,0c-0.1-0.1-0.1-0.2-0.2-0.4c0,0,0.1-0.1,0.1-0.2
				c0-0.2,0-0.4,0-0.6l-0.1-0.1c0.1-0.1,0.1-0.3,0.1-0.4c0.2-0.1,0.3,0,0.5,0c0,0,0.1,0,0.1-0.1c0.1-0.1,0.2-0.3,0.3-0.3
				c0.2,0,0.2-0.2,0.4-0.3v-0.6c0.1-0.1,0.1-0.2,0.2-0.3c0.2,0,0.3,0,0.5,0l0.1,0.1c0.2,0,0.3,0,0.5,0l0.1,0.1c0.1,0,0.2,0,0.2,0
				l0.1-0.1c0.1,0,0.1,0,0.2,0c0.2-0.1,0.4-0.2,0.5-0.4h0.3c0.2-0.1,0.4-0.2,0.5-0.4c0.2,0,0.4,0,0.6,0c0.1-0.1,0.2-0.2,0.4-0.3
				c0.1,0,0.2-0.2,0.3-0.3h0.6c0.1-0.1,0.2-0.1,0.3-0.2s0.2-0.1,0.3-0.1c-0.1-0.1-0.1-0.1-0.1-0.1l0,0c0.1,0,0.2,0,0.4,0l0.4-0.2
				c0.1-0.1,0-0.3,0.1-0.4s0.1-0.2,0.2-0.3v-0.3c0.1-0.1,0.1-0.2,0.2-0.3c0.1-0.1,0-0.2,0.1-0.3c0-0.1,0.1-0.1,0.1-0.3
				c0-0.1,0.1-0.2,0.1-0.3c0-0.1,0-0.2,0-0.4l0.1-0.1c0-0.1,0-0.2,0-0.3l0.1-0.1c0-0.1,0-0.3,0-0.5l0.1-0.1c0-0.2,0-0.3,0-0.4
				l0.5-0.9c0-0.1,0-0.2,0-0.3l0.1-0.1c0-0.1,0-0.3,0-0.5l0.1-0.1c0-0.1,0-0.2,0-0.4l0.1-0.1c0-0.2,0-0.3,0-0.5l0.1-0.1
				c0.1-0.1-0.1-0.3,0.1-0.4c0.1-0.1,0-0.3,0.2-0.4c0-0.1,0-0.2,0-0.4l0.1-0.1c0-0.1,0-0.3,0-0.5c0.1-0.1,0.1-0.3,0.2-0.4v-0.7
				c0.1-0.1,0.1-0.2,0.1-0.4c0.1-0.1,0.2,0,0.3-0.1c0.1,0.1,0.2,0.2,0.3,0.2s0.2,0,0.2,0c0,0.1,0,0.1,0.1,0.2
				c0.3,0.2,0.4,0.5,0.6,0.8c0,0.1,0,0.3,0,0.4l0.1,0.1c0,0.2,0,0.4,0,0.6c0,0,0,0.1-0.1,0.1v0.1c0,0.1,0,0.3,0,0.4l-0.1,0.1
				c0,0.1,0,0.2,0,0.4l-0.1,0.1c0,0.1,0,0.2,0,0.3l-0.2,0.5c0,0.1,0,0.2,0,0.3l-0.1,0.1c0,0.1,0,0.2,0,0.2l-0.1,0.1
				c0,0.1,0,0.2,0,0.2l-0.1,0.1c0,0.1,0,0.2,0,0.3l-0.1,0.1c0,0.1,0,0.2,0,0.3c-0.1,0.1-0.1,0.3-0.2,0.4v0.6l-0.2,0.2
				c0,0.2,0,0.4,0,0.5l-0.1,0.1l0.1,0.1l-0.1,0.1c0,0.1,0,0.3,0,0.5l-0.1,0.1c0,0.1,0,0.2,0,0.3h0.1c0.1,0,0.2-0.1,0.3-0.1
				c0.1-0.1,0.2-0.1,0.3-0.1c0.2-0.1,0.4-0.1,0.5-0.4c0.1,0,0.2,0,0.3,0l0.1-0.1c0.2,0,0.3,0,0.5,0c0.1-0.1,0.1-0.2,0.2-0.2
				c0.1,0,0.2,0,0.2-0.1c0.1,0,0.2,0,0.4,0c0.1-0.1,0.2-0.2,0.2-0.2c0.1,0,0.2,0,0.3,0c0,0,0.1,0,0.1-0.1c0.1-0.1,0.3-0.1,0.4-0.2
				s0.2-0.2,0.3-0.2c0,0,0,0,0.1,0c0.1-0.1,0.2-0.3,0.3-0.3c0.2-0.1,0.3-0.2,0.4-0.3h0.3c0.1-0.1,0.3-0.2,0.4-0.4c0,0,0,0,0.1,0
				s0.2-0.1,0.3-0.2c0.1-0.1,0.3-0.3,0.5-0.5c0.2,0,0.3-0.2,0.5-0.2c0,0,0,0,0.1,0c0.2-0.3,0.6-0.3,0.9-0.6c0.1,0,0.2,0,0.2-0.1
				c0.1-0.2,0.4-0.2,0.5-0.4c0.1,0,0.2,0,0.3,0l0.1-0.1c0.1,0,0.2,0,0.2,0c0.1-0.2,0.3-0.2,0.4-0.3c0.1-0.1,0.3-0.1,0.4-0.2
				s0.3-0.1,0.3-0.2c0.2,0,0.2-0.1,0.4-0.2c0.1,0,0.2,0,0.4,0c0-0.1,0-0.1,0-0.2c0.1-0.1,0.1,0.1,0.1,0.1c0.1,0,0.2,0,0.3,0l0.1-0.1
				L73.7,114.6z"/>
			<path class="st0" d="M86.1,124.5c0,0.1,0,0.2,0,0.2l0.1,0.1c0.1,0.2-0.1,0.3-0.1,0.5c0,0.1-0.1,0.3-0.2,0.5
				c-0.1,0-0.2,0.2-0.3,0.2c0,0.1,0,0.2,0,0.2c-0.1,0.1-0.1,0.1-0.2,0.2s0,0.2-0.1,0.2c-0.1,0.1-0.1,0.1-0.1,0.2s-0.1,0.1-0.1,0.3
				c-0.1,0.1-0.3,0.3-0.4,0.4c-0.1,0.3-0.3,0.4-0.4,0.6c0,0.1,0,0.2,0,0.4l-0.1,0.1c0,0.2-0.1,0.4-0.2,0.7c0.1,0,0.2,0,0.3,0
				l0.1,0.1c0.1,0,0.2,0,0.3,0c0.1,0,0.1,0.1,0.2,0.1s0.1-0.1,0.2-0.1c0.1,0.1,0.2,0.1,0.4,0.2c0.1,0,0.2,0,0.3,0l0.1-0.1l0.1,0.1
				c0.2,0,0.3,0,0.5,0l0.1-0.1c0.1,0,0.2,0,0.4,0l0.1-0.1c0.1,0,0.2,0,0.3,0c0.1-0.1,0.3-0.1,0.4-0.2c0.2,0,0.2-0.2,0.4-0.1
				c0.1,0,0.2-0.1,0.3-0.1c0.1,0,0.2-0.1,0.3-0.1c0.1,0,0.2-0.1,0.3-0.1c0.1,0,0.1,0,0.1-0.1c0.1-0.2,0.3-0.2,0.4-0.3s0-0.2,0.1-0.2
				s0.2-0.1,0.2-0.2c0.1-0.1,0.2-0.1,0.2-0.1c0.1-0.1,0.2-0.1,0.3-0.2c0.1-0.1,0.2-0.2,0.3-0.2c0.1-0.1,0.2-0.1,0.4-0.2
				c0.1-0.1,0.3-0.2,0.4-0.4c0.1,0,0.2,0,0.2,0c0.1-0.1,0.2-0.2,0.3-0.2c0.1,0,0.2-0.1,0.3-0.1c0.2,0,0.3-0.1,0.5-0.2
				c0.2,0,0.4,0,0.7,0c0,0.1,0,0.1,0.1,0.2c0.1,0,0.2,0,0.3,0c0.1,0.1,0.1,0.3,0.2,0.4c-0.1,0.1-0.1,0.1-0.1,0.2s0,0.2,0,0.3
				c-0.1,0.1-0.1,0.2-0.2,0.3c-0.1,0.1-0.2,0.2-0.3,0.4c-0.1,0-0.2,0-0.3,0.1c0.1,0.1,0.1,0.1,0.1,0.1v0.1c-0.1,0-0.1,0-0.2,0.1
				c0,0,0,0-0.1,0.1v0.1c-0.1,0.1-0.2,0.3-0.3,0.3c-0.2,0-0.2,0.1-0.3,0.2c-0.1,0.1-0.2,0.1-0.3,0.2c-0.1,0.1-0.2,0.2-0.4,0.3
				c-0.1,0.1-0.3,0.1-0.4,0.2c-0.1,0-0.1,0.1-0.2,0.2c0,0.2-0.2,0.3-0.3,0.4h-0.1c0,0.1,0,0.1-0.1,0.2c0,0-0.1,0-0.2,0
				c0,0.1,0,0.1-0.1,0.2c-0.1,0-0.2,0-0.4,0c-0.1,0.1-0.2,0.3-0.3,0.4c-0.2,0-0.3,0-0.4,0l-0.1,0.1c-0.1,0.1-0.3,0-0.4,0
				c-0.1,0.2-0.4,0.3-0.6,0.5c-0.1,0-0.2,0-0.4,0c-0.1,0.1-0.2,0.2-0.3,0.3c-0.1,0-0.1-0.1-0.3-0.1c-0.6,0-1.2,0-1.9,0
				c-0.1,0.1-0.2,0.1-0.3,0.1l-0.1-0.1c-0.1,0-0.2,0-0.3,0l-0.1-0.1c-0.3,0-0.5,0-0.8,0l-0.1-0.1c-0.1,0-0.2,0-0.2,0l-0.1-0.1
				c-0.1,0-0.2,0-0.3,0c-0.2-0.1-0.3-0.2-0.5-0.2c0,0-0.1,0-0.2-0.1h-0.1c-0.1-0.1-0.2-0.1-0.2-0.3s-0.2-0.3-0.1-0.5l-0.1-0.1
				c0-0.1,0-0.2,0-0.3c-0.1,0-0.3,0-0.4,0c-0.1,0.2-0.3,0.3-0.4,0.5c-0.2,0-0.4,0-0.5,0c-0.1,0.1-0.2,0.1-0.3,0.2
				c-0.1,0.1-0.1,0.2-0.3,0.2c-0.1,0-0.2,0.1-0.3,0.2h-0.1c0,0.1-0.1,0.2-0.1,0.2h-0.1c-0.2,0.2-0.3,0.3-0.5,0.5
				c-0.2,0.1-0.5,0.2-0.7,0.4c-0.1,0-0.2,0-0.2,0c0,0.1,0,0.1,0,0.2c-0.1,0.1-0.3,0.1-0.4,0.2v0.1c-0.1,0.1-0.2,0.1-0.3,0.2
				c0,0-0.1,0-0.2,0l-0.1,0.1c-0.1,0.1-0.3,0-0.4,0c-0.2-0.1-0.2-0.4-0.4-0.5c0-0.1,0-0.3-0.1-0.3c0-0.2,0-0.4,0-0.6
				c0,0-0.1-0.1-0.1-0.2c0-0.1,0-0.2,0-0.3c0,0,0,0,0.1-0.1s0.3-0.1,0.4-0.3c0.1-0.1,0.2-0.2,0.3-0.3h0.1c0.1-0.2,0.3-0.2,0.5-0.4
				c0.1-0.1,0.2-0.1,0.3-0.1c0.1-0.1,0.2-0.2,0.3-0.3c0.1-0.1,0.1-0.1,0.2-0.2c0.1,0,0.2,0,0.4,0c0-0.1,0.1-0.2,0.2-0.2s0.2,0,0.3,0
				c0.2-0.2,0.3-0.4,0.5-0.5c0.3-0.1,0.5-0.3,0.8-0.4c0,0,0-0.1,0.1-0.2c0.1-0.1,0.2,0,0.2-0.1c0.1-0.1,0.2-0.1,0.3-0.2
				c0.1-0.1,0.2,0,0.3-0.1c0,0,0-0.1,0-0.2c0.1-0.1,0.2,0,0.3-0.1c0.1-0.1,0.1-0.2,0.2-0.2s0.2-0.1,0.3-0.2c0.1-0.1,0.2-0.2,0.3-0.3
				l0,0c0.2,0,0.3-0.1,0.4-0.2c0-0.2,0.1-0.3,0.3-0.4c0.1-0.1,0.1-0.3,0.2-0.4s0.1-0.3,0.2-0.4s0.2-0.2,0.3-0.3
				c0.1-0.2,0.1-0.3,0.2-0.4s0.2-0.2,0.2-0.3c0-0.1,0-0.2,0.1-0.2c0-0.1,0.1-0.2,0.2-0.3c0.1,0,0.3,0,0.4-0.1c0.1,0,0.2,0,0.4,0
				c0.1,0.2,0.3,0.2,0.5,0.3c0.1,0,0.2,0,0.4,0C86,124.5,86,124.5,86.1,124.5C86,124.4,86,124.5,86.1,124.5z"/>
			<g>
				<path class="st0" d="M96.9,130l-0.1-0.1c0-0.1,0-0.3,0-0.5l0.1-0.1l-0.1-0.1c0-0.2,0-0.4,0-0.6l0.1-0.1c0-0.3,0-0.6,0-1l0.1-0.1
					c0-0.2,0-0.3,0-0.5c0.1-0.1,0.2-0.3,0.2-0.4c0-0.2,0.1-0.3,0.2-0.5c0-0.1,0.1-0.3,0.2-0.4s0.1-0.3,0.2-0.4
					c0.1-0.2,0.1-0.3,0.3-0.4c0-0.1,0-0.2,0-0.3v-0.1c0.2-0.2,0.3-0.4,0.4-0.7c0.1-0.2,0.2-0.5,0.4-0.6c0,0,0-0.2,0.1-0.2h0.1
					c0-0.1,0-0.1,0.1-0.2c0.2,0,0.3,0,0.5,0c0,0.1,0.1,0.2,0.2,0.3c0,0,0,0,0.1-0.1c0,0.1,0,0.1,0,0.2c0.1,0.1,0.2,0,0.3,0.2
					c0.1,0.1,0.2,0.1,0.2,0.1c0.1,0,0.1,0.2,0.2,0.3c0,0.1,0,0.3,0,0.4l-0.1,0.1c-0.1,0.1,0,0.3,0,0.4c-0.1,0.1-0.1,0.2-0.1,0.4
					c-0.1,0.1-0.1,0.1-0.2,0.2c0,0.3-0.2,0.5-0.3,0.8c-0.1,0-0.1,0-0.2,0.1c0,0.1-0.1,0.2-0.1,0.4c0,0,0,0.2,0,0.3
					c-0.1,0-0.1,0-0.2,0c0,0-0.1,0.1-0.1,0.2s0,0.2,0,0.4c-0.1,0.1-0.3,0.2-0.4,0.3c0,0.2,0,0.3,0,0.4c-0.1,0.1-0.1,0.1-0.2,0.2
					c0,0.2,0,0.4,0,0.6l-0.1,0.1c0,0.1,0.1,0.2,0.1,0.3c0.1,0.1,0.2,0,0.3-0.1c0.2,0,0.4,0,0.6,0l0.1-0.1c0.1,0,0.2,0,0.3,0
					c0.1-0.1,0.3-0.2,0.4-0.3c0.1,0,0.2,0,0.3,0l0.1-0.1c0.1,0,0.2,0,0.2,0l0.1-0.1c0.1,0,0.1,0.1,0.2,0.1c0.1-0.1,0.3-0.2,0.5-0.3
					c0.2,0,0.4,0,0.6,0c0.1-0.2,0.4-0.3,0.6-0.5c0.2,0,0.3,0,0.4,0c0.1-0.1,0.3-0.2,0.4-0.3c0.1,0,0.2,0,0.3,0
					c0.1-0.1,0.2-0.2,0.3-0.2c0.2,0.1,0.4-0.2,0.6-0.1c0.1-0.1,0.3-0.2,0.5-0.3c0-0.1,0-0.1,0-0.2l0,0c0.2,0,0.5,0,0.7,0
					c0-0.1,0-0.1,0.1-0.2s0.2,0,0.3,0l0.1-0.1c0.1,0,0.2,0,0.3,0c0,0,0-0.1,0.1-0.3c0,0,0.1,0.1,0.2,0c0.1-0.2,0.3-0.3,0.4-0.5
					c0.1,0,0.2,0,0.2,0c0.1-0.1,0.2-0.2,0.3-0.4c0.1,0,0.2,0,0.3,0c0.2-0.1,0.2-0.3,0.4-0.3c0.1-0.1,0.3-0.1,0.4-0.2
					c0,0,0.1,0,0.2-0.1s0.2-0.3,0.3-0.3c0.2,0,0.3-0.2,0.4-0.3c0.1-0.1,0.2-0.2,0.3-0.3v-0.1c0.2-0.1,0.2-0.1,0.5-0.5
					c0-0.1,0-0.2,0-0.3c0,0,0.1-0.1,0.1-0.2c0.1-0.1,0.2,0,0.3,0c0.1,0,0.2,0,0.2,0c0.1,0.1,0.1,0.1,0.2,0.2c0,0.1,0,0.2,0,0.3
					c0.1,0,0.2,0,0.3,0.1c0,0.1,0.1,0.2,0.2,0.3c0,0.1,0,0.2,0,0.3c0,0.1,0.2,0.2,0.1,0.3c-0.1,0-0.1,0.1-0.2,0.1l0.1,0.1l-0.1,0.1
					c0,0.1,0,0.2,0,0.2c-0.1,0-0.1,0-0.2,0.1c0,0,0,0.1,0,0.2c-0.1,0.1-0.3,0-0.4,0.1c0,0.1-0.1,0.2-0.1,0.2c-0.1,0-0.2,0-0.3,0
					c-0.1,0.2-0.3,0.3-0.4,0.4c-0.1,0-0.2,0.1-0.2,0.1c-0.1,0-0.1,0.1-0.2,0.1c-0.1,0.1-0.2,0.2-0.2,0.3c-0.1,0-0.1,0-0.1,0
					c-0.1,0.1-0.2,0.2-0.3,0.4c-0.1,0-0.1,0-0.3,0c-0.1,0.1-0.1,0.2-0.2,0.2s-0.1,0-0.2,0c-0.1,0.1-0.2,0.3-0.3,0.3
					c-0.2,0.1-0.3,0.2-0.4,0.3c-0.2-0.1-0.3,0.1-0.5,0.1c-0.2,0.1-0.3,0.4-0.6,0.5c-0.2,0.1-0.3,0.3-0.5,0.5c-0.1,0-0.2,0-0.3,0.1
					c-0.1,0.1-0.2,0.1-0.3,0.2c-0.1,0.1-0.3,0.1-0.5,0.1c0,0.1,0,0.2,0,0.3c-0.1,0.1-0.3,0-0.4,0l-0.1,0.1c-0.1,0-0.2,0-0.2,0
					l-0.1,0.1c-0.1,0-0.2,0-0.3,0c0,0,0,0-0.1,0c-0.1,0.1-0.2,0.2-0.3,0.3c-0.1,0-0.2,0-0.3,0.1c-0.1,0-0.1,0.1-0.2,0.1l-0.1-0.1
					c-0.1,0.1-0.2,0.3-0.3,0.3c-0.2,0.1-0.3,0.2-0.4,0.3c-0.1,0-0.2,0-0.3,0c-0.1,0.1-0.3,0.2-0.4,0.3c-0.1,0-0.2,0-0.3,0
					c-0.1,0.1-0.1,0.1-0.2,0.2c-0.1,0-0.2,0-0.3,0l-0.1,0.1c-0.2,0-0.3,0-0.5,0l-0.1,0.1l-0.1-0.1c0,0.1,0,0.1-0.1,0.2
					c-0.1,0.1-0.3,0-0.4,0.2c-0.2-0.1-0.3,0.1-0.4,0.1l-0.1-0.1c-0.1,0-0.1,0.1-0.1,0.2c-0.1,0.1-0.2,0-0.3,0.1
					c-0.1,0-0.1-0.1-0.1-0.1c-0.2,0-0.3,0-0.5,0c-0.1-0.1-0.1-0.1-0.2-0.1s-0.1-0.1-0.2-0.2c-0.3,0-0.5-0.2-0.8-0.3
					c0-0.1,0-0.1,0-0.2c-0.1-0.1-0.2-0.2-0.3-0.3C96.9,130.3,96.9,130.2,96.9,130z"/>
				<path class="st0" d="M101.3,121.3c-0.1,0.1-0.2,0.2-0.2,0.2c-0.2,0-0.3,0-0.5,0l-0.1,0.1c-0.2-0.1-0.5-0.2-0.8-0.4
					c-0.1-0.1-0.2-0.3-0.3-0.5c0-0.1,0-0.3,0-0.4l-0.1-0.1c0-0.1,0-0.2,0-0.2l0.1-0.1c0.1-0.1,0-0.2,0.1-0.3c0.1-0.1,0-0.2,0.1-0.3
					c0-0.1,0.1-0.2,0.1-0.3c0.1-0.1,0.2-0.3,0.2-0.5s0.1-0.3,0.1-0.4s0.1-0.2,0.2-0.3h0.1c0.1-0.1,0-0.2,0.1-0.3
					c0.1-0.1,0.1-0.2,0.1-0.3c0.1,0,0.1,0,0.2,0c0.1-0.1,0.1-0.3,0.2-0.4c0.2-0.2,0.2-0.5,0.5-0.6c0.1,0,0.3,0,0.4,0
					c0.3,0.1,0.5,0.2,0.8,0.4c0.2,0.2,0.3,0.3,0.5,0.5c0,0,0,0.1,0,0.2l0.1,0.1c0,0.1,0,0.2,0,0.2l-0.1,0.1c0,0.3-0.2,0.5-0.3,0.8
					c-0.1,0.1,0,0.2-0.1,0.3c-0.3,0.2-0.3,0.6-0.5,0.9c0,0.1,0,0.2,0,0.3c-0.1,0-0.2,0.1-0.2,0.1c0,0.2,0,0.3,0,0.3
					c-0.1,0.1-0.1,0.3-0.2,0.4c0,0.1,0,0.2,0,0.4c-0.1,0-0.2,0-0.2,0.1C101.5,121.3,101.4,121.3,101.3,121.3z"/>
			</g>
			<path class="st0" d="M88.9,115.5L88.9,115.5l0.2,0.1c0,0,0,0.1,0.1,0.2c0.2,0,0.3,0.2,0.4,0.3c0.1,0.2,0.1,0.2,0.2,0.3
				c0,0.1,0,0.2,0,0.4c-0.1,0.2-0.2,0.4-0.2,0.6c-0.1,0-0.2,0.1-0.2,0.2s0,0.2,0,0.3c-0.1,0.1-0.2,0.1-0.2,0.2s0,0.2,0,0.2
				c-0.2,0.2-0.1,0.5-0.3,0.8l0.1,0.1c-0.1,0.1-0.2,0.2-0.3,0.3c-0.1,0-0.1,0-0.2,0c-0.1,0.1-0.2,0.2-0.2,0.2c-0.3,0-0.6,0-0.8,0
				c-0.1-0.1-0.2-0.1-0.3-0.2c0,0,0-0.1-0.1-0.2c-0.1,0-0.1,0-0.2,0c-0.1-0.2-0.2-0.3-0.3-0.6c0-0.1,0-0.2,0-0.4c0-0.2,0-0.3,0-0.5
				c0.1-0.1,0.1-0.2,0.1-0.4c0.1-0.1,0.2-0.2,0.4-0.2l0,0c0.1,0,0.1,0,0.2-0.1c0-0.1,0-0.2,0-0.4c0.1,0,0.2-0.1,0.2-0.1l-0.1-0.1
				c0.1-0.2,0.2-0.4,0.3-0.6h0.1c0.2-0.3,0.2-0.6,0.4-0.8c0.1,0,0.2,0,0.3,0c0.1,0.1,0.1,0.2,0.2,0.2
				C88.7,115.5,88.8,115.5,88.9,115.5z"/>
			<path class="st0" d="M150.4,117.6c0.3-0.2,0.3-0.6,0.5-0.8h0.1c0.1,0.2,0.4,0.2,0.5,0.4c0.1,0.2,0.2,0.4,0.3,0.5c0,0,0,0.1,0,0.2
				c0.1,0,0.2,0.1,0.2,0.2c0,0.3,0,0.5,0,0.8l-0.1,0.1c0,0.1,0,0.2,0,0.2l-0.1,0.1c0,0.2,0,0.4,0,0.6l-0.1,0.1l0.1,0.1v0.1
				c-0.1,0.1-0.3,0.3-0.5,0.5c0,0-0.2-0.1-0.2,0.1c-0.4,0-0.8,0-1.2,0c0,0-0.1-0.1-0.2-0.2c0-0.3,0-0.6,0-0.9l0.1-0.1
				c0.1-0.2-0.1-0.4,0.1-0.6c0.1-0.1,0-0.3,0.2-0.4c0-0.2,0-0.3,0-0.5c0.1,0,0.1,0,0.2,0c0,0,0-0.1,0-0.2l0.1-0.1
				C150.4,117.8,150.4,117.7,150.4,117.6z"/>
		</g>
		<g>
			<path class="st1" d="M169.1,56.1c0-0.1,0-0.2,0-0.3l0.1-0.1c0-0.2-0.2-0.4-0.1-0.6c0-0.1-0.1-0.2-0.1-0.3s0-0.3,0-0.5
				c0-0.1,0.1-0.2,0.2-0.4c0,0,0-0.1,0-0.2c0.1-0.2,0.2-0.3,0.2-0.5c-0.1-0.4,0-0.7,0.2-1c0-0.1,0.1-0.2,0.1-0.2
				c0-0.1,0.1-0.1,0.1-0.2l0.1-0.1c0.1-0.1,0.3-0.2,0.3-0.4h0.1c0.2-0.2,0.4-0.4,0.6-0.5c0.2-0.1,0.4-0.3,0.6-0.5
				c0.1,0.1,0.2-0.1,0.4-0.2c0.1,0,0.2-0.2,0.4-0.2c0.1,0,0.2-0.1,0.4-0.2c0.1,0,0.2,0,0.3,0l0.1-0.1c0.2,0,0.3-0.1,0.5-0.1
				s0.4,0,0.5,0s0.2,0,0.2,0c0.1-0.1,0.3-0.1,0.4,0c0.1,0,0.2,0,0.4,0c0.1,0,0.2,0,0.3,0.1s0.2,0.1,0.2,0.1c0.1,0,0.3,0.1,0.4,0.2
				c0.2,0.2,0.4,0.1,0.6,0.2c0.1,0,0.2,0,0.3,0.1s0.2,0.1,0.2,0.3c0.1,0,0.2,0,0.3,0.1s0.1,0.1,0.2,0.2c0.1,0.2,0.3,0.5,0.4,0.8
				c0,0.1,0.1,0.1,0.1,0.2c0,0.2,0.1,0.4,0.1,0.6c0,0.5,0,0.9-0.1,1.4c0,0.1-0.1,0.3-0.2,0.4l-0.1,0.1v0.1c-0.2,0.3-0.5,0.6-0.7,0.9
				c-0.1,0.1-0.3,0.3-0.4,0.5c-0.1,0.1-0.2,0.2-0.2,0.3c0,0,0,0.1-0.1,0.1s-0.1,0.2-0.2,0.3c-0.1,0-0.2,0.2-0.3,0.3c0,0-0.1,0-0.2,0
				c0,0.1,0,0.2-0.1,0.3s-0.2,0.1-0.3,0.2c-0.1,0.1-0.2,0.1-0.3,0.1c-0.1,0.2-0.3,0.3-0.5,0.5h-0.1c-0.1,0.1-0.2,0.2-0.4,0.3
				c-0.1,0-0.2,0-0.3,0.1c-0.1,0-0.2,0-0.3,0c0,0,0,0.1-0.1,0.1s-0.3,0-0.4,0c-0.1,0.1-0.2,0-0.4,0.1c-0.1,0.1-0.3,0.1-0.4,0.1H172
				l-0.1,0.1c0,0-0.1,0-0.1-0.1c-0.3,0.1-0.5-0.1-0.8,0c0-0.1,0-0.1,0-0.1c-0.1,0-0.2,0-0.2,0.1c-0.2-0.1-0.2-0.2-0.4-0.2
				c-0.2-0.2-0.2-0.5-0.5-0.6s-0.3-0.4-0.5-0.6c0-0.1,0-0.2-0.1-0.2C169.2,56.3,169.2,56.2,169.1,56.1
				C169.2,56.1,169.2,56.1,169.1,56.1z"/>
			<path class="st1" d="M151.7,38.6c-0.1,0.2-0.2,0.3-0.3,0.4c-0.1,0-0.1,0-0.2,0c-0.2,0.3-0.2,0.7-0.5,0.9
				c-0.1,0.1-0.2,0.3-0.3,0.5s-0.3,0.4-0.6,0.6c-0.1,0.1-0.3,0.1-0.6,0.3c0,0.1-0.1,0.2-0.2,0.3c-0.3,0.1-0.6,0.2-0.8,0.3
				c-0.3,0.6-0.8,0.8-1.4,1c-0.1,0-0.2,0.1-0.4,0.2c-0.1,0-0.3,0-0.4,0.2c0,0-0.2,0-0.3,0c-0.3,0-0.6,0-0.8,0.2
				c-0.1,0-0.1-0.1-0.2-0.1c-0.5,0.1-0.9,0-1.4-0.1c-0.4-0.1-0.9,0-1.4-0.1c-0.1-0.2-0.4-0.1-0.6-0.2c-0.2-0.1-0.5,0-0.7-0.2
				c-0.2-0.1-0.5-0.1-0.7-0.2c-0.1-0.1-0.3-0.2-0.4-0.3c-0.1,0-0.2,0-0.3,0c-0.2-0.2-0.6-0.2-0.8-0.4s-0.4-0.4-0.6-0.6
				c-0.1-0.1-0.2-0.2-0.3-0.2c-0.3,0-0.4-0.2-0.6-0.4c-0.1-0.2-0.3-0.3-0.5-0.4c-0.1-0.1-0.3-0.2-0.3-0.4s-0.1-0.3-0.2-0.4
				c-0.1-0.2-0.2-0.4-0.2-0.7c0-0.4-0.3-0.6-0.4-0.9c0-0.1-0.2-0.2-0.2-0.4c-0.1-0.2-0.1-0.4,0.1-0.5c-0.1-0.2-0.2-0.3-0.3-0.4
				c0-0.2,0-0.3,0-0.5c0.1-0.5,0.3-0.9,0.4-1.3c0-0.1,0.1-0.2,0.1-0.3c0.3-0.3,0.4-0.6,0.6-0.9c0.5-0.6,1-1.2,1.7-1.6
				c0.2-0.1,0.4-0.2,0.7-0.3c0.1,0,0.2,0,0.3,0c0,0,0-0.1,0.1-0.1c0.6-0.1,1.3-0.3,1.9-0.3c0.3,0,0.7,0,1-0.1c0.2,0,0.4,0,0.6-0.2
				c0,0,0.2-0.1,0.2,0c0.2,0.1,0.4-0.1,0.6-0.1c0.2,0.1,0.4,0,0.7,0c0,0,0.1,0.1,0.2,0.2c0.1-0.1,0.3-0.2,0.4-0.3
				c0.2,0,0.4,0,0.5,0.1c0.2,0,0.4,0,0.5,0.2c0.4-0.2,0.7-0.1,1.1-0.1c0,0,0.1,0.1,0.1,0.2c0.3,0,0.5,0,0.9,0
				c0.1,0.1,0.3,0.3,0.5,0.2c0.1,0.1,0.3,0.2,0.4,0.4c0.1,0,0.1,0,0.2,0c0.2,0.1,0.3,0.4,0.5,0.4s0.3,0.3,0.5,0.3s0.4,0.2,0.6,0.3
				c0.1,0,0.1,0.1,0.2,0.2c0.1,0,0.1,0,0.2,0c0,0.1,0,0.2,0.1,0.2c0.5,0.1,0.5,0.7,0.9,0.9c0,0.1-0.1,0.1-0.1,0.2
				c0.1,0.1,0.3,0.1,0.3,0.2c0.1,0.3,0,0.5,0.2,0.7c0,0.4-0.2,0.8-0.1,1.3c0.2,0.5-0.1,0.9-0.1,1.3c0,0.1-0.2,0.3-0.1,0.4
				c0.1,0.3-0.1,0.3-0.3,0.4C151.7,38.5,151.7,38.6,151.7,38.6z"/>
			<path class="st1" d="M181.2,35.5c0.3-0.1,0.5,0.1,0.7,0.2c0.1,0.2,0.2,0.4,0.2,0.6c0,0.2-0.1,0.4-0.1,0.5
				c0.1,0.2,0.3,0.4,0.3,0.6c0,0.2,0.1,0.5,0,0.7c-0.1,0.1-0.1,0.3,0,0.5c0,0.3,0.1,0.5,0.1,0.8c0,0.6,0.2,1.2-0.1,1.8
				c0,0.1,0,0.2,0,0.3c-0.3,0.4-0.6,0.8-1,1.1c-0.3,0.2-0.6,0.4-0.9,0.7c-0.2,0.3-0.5,0.4-0.8,0.7c-0.1,0.1-0.3,0.3-0.4,0.4
				c-0.2,0.1-0.4,0.1-0.6,0.2c-0.1,0-0.1,0.1-0.2,0.2c-0.6,0.2-1.2,0.4-1.8,0.6c-0.1,0.2-0.3,0.2-0.6,0.3c-0.2,0-0.4,0.1-0.6,0.2
				c-0.3-0.1-0.7,0.1-1-0.2c-0.7,0.2-1.4,0-2.1-0.2c0,0-0.1,0-0.1-0.1c-0.4-0.3-0.9-0.5-1.3-0.8c-0.3-0.2-0.6-0.5-0.8-0.8
				c-0.1-0.1-0.2-0.1-0.3-0.2c-0.2-0.2-0.3-0.5-0.5-0.8c0-0.1,0.1-0.1,0.1-0.2c-0.4-0.2-0.6-0.6-0.8-0.9c-0.2-0.3-0.4-0.5-0.6-0.7
				c-0.2-0.5-0.4-1-0.4-1.5c0-0.1-0.2-0.2-0.1-0.2c0.1-0.1,0-0.2,0-0.2c0-0.2,0-0.4,0.1-0.6c-0.2-0.2-0.2-0.4,0-0.6
				c0.1-0.2,0.3-0.4,0.4-0.7c0.1,0,0.1,0,0.2-0.1c0.1-0.2,0.2-0.4,0.3-0.6c0.1-0.2,0.2-0.3,0.3-0.4c0.4-0.4,0.8-0.6,1.3-0.9
				c0.1,0,0.1-0.1,0.2-0.2c0.1,0,0.1-0.1,0.2-0.1h0.1c0.2-0.3,0.6-0.6,0.9-0.8c0.2-0.1,0.4-0.3,0.6-0.4c0.3-0.2,0.5-0.4,0.9-0.5
				c0.2,0,0.5-0.1,0.7-0.1c0.1,0,0.2-0.1,0.3-0.2c0.1,0,0.2,0.1,0.4,0c0.1-0.1,0.3-0.1,0.5-0.2c0.2,0,0.3,0.1,0.5,0
				c0.1-0.1,0.3,0,0.4-0.1c0.1-0.1,0.3,0.1,0.5,0c0.3-0.1,0.5,0,0.8,0c0,0.1,0.1,0.1,0.1,0.2c0.8-0.2,1.4,0.2,2,0.7
				c0,0.1,0,0.1-0.1,0.2c0,0,0,0.1,0.1,0.1c0.3,0.2,0.5,0.4,0.8,0.5c0.2,0.1,0.5,0.3,0.6,0.5C180.6,35.1,180.8,35.3,181.2,35.5z"/>
			<path class="st1" d="M151.5,49.3c0.1,0.6,0.3,1.1,0.4,1.6c-0.1,0.1-0.1,0.2-0.2,0.2c0,0.1,0,0.1,0,0.2c-0.1,0.1-0.1,0.2-0.2,0.3
				c-0.1,0.2-0.1,0.5-0.2,0.7c-0.2,0.2-0.1,0.5-0.3,0.7c0,0.1,0,0.2,0,0.3c-0.2,0.3-0.5,0.5-0.7,0.8s-0.5,0.5-0.7,0.8
				c-0.1,0.1-0.3,0.3-0.5,0.3c-0.1,0-0.3,0.1-0.4,0.2c-0.2,0.2-0.5,0.2-0.7,0.5c-0.1,0.1-0.3,0-0.4,0.2c-0.2,0-0.4,0.1-0.6,0.2
				c-0.3,0.1-0.6,0.2-0.9,0.1c-0.3-0.1-0.7,0.1-1,0s-0.6-0.1-0.9-0.2c-0.4-0.1-0.8-0.2-1.2-0.4c-0.2,0-0.1-0.2-0.2-0.2
				c-0.1,0-0.2-0.1-0.3-0.1c-0.1-0.2-0.3-0.1-0.4-0.2c0,0,0-0.1-0.1-0.1c-0.4-0.3-0.7-0.7-1.1-1c-0.1-0.1-0.2-0.3-0.3-0.4
				c-0.3-0.3-0.7-0.7-0.9-1.1c-0.1-0.2-0.2-0.4-0.4-0.6V52c0-0.2-0.1-0.3-0.3-0.4c-0.2-0.2-0.3-0.4-0.4-0.6c0-0.1-0.1-0.3-0.1-0.4
				c-0.1-0.1-0.1-0.3,0-0.4c0.1-0.2,0.1-0.5,0.1-0.8c0.1-0.1,0.2-0.2,0.3-0.3c-0.1-0.4,0.2-0.6,0.4-0.8c0.3-0.2,0.4-0.4,0.6-0.5
				c0.2-0.1,0.3-0.3,0.5-0.5c0.2-0.1,0.5-0.1,0.7-0.2c0.2-0.1,0.4-0.2,0.6-0.3c0.1-0.1,0.2-0.1,0.3-0.1c0.9-0.2,1.8-0.3,2.6-0.5
				c0.2,0,0.4,0,0.6,0c0.1,0,0.1,0,0.2,0c0.4-0.1,0.8-0.1,1.2,0c0.3,0,0.6,0.2,0.9,0.3c0.1,0.1,0.2,0.1,0.3,0.2
				c0.1,0.1,0.2,0.1,0.3,0.2c0.1,0.1,0.3,0.1,0.4,0.1c0.1,0.1,0.2,0.1,0.3,0.2c0.3,0.2,0.5,0.4,0.8,0.5c0.1,0,0.2,0.1,0.3,0.2
				c0.1,0.2,0.3,0.3,0.4,0.3c0.1,0,0.2,0.1,0.3,0.2C151,48.8,151.2,49,151.5,49.3z"/>
			<path class="st1" d="M165.5,55.1c0.2,0.2,0.4,0.3,0.5,0.5c0,0.1,0.1,0.1,0.2,0.1c0.2,0.1,0.3,0.3,0.4,0.5c0,0.1,0.1,0.2,0.1,0.3
				c0.1,0.2,0,0.4,0,0.6c0,0.1,0,0.1,0.1,0.2c-0.1,0.1-0.1,0.3-0.2,0.5c0,0.3-0.2,0.4-0.3,0.6c-0.1,0.1-0.3,0.1-0.3,0.3
				s-0.3,0.2-0.2,0.4c-0.2,0.1-0.2,0.2-0.3,0.3c-0.3,0.3-0.5,0.6-0.8,0.7c-0.2,0.1-0.5,0.1-0.7,0.3c-0.4,0-0.6,0.3-0.9,0.4
				c-0.1,0-0.3,0-0.4,0c-0.1,0-0.2,0-0.4,0c-0.2,0.2-0.4,0.1-0.7,0c-0.1,0-0.2,0.2-0.3,0.1c-0.3-0.2-0.5,0.1-0.7,0.1
				c0,0,0,0.1-0.1,0.1c-0.5,0.1-1,0.2-1.5,0.2s-1.1-0.1-1.6-0.3c-0.2-0.1-0.4-0.1-0.5-0.2c-0.1-0.1-0.2-0.1-0.3-0.2
				c-0.3-0.1-0.5-0.4-0.6-0.6c-0.1-0.1-0.2-0.2-0.2-0.3c0.1-0.2,0-0.4-0.2-0.6c-0.1-0.1-0.3-0.2-0.4-0.3c-0.3-0.2-0.7-0.5-0.8-0.8
				c-0.1-0.2-0.3-0.4-0.4-0.6c-0.1-0.2,0-0.4-0.2-0.6c0.1-0.2,0.1-0.4-0.1-0.5c0-0.1,0-0.3,0-0.4c-0.1-0.4-0.1-0.7,0.1-1
				c0-0.1,0-0.1,0-0.2c0-0.3,0.1-0.6,0.4-0.8c0-0.1,0-0.1,0-0.2c0.3-0.2,0.5-0.6,0.8-0.7c0,0,0,0,0.1,0c0.3-0.1,0.5-0.2,0.8-0.2
				c0.3-0.1,0.6-0.1,0.8-0.1s0.4,0,0.6,0c0,0,0.1,0,0.1,0.1c0.1,0,0.2-0.1,0.3-0.1s0.3,0,0.4-0.1c0,0,0.1-0.1,0.2,0
				c0.5,0.1,0.9-0.1,1.4-0.2c0.6-0.1,1.1,0,1.6,0.2s1,0.3,1.5,0.5c0.3,0.1,0.4,0.2,0.6,0.3c0.2,0.2,0.5,0.3,0.7,0.5
				c0.1,0.1,0.1,0.3,0.2,0.4c0.2-0.2,0.5-0.3,0.7-0.5c0.1,0.1,0.2,0.2,0.3,0.3C165.4,54.6,165.4,54.8,165.5,55.1z"/>
			<path class="st1" d="M154.5,19.9c0.2,0.2,0.5,0.3,0.6,0.6c0,0.1,0.1,0.1,0.2,0.1c0.2,0.1,0.3,0.3,0.4,0.6c0,0.1,0.1,0.2,0.1,0.3
				c0.1,0.2,0,0.4,0,0.6c0,0.1,0,0.1,0.1,0.2c-0.1,0.1-0.2,0.3-0.2,0.5c0,0.3-0.2,0.5-0.3,0.7c-0.1,0.1-0.3,0.1-0.3,0.3
				c0,0.2-0.3,0.2-0.2,0.4c-0.2,0.1-0.2,0.2-0.3,0.4c-0.3,0.3-0.5,0.6-0.9,0.8c-0.2,0.1-0.5,0.2-0.7,0.4c-0.4,0-0.6,0.3-1,0.4
				c-0.1,0-0.3,0-0.4,0c-0.1,0-0.3,0-0.4,0c-0.2,0.2-0.5,0.1-0.7,0c-0.1,0.1-0.3,0.2-0.3,0.1c-0.3-0.2-0.5,0.1-0.7,0.1
				c0,0,0,0.1-0.1,0.1c-0.5,0.1-1,0.2-1.5,0.2c-0.6,0-1.1-0.1-1.6-0.3c-0.2-0.1-0.4-0.1-0.6-0.3c-0.1-0.1-0.2-0.1-0.4-0.2
				c-0.3-0.1-0.5-0.4-0.6-0.6c-0.1-0.1-0.2-0.2-0.2-0.3c0.2-0.3,0-0.4-0.2-0.6c-0.1-0.1-0.3-0.2-0.4-0.3c-0.4-0.2-0.7-0.5-0.8-0.8
				c-0.1-0.2-0.3-0.4-0.4-0.6c-0.1-0.2,0-0.5-0.2-0.6c0.1-0.2,0.1-0.4-0.1-0.6c0-0.1,0-0.3,0-0.4c-0.1-0.4-0.1-0.7,0.1-1.1
				c0-0.1,0-0.1,0-0.2c0-0.3,0.1-0.6,0.4-0.8c0-0.1,0-0.1,0-0.2c0.3-0.2,0.5-0.6,0.8-0.7c0,0,0,0,0.1-0.1c0.3-0.1,0.5-0.2,0.8-0.2
				c0.3-0.1,0.6-0.2,0.9-0.1c0.2,0,0.4,0,0.7,0c0,0,0.1,0,0.1,0.1c0.1-0.1,0.2-0.1,0.3-0.1s0.3,0,0.4-0.1c0,0,0.1-0.1,0.2-0.1
				c0.5,0.1,1-0.1,1.4-0.2c0.6-0.1,1.1,0,1.7,0.2c0.5,0.3,1.1,0.3,1.6,0.5c0.3,0.1,0.5,0.2,0.7,0.3c0.2,0.2,0.5,0.3,0.7,0.5
				c0.1,0.1,0.1,0.3,0.2,0.4c0.2-0.2,0.5-0.3,0.7-0.5c0.1,0.1,0.2,0.2,0.4,0.3C154.4,19.4,154.5,19.6,154.5,19.9z"/>
			<path class="st1" d="M163.2,30.1c-0.2,0-0.4,0.1-0.6,0.3c-0.3,0.2-0.6,0.3-0.9,0.4c-0.4,0.1-0.8,0.2-1.2,0.3
				c-0.1,0-0.2,0.2-0.4,0.1c-0.1-0.1-0.3,0-0.4,0c-0.1,0-0.3-0.1-0.4-0.2c-0.2,0-0.4-0.1-0.6-0.1c-0.4,0.1-0.8-0.1-1.2-0.1
				c0,0-0.1,0-0.2,0c-0.2-0.1-0.4-0.3-0.7-0.3c-0.1,0-0.2-0.1-0.2-0.1c0-0.2-0.2-0.2-0.3-0.4c0-0.1-0.1-0.3-0.2-0.4
				c0-0.1-0.1-0.1-0.1-0.2c0.1-0.3-0.1-0.6-0.1-0.9c0-0.2,0.1-0.4,0.1-0.6c0-0.4,0.1-0.7,0.2-1.1c0.1-0.2,0.1-0.3,0.1-0.5
				c0-0.1,0.1-0.3,0.1-0.4h0.1c0-0.2,0.1-0.4,0.1-0.7v-0.1c0.3-0.3,0.3-0.8,0.6-1.2c0.1-0.1,0.1-0.3,0.2-0.5
				c0.3-0.3,0.5-0.9,0.9-1.4c0.1-0.1,0.1-0.3,0.3-0.4c0.1-0.1,0.2-0.3,0.3-0.4s0.2-0.2,0.3-0.3c0.1-0.1,0.2-0.2,0.3-0.4
				c0.1-0.1,0.1-0.1,0.2-0.2c0.5-0.2,1-0.4,1.4-0.7c0.4-0.1,0.8-0.2,1.1-0.4h0.1c0.3,0.1,0.5-0.1,0.7-0.1c0.1,0,0.1,0,0.2,0
				c0,0,0.1,0,0.2,0c0.2,0.1,0.4,0.1,0.7,0.2c0.4,0.1,0.9,0.3,1.2,0.8c0.1,0.2,0.3,0.3,0.3,0.5c0,0,0,0.1,0.1,0.1
				c0.2,0.2,0.3,0.5,0.3,0.7c0,0.3,0.1,0.6,0.1,0.9c0,0.2,0.1,0.4,0.2,0.5c0.2,0.4,0.3,0.9,0.5,1.3v0.1c0,0.4,0.1,0.7,0,1.1
				c-0.1,0.1-0.1,0.3-0.1,0.4c-0.1,0.1,0,0.3-0.2,0.4c-0.1,0.4-0.5,0.7-0.7,1.1c-0.1,0.1-0.1,0.2-0.2,0.3c0,0.1-0.2,0.2-0.3,0.3
				c-0.1,0.1-0.2,0.2-0.2,0.3c-0.1,0.2-0.3,0.3-0.4,0.4c-0.1,0.1-0.3,0.1-0.4,0.3c-0.1,0.1-0.2,0.2-0.4,0.3
				c-0.2,0.1-0.2,0.3-0.4,0.4C163.4,29.7,163.3,29.9,163.2,30.1z"/>
			<path class="st1" d="M165.8,43.6c0,0.1-0.1,0.2-0.1,0.3c0.1,0.2,0.1,0.4,0,0.7c-0.1,0.2-0.1,0.5-0.1,0.7s0,0.4-0.3,0.5
				c-0.1,0-0.1,0.2-0.2,0.3c-0.6,0.2-0.8,0.8-1.1,1.3c-0.1,0.1-0.3,0.2-0.3,0.3c-0.1,0.3-0.4,0.4-0.5,0.7c-0.1,0.2-0.4,0.4-0.6,0.5
				c-0.3,0.2-0.6,0.3-0.9,0.5c-0.4,0.2-0.8,0.2-1.2,0.2c-0.1,0-0.2-0.1-0.4-0.2c-0.4,0.1-0.5,0-0.8-0.3c-0.5,0-0.9-0.1-1-0.6
				c-0.4,0-0.5-0.3-0.7-0.5s-0.5-0.4-0.7-0.6c-0.2-0.3-0.3-0.5-0.4-0.8c-0.1-0.3-0.2-0.5-0.3-0.8c-0.1,0-0.2-0.1-0.2-0.1
				c-0.2-0.4-0.5-0.8-0.6-1.2c-0.1-0.6-0.3-1.1-0.5-1.7c-0.1-0.2-0.1-0.5,0.1-0.7c-0.1-0.3-0.3-0.7-0.4-1c0.1-0.7,0.1-1.3,0.1-1.9
				c0-0.3,0-0.5,0.1-0.8s0.2-0.6,0.2-0.8s0.1-0.4,0.3-0.6c0.1-0.1,0.3-0.3,0.3-0.4c0-0.3,0.3-0.1,0.3-0.4c0.1,0,0.3,0,0.4,0
				c0.2-0.1,0.4-0.1,0.6-0.2c0.4-0.2,0.8-0.2,1.3-0.2c0.3,0,0.5,0.1,0.8,0.2h0.1c0.3-0.4,0.5-0.7,0.8-1c0.3-0.1,0.6-0.2,1-0.4
				c0.2-0.1,0.4-0.2,0.7-0.1c0.2,0.1,0.3-0.1,0.6-0.1c0.3,0.1,0.8,0.3,1.3,0.5c0.2,0.2,0.6,0.4,0.7,0.9c0.1,0,0.1,0,0.2,0
				c0.2,0.3,0.4,0.7,0.7,0.9c0.1,0.1,0.1,0.2,0.1,0.4c0.2,0.2,0.3,0.4,0.3,0.7c0,0.1,0,0.3,0.1,0.4c0.5,0.9,0.5,0.7,0.5,1.7h0.1
				c0.1,0.6-0.1,1.2,0.1,1.8C165.8,42.4,165.6,43,165.8,43.6z"/>
			<path class="st1" d="M179.7,23.5c0.1,0.3,0,0.5,0.2,0.7c0,0.3,0,0.7-0.2,1c-0.1,0.2-0.3,0.3-0.4,0.5c-0.1,0.2-0.1,0.4-0.2,0.6
				c-0.2,0.3-0.3,0.6-0.6,0.8c-0.2,0.1-0.4,0.3-0.6,0.5c-0.2,0.2-0.3,0.3-0.6,0.3c-0.1,0.3-0.1,0.3-0.4,0.4c-0.3,0.4-0.4,0.9-0.9,1
				c-0.2,0.1-0.4,0.3-0.6,0.4c-0.1,0.2-0.3,0-0.4,0.1c-0.1,0.1-0.3,0.1-0.5,0.1S174,30,173.8,30s-0.3-0.1-0.4-0.1
				c-0.2,0-0.4,0-0.5-0.1c0,0-0.1-0.1-0.1,0c-0.3,0.1-0.5-0.1-0.7-0.2c-0.1,0-0.1,0-0.2-0.1c-0.3-0.1-0.6-0.3-0.7-0.6
				c-0.1-0.1-0.2-0.2-0.3-0.3c-0.3-0.2-0.4-0.6-0.7-0.7c-0.1-0.2-0.2-0.4-0.3-0.5c-0.2-0.2-0.3-0.3-0.3-0.5c0-0.1,0-0.1-0.1-0.2
				c-0.2-0.2-0.2-0.5-0.4-0.7c-0.1-0.1,0-0.4-0.2-0.5c0.2-0.2-0.2-0.4-0.1-0.6c-0.2-0.1-0.1-0.4-0.2-0.5c-0.2-0.2-0.1-0.4-0.2-0.5
				c0.1-0.1,0.1-0.1,0.1-0.2c0,0,0,0,0-0.1c-0.1-0.1-0.1-0.2-0.1-0.3c0.2-0.5,0.5-0.9,0.7-1.4c0.3-0.3,0.4-0.7,0.8-1
				c0.1,0,0.3-0.1,0.5-0.2c0.1-0.1,0.2-0.2,0.3-0.2s0.2-0.1,0.3-0.3c0.1-0.1,0.2-0.2,0.3-0.3c0.3,0,0.6-0.2,0.9-0.1l0.1-0.1
				c0.1,0.1,0.1,0.2,0.2,0.2c0.1-0.2,0.3-0.1,0.5-0.2c0.2,0.2,0.5,0.3,0.7,0.5c0,0,0.1,0,0.2,0c0.2,0.1,0.5,0,0.6,0.1
				c0.2,0.1,0.4,0.1,0.6,0.1c0.5,0.1,1,0.3,1.6,0.4c0.1,0,0.2,0.1,0.3,0.2c0,0,0.1,0,0.3,0.1c-0.2-0.2-0.3-0.3-0.4-0.5
				c0.1-0.1,0.2-0.2,0.3-0.4c0.1,0,0.3,0.1,0.6,0.2l0.1-0.1c0.3,0,0.3,0.3,0.5,0.4c0.1,0.2,0,0.3,0.2,0.5c0.1,0.1,0,0.4,0.2,0.5
				c0,0.5,0.4,0.7,0.7,1.1C179.4,23,179.5,23.3,179.7,23.5z"/>
			<path class="st0" d="M167.4,3.9h0.2v0.4c0.1,0.1,0,0.3,0.2,0.4c0.2,0-0.1,0.4,0.2,0.4c-0.2,0.3-0.1,0.8-0.4,1c0,0.2,0,0.5,0,0.7
				l0.2,0.2c0.2-0.1,0.3-0.4,0.5-0.4c0.1-0.2,0.3-0.1,0.3-0.4l0.2-0.2c0.3-0.2,0.7-0.5,1-0.9c0.2-0.2,0.4-0.3,0.6-0.4
				c0.2-0.2,0.4-0.5,0.6-0.7l0.3-0.1c0.2-0.1,0.4-0.4,0.7-0.3l0.3-0.5h0.2l0.2-0.4c0.2,0,0.5-0.3,0.7-0.4l0.2-0.3
				c0.4-0.1,0.7-0.5,1.1-0.5l0.1,0.2c0.2,0,0.3,0,0.4,0.2l-0.1,0.2l0.1,0.2v0.1c0,0.2,0,0.5-0.1,0.7C175,3.5,175,3.8,174.9,4
				c0,0.2,0,0.4-0.1,0.6v0.2c0,0.3,0.1,0.7,0,0.9l-0.1,0.5c-0.1,0.1,0,0.4,0,0.5l-0.1,0.1c-0.1,0.2,0,0.4-0.1,0.5v0.2
				c0.1,0.2,0.1,0.3,0,0.5c0.1,0.1,0.1,0.3,0.1,0.5c-0.2,0.6-0.2,1.3-0.2,2c-0.2,0.2-0.3,0.1-0.4,0c-0.1-0.2,0-0.5-0.1-0.6
				c0-0.3,0.2-0.5,0.2-0.7c0,0.2-0.1,0.3-0.2,0.6c0.1,0.3,0,0.8,0.3,1.1c-0.1,0.3-0.3,0.5-0.3,0.8c-0.5,0-0.9,0.3-1.3,0.5
				c-1,0.5-2.1,0.8-3.1,1.2c-0.1,0-0.3,0-0.4,0c-0.3-0.1-0.5,0-0.8,0c-0.7,0.1-1.4,0-2.1,0.1c-0.7,0.1-1.3,0.2-2,0.5
				c-0.5,0.2-1,0.4-1.5,0.1h-0.2c-0.5,0.3-1.1,0.2-1.6,0.4l-0.1,0.2c-0.2-0.1-0.4,0.1-0.6-0.1l-0.1,0.1c-0.3-0.1-0.6,0.2-0.9,0.2
				L159,15c-0.1-0.1-0.3-0.1-0.4-0.2l-0.3-0.3c-0.3-0.1-0.6-0.1-1-0.3h-0.2c-0.1,0.2-0.2,0-0.3,0.1h-0.3c-0.4,0-0.6-0.2-0.8-0.7
				l-0.1-0.2c-0.2,0.3-0.5,0.3-0.8,0.5c-0.1-0.1-0.1-0.2-0.1-0.4c-0.2-0.3-0.4-0.6-0.5-1.1c0.1-0.5-0.1-1-0.1-1.5
				c-0.1-0.5-0.2-1-0.2-1.5c0-0.2-0.1-0.4-0.1-0.7c0-0.2,0-0.4,0.1-0.5s-0.1-0.3,0-0.4c-0.1-0.1-0.1-0.3-0.1-0.5c0-0.7,0-1.3,0-2
				c0-0.2,0-0.5,0.1-0.7s-0.1-0.4-0.1-0.7c0-0.2,0.2-0.4,0.1-0.6c-0.1-0.3-0.1-0.5,0-0.8c0.1-0.2,0-0.4,0-0.6l0.1-0.4
				c0.1-0.1,0.2,0,0.3-0.1c0.3,0.1,0.4,0.4,0.5,0.8l0.1-0.1c0.3,0.2,0.3,0.7,0.5,1c0,0.3,0,0.6,0.2,0.8V4c0,0.5,0.2,0.7,0.4,1v0.1
				c0.3,0.1,0.7,0.3,1.1,0.3l0.2,0.1h0.3h0.3l0.1,0.1c0.2-0.1,0.3,0.1,0.5,0l0.1-0.1c0.2,0.3,0.4,0.3,0.6,0.3l0.1,0.1
				c0.3,0.1,0.7,0,0.9,0.4c0.2-0.1,0.5,0.1,0.7,0.3v0.2c0.4,0.2,0.7,0.2,1.1,0.4c0.3,0.2,0.7,0.3,1.1,0.6c0.1-0.1,0.2-0.1,0.4-0.1
				c0.1-0.6,0.5-0.8,0.6-1.4c0.1-0.5,0.5-0.8,0.7-1.3c0.2-0.4,0.4-0.9,0.7-1.3c0.1-0.5,0.4-0.8,0.7-1.2h0.1c0.1-0.3,0.2-0.6,0.4-0.8
				c0.2,0.1,0.3-0.1,0.4-0.2l0.2,0.2c0.3,0.5,0.2,1.1,0.2,1.7c0,0.2,0.2,0.3,0.2,0.4L167.4,3.9z"/>
		</g>
		<g>
			<path class="st1" d="M24.6,55c-0.1-0.3-0.4-0.5-0.7-0.5c-0.2-0.4-0.5-0.7-0.7-1.1c-0.3-0.5-0.6-1-0.9-1.5
				c-0.1-0.3-0.3-0.5-0.4-0.8c-0.2-0.6-0.4-1.1-0.9-1.6c0-0.2-0.1-0.4-0.2-0.7c-0.2-0.5-0.3-1.1-0.4-1.7c0-0.1,0.1-0.3,0.1-0.4
				c0.1-0.2,0-0.3-0.1-0.4c0.2-0.2,0.3-0.4,0.3-0.7c0,0,0.2-0.6,0.3-0.7c0.1-0.2,0.3-0.4,0.4-0.6c0.1-0.2,0.2-0.4,0.4-0.5
				c0.2-0.1,0.3-0.3,0.5-0.4c0.2-0.1,0.4-0.2,0.5-0.3c0.2-0.1,0.3-0.3,0.4-0.5c0.3-0.1,0.5-0.3,0.7-0.4c0.1-0.1,0.2-0.1,0.3-0.2
				c0.7-0.3,1.6-0.7,2.2-0.7c0.5,0,1-0.2,1.5-0.4c0.6-0.2,1.1-0.4,1.7-0.3h0.1c0.3-0.2,0.5-0.1,0.8-0.1s0.6,0,0.8,0
				c0.5,0,1,0.1,1.5,0.1c0.2,0,0.4,0.2,0.7,0.1c0.4,0.3,0.8,0.1,1.2,0.2c0.1,0,0.3,0,0.4,0c0.4,0.3,0.9,0.4,1.3,0.5
				c0.1,0,0.2,0.2,0.3,0.3C37,42,37.1,42,37.2,42c0.1,0.2,0.2,0.5,0.3,0.6c0.2,0.2,0.1,0.5,0.4,0.6c0,0.4,0,0.9,0,1.3
				c0,0.1,0,0.3,0,0.4c-0.2,0.2-0.1,0.3-0.1,0.5s0,0.5-0.1,0.7c0,0.2-0.1,0.4-0.1,0.6c0,0.2,0,0.5,0,0.7c-0.2,0.2,0,0.4-0.1,0.6
				c-0.1,0.5-0.5,0.9-0.4,1.5c-0.1,0.1-0.2,0.2-0.3,0.3c0,0.6,0,0.7-0.3,0.8c0,0.3-0.1,0.6-0.1,0.8c-0.1,0.3-0.2,0.5-0.4,0.7
				c0.1,0.4-0.4,0.4-0.5,0.6c0,0.2,0,0.4,0,0.6c-0.3,0.1-0.4,0.3-0.5,0.5c-0.1,0.3-0.3,0.6-0.6,0.8c0,0.1,0,0.2-0.1,0.3
				c-0.3,0.1-0.5,0.6-0.9,0.6c-0.1,0.1-0.2,0.2-0.3,0.3c-0.2,0.1-0.4,0.1-0.6,0.2c-0.2,0-0.4,0-0.5,0c-0.4,0-0.7,0.2-1,0.4
				c-0.1-0.1-0.3-0.2-0.4-0.2s-0.2,0-0.3,0c-0.2-0.2-0.5-0.4-0.9-0.5c-0.3-0.1-0.6-0.3-0.9-0.3c-0.1,0.1-0.2,0.1-0.4,0.2
				c-0.6-0.1-1.2-0.1-1.8-0.2C25.8,55.5,25.2,55.3,24.6,55z"/>
			<path class="st1" d="M28.6,69.9c0-0.2-0.1-0.4-0.1-0.6c0-0.1,0.1-0.1,0.1-0.2c-0.1-0.4-0.3-0.7-0.2-1.1c0-0.2-0.1-0.4-0.1-0.6
				s0-0.5,0-0.8c0.1-0.1,0.1-0.3,0.3-0.6c0-0.1-0.1-0.2-0.1-0.3c0.2-0.3,0.3-0.6,0.4-0.8c-0.2-0.6,0-1.2,0.4-1.8
				c0.1-0.1,0.1-0.3,0.2-0.4c0.1-0.1,0.2-0.2,0.2-0.4c0-0.1,0.1-0.1,0.2-0.2c0.2-0.2,0.4-0.4,0.5-0.7c0.1,0,0.1,0,0.2-0.1
				c0.3-0.4,0.7-0.7,1.1-0.9c0.4-0.2,0.7-0.6,1.1-0.9c0.2,0.1,0.4-0.2,0.6-0.3c0.2,0,0.4-0.3,0.7-0.4c0.2-0.1,0.4-0.2,0.7-0.4
				c0.1,0,0.3,0,0.5-0.1c0.1-0.1,0.1-0.2,0.2-0.2c0.3,0,0.6-0.2,0.9-0.2c0.3,0,0.6,0,0.9,0c0.1,0,0.3,0,0.4,0
				c0.2-0.2,0.5-0.1,0.7-0.1s0.4,0,0.6,0c0.2,0,0.4,0,0.5,0.1s0.3,0.1,0.4,0.2c0.2,0.1,0.5,0.2,0.7,0.4c0.3,0.3,0.6,0.3,1,0.4
				c0.1,0.1,0.3,0,0.4,0.1c0.2,0.1,0.3,0.2,0.3,0.4c0.2,0,0.4,0.1,0.5,0.1c0.1,0.1,0.3,0.2,0.3,0.4c0.2,0.4,0.4,0.9,0.6,1.3
				c0.1,0.1,0.1,0.2,0.1,0.3c0,0.4,0.1,0.7,0.1,1.1c0.1,0.8,0,1.6-0.2,2.4c-0.1,0.2-0.2,0.5-0.3,0.7c0,0.1-0.1,0.1-0.2,0.1v0.1
				c-0.4,0.5-0.8,1.1-1.3,1.6c-0.3,0.3-0.5,0.5-0.7,0.8c-0.1,0.2-0.3,0.3-0.3,0.6c0,0.1-0.1,0.2-0.1,0.2c-0.3,0-0.2,0.4-0.4,0.5
				s-0.3,0.3-0.5,0.5c-0.1,0-0.2,0-0.3,0c0,0.2-0.1,0.3-0.1,0.5c-0.1,0.1-0.3,0.2-0.4,0.3c-0.2,0.1-0.3,0.3-0.5,0.2
				c-0.1,0.4-0.5,0.6-0.8,0.8c0,0-0.1,0-0.2-0.1c-0.2,0.2-0.4,0.4-0.7,0.6c-0.1,0-0.4-0.1-0.5,0.2c-0.2,0-0.4,0-0.6,0
				c0,0-0.1,0.1-0.1,0.2c-0.2,0-0.5-0.1-0.6,0c-0.2,0.1-0.4,0-0.6,0.1c-0.2,0.1-0.4,0.1-0.7,0.2c-0.1,0-0.2,0-0.3,0
				c0,0.1-0.1,0.1-0.2,0.2c-0.1,0-0.1-0.1-0.2-0.1c-0.5,0.3-0.9-0.2-1.4,0c0-0.1,0-0.1-0.1-0.2c-0.1,0-0.3,0.1-0.4,0.1
				C31,73.3,30.9,73,30.7,73c-0.3-0.3-0.4-0.8-0.8-1s-0.5-0.7-0.8-1.1c-0.1-0.1-0.1-0.3-0.2-0.4c-0.2-0.2-0.1-0.3-0.1-0.5
				C28.7,70,28.6,69.9,28.6,69.9z"/>
			<path class="st1" d="M19.5,88.5c-0.2-0.2-0.4,0-0.6-0.1c-0.3-0.1-0.5-0.2-0.6-0.5c0-0.1-0.1-0.2-0.2-0.2
				c-0.3-0.1-0.4-0.4-0.5-0.7c-0.7-0.2-1.1-0.8-1.6-1.3c-0.3,0.2-0.6,0.4-0.9,0.6c-0.3-0.2-0.7-0.3-1-0.5c-0.1-0.2-0.1-0.4-0.2-0.6
				c0.3-0.2,0.1-0.7,0.5-1c0-0.4,0.1-0.7,0.3-1c-0.3-0.6-0.5-1.2-0.7-1.9c-0.1-0.5-0.3-1-0.2-1.5c0.1-0.3,0.1-0.7,0.1-1
				c0.1,0,0.1-0.1,0.2-0.2c0-0.3,0.1-0.6,0.3-0.8c0.1-0.1,0.2-0.2,0.2-0.3c0.1-0.3,0.3-0.5,0.5-0.6c0.4-0.2,0.6-0.7,0.9-1
				c0.2-0.3,0.5-0.4,0.8-0.5c0.1-0.3,0.3-0.4,0.5-0.5c0.4-0.2,0.6-0.4,0.9-0.7c0.4-0.3,0.8-0.5,1.3-0.6c0.4-0.1,0.7-0.2,1.1-0.4
				c0.3-0.1,0.6-0.3,1-0.3c0.1,0,0.2-0.1,0.3-0.1c0.1,0,0.2,0,0.3,0c0.2,0.2,0.4,0,0.5,0.1C22.9,73,23,73,23.2,73
				c0.1,0.1,0.2,0.2,0.3,0.3c0.1,0.1,0,0.3,0.2,0.3c0.1,0,0.2,0.2,0.2,0.3c0,0.1,0,0.2,0.1,0.2c0.1,0.2,0.2,0.3,0.3,0.5
				c0.1,0.1,0.1,0.2,0.2,0.2c0.3,0,0.4,0.2,0.5,0.4c0.1,0,0.1-0.1,0.2-0.1c0.1,0.2,0.4,0.3,0.5,0.5s0.3,0.3,0.5,0.4
				c0.4,0.2,0.7,0.4,0.9,0.9c0.1,0.2,0.3,0.4,0.4,0.6c0,0.1,0,0.3,0,0.4c0.1,0.1,0.2,0.2,0.2,0.2c0,0.3,0.1,0.7-0.1,1
				c0,0.1,0,0.2,0,0.2c0.2,0.4,0.2,0.9,0.6,1.3c0,0.1,0.2,0.6,0.2,0.6c0,0.2,0,0.4,0,0.6c0,0.4,0.1,0.9-0.1,1.3
				c-0.2,0.3-0.3,0.7-0.6,1c-0.1,0.1-0.1,0.2-0.2,0.3c-0.1,0.1-0.3,0.3-0.4,0.4c-0.3,0.6-0.6,1.2-1.3,1.6c-0.2,0.1-0.2,0.3-0.4,0.4
				c-0.1,0-0.2,0.3-0.3,0.4c-0.1,0-0.3,0-0.4,0c-0.5,0.2-0.7,0.3-0.9,0.7c0.2,0,0.2,0,0.5-0.2c0.2,0.3,0.2,0.3,0.1,0.5
				c0,0.1-0.1,0.1-0.1,0.2s-0.1,0.3-0.1,0.5c-0.2,0-0.4,0.4-0.6,0c-0.1,0.1-0.1,0.1-0.2,0.2c-0.1-0.1-0.2-0.2-0.3-0.4
				c-0.2,0-0.4,0.1-0.6,0.1c-0.1,0-0.2-0.1-0.3-0.1c-0.3,0-0.5,0-0.6-0.1s-0.3-0.2-0.4-0.3c-0.1,0-0.6-0.2-0.6-0.2
				c-0.1,0.1-0.2,0-0.3,0C19.9,88.4,19.7,88.4,19.5,88.5z"/>
			<path class="st1" d="M24,58.5c0.3,0,0.7,0,0.9,0.2c0.1,0,0.2,0,0.3,0c0.3,0,0.5,0.2,0.8,0.3c0.1,0.1,0.2,0.1,0.4,0.2
				c0.2,0.2,0.3,0.4,0.4,0.7c0,0.1,0.1,0.1,0.2,0.2c0,0.2,0,0.4,0.2,0.6c0.2,0.3,0.1,0.6,0.1,0.9c0,0.2-0.3,0.3-0.1,0.5
				c0.1,0.2-0.2,0.4,0,0.5c-0.1,0.2-0.1,0.4-0.1,0.6c-0.1,0.5-0.2,0.9-0.4,1.4c-0.1,0.3-0.4,0.5-0.5,0.8c-0.4,0.2-0.5,0.7-0.7,1
				c-0.1,0.1-0.3,0.1-0.4,0.3c-0.1,0.1-0.3,0.2-0.4,0.3c-0.1,0.4-0.4,0.4-0.7,0.5c-0.1,0.1-0.2,0.3-0.2,0.3c-0.4,0-0.4,0.4-0.7,0.6
				v0.1c-0.5,0.4-0.9,0.9-1.4,1.2c-0.6,0.4-1.2,0.6-1.9,0.7c-0.2,0.1-0.5,0.1-0.7,0.1s-0.3,0-0.5,0.1c-0.4,0-0.7-0.1-1-0.3
				c-0.2-0.1-0.3-0.1-0.4-0.1c0-0.4-0.3-0.4-0.5-0.5s-0.4,0-0.7,0c-0.5,0-1-0.1-1.4-0.3c-0.2-0.2-0.5-0.2-0.8-0.3
				c-0.2-0.1-0.3-0.5-0.6-0.5c-0.1-0.3-0.2-0.5-0.5-0.5c-0.1-0.2-0.2-0.3-0.3-0.4c-0.3-0.3-0.5-0.7-0.6-1.2c0-0.1-0.1-0.2-0.1-0.2
				c-0.2-0.3-0.3-0.7-0.1-1.1c0-0.1-0.1-0.1-0.2-0.2c0.1-0.4,0.1-0.9,0.4-1.3v-0.1c0.2-0.3,0.4-0.5,0.7-0.8c0.2-0.3,0.5-0.5,0.8-0.7
				c0.2-0.1,0.4-0.3,0.7-0.5c0,0,0.1,0,0.2,0c0.1-0.1,0.2-0.2,0.2-0.4c0.1-0.1,0.3-0.2,0.3-0.4c0-0.1,0.1-0.2,0.2-0.2
				c0.6-0.2,0.9-0.7,1.4-1.1c0.5-0.5,1.1-0.8,1.8-0.9c0.7-0.1,1.3-0.4,2-0.5C20.4,58,20.7,58,21,58c0.4,0,0.7,0,1,0.1
				c0.2,0.1,0.3,0.2,0.5,0.3c0.1-0.3,0.3-0.6,0.4-1c0.2,0,0.4,0.1,0.6,0.1C23.6,58,23.8,58.3,24,58.5z"/>
			<path class="st1" d="M39,87.4c-0.3,0-0.5,0.1-0.7,0.3C38,88,37.5,88,37.1,88.1c-0.5,0.1-1,0.2-1.5,0.3c-0.2,0-0.3,0.2-0.5,0.1
				c-0.1-0.1-0.4,0-0.5,0c-0.2,0-0.3-0.2-0.5-0.2c-0.2-0.1-0.5-0.2-0.7-0.1c-0.5,0.1-1-0.1-1.5-0.2c-0.1,0-0.1,0-0.2,0
				c-0.2-0.2-0.4-0.4-0.8-0.4c-0.1,0-0.2-0.1-0.2-0.1c0-0.3-0.3-0.3-0.3-0.5s-0.1-0.3-0.2-0.5c0-0.1-0.1-0.1-0.1-0.2
				c0.1-0.4,0-0.8,0-1.1c0-0.2,0.2-0.5,0.2-0.7c0-0.5,0.2-0.9,0.4-1.3c0.1-0.2,0.2-0.4,0.2-0.7c0-0.2,0.1-0.3,0.2-0.5h0.1
				c0.1-0.3,0.1-0.5,0.2-0.8v-0.1c0.4-0.4,0.4-1,0.8-1.4c0.1-0.1,0.1-0.3,0.3-0.6c0.4-0.4,0.6-1.1,1.1-1.6c0.1-0.1,0.2-0.3,0.3-0.4
				c0.2-0.1,0.3-0.3,0.4-0.5c0.1-0.2,0.3-0.3,0.4-0.4c0.1-0.1,0.2-0.3,0.4-0.4c0.1-0.1,0.2-0.2,0.3-0.2c0.6-0.2,1.2-0.4,1.8-0.7
				c0.5,0,1-0.2,1.4-0.4h0.1c0.3,0.1,0.6-0.1,0.9-0.1c0.1,0,0.2,0.1,0.3,0c0,0,0.2,0,0.3,0c0.3,0.1,0.5,0.2,0.8,0.3
				c0.5,0.2,1,0.5,1.4,1.1c0.1,0.2,0.3,0.4,0.4,0.7c0,0,0,0.1,0.1,0.1c0.3,0.2,0.3,0.6,0.3,0.9c0,0.4,0,0.8,0.1,1.1
				c0,0.2,0.1,0.4,0.2,0.6c0.3,0.5,0.3,1.1,0.5,1.6c0,0,0,0.1,0,0.2c-0.1,0.4,0.1,0.9-0.1,1.3c-0.1,0.2-0.1,0.4-0.2,0.5
				c-0.1,0.1-0.1,0.4-0.3,0.4c-0.1,0.5-0.6,0.8-0.9,1.2c-0.1,0.1-0.2,0.2-0.2,0.4c0,0.1-0.2,0.2-0.3,0.3c-0.1,0.1-0.2,0.2-0.3,0.3
				c-0.1,0.2-0.4,0.3-0.6,0.5c-0.2,0.1-0.3,0.1-0.5,0.3c-0.1,0.1-0.3,0.3-0.5,0.4s-0.3,0.3-0.5,0.5C39.3,86.9,39.2,87.2,39,87.4z"/>
			<path class="st1" d="M8.9,45.6c0.3,0,0.5-0.1,0.7-0.3c0.3-0.3,0.7-0.4,1.2-0.5s1-0.2,1.5-0.3c0.2,0,0.3-0.2,0.5-0.1
				c0.1,0.1,0.4,0,0.5,0c0.2,0,0.3,0.2,0.5,0.2c0.2,0.1,0.5,0.1,0.7,0.1c0.5-0.1,1,0.1,1.5,0.2c0.1,0,0.1,0,0.2,0
				c0.2,0.1,0.4,0.4,0.8,0.4c0.1,0,0.2,0.1,0.2,0.1c0,0.3,0.3,0.3,0.3,0.5s0.2,0.3,0.2,0.5c0,0.1,0.1,0.1,0.1,0.2
				c-0.1,0.4,0.1,0.8,0.1,1.1c0,0.2-0.1,0.5-0.1,0.7c0,0.5-0.2,0.9-0.3,1.3c-0.1,0.2-0.2,0.4-0.2,0.7c0,0.2-0.1,0.3-0.2,0.5
				c0,0-0.1,0-0.1,0.1c-0.1,0.3-0.1,0.5-0.2,0.8v0.1c-0.4,0.4-0.4,1-0.8,1.4c-0.1,0.1-0.1,0.3-0.2,0.6c-0.4,0.4-0.6,1.1-1.1,1.6
				c-0.1,0.1-0.2,0.3-0.3,0.4c-0.2,0.1-0.3,0.3-0.4,0.5c-0.1,0.2-0.3,0.3-0.4,0.4c-0.1,0.1-0.2,0.3-0.4,0.4
				c-0.1,0.1-0.2,0.2-0.3,0.2c-0.6,0.3-1.2,0.4-1.8,0.8c-0.5,0.1-0.9,0.3-1.4,0.5H9.6c-0.3-0.1-0.6,0.1-0.9,0.1
				c-0.1,0-0.2-0.1-0.3,0c0,0-0.2,0-0.3,0c-0.3-0.1-0.5-0.2-0.8-0.3c-0.5-0.2-1-0.5-1.4-1c-0.2-0.2-0.3-0.4-0.4-0.7
				c0,0,0-0.1-0.1-0.1c-0.3-0.2-0.4-0.6-0.3-0.9c0-0.4,0-0.8-0.1-1.1c0-0.2-0.1-0.4-0.2-0.6c-0.3-0.5-0.3-1.1-0.6-1.6
				c0,0,0-0.1,0-0.2c0.1-0.4-0.1-0.9,0.1-1.3c0.1-0.2,0.1-0.4,0.2-0.5s0.1-0.4,0.3-0.4c0.1-0.5,0.6-0.8,0.8-1.3
				c0.1-0.1,0.2-0.2,0.2-0.4c0-0.1,0.2-0.2,0.3-0.3c0.1-0.1,0.2-0.2,0.3-0.4c0.1-0.2,0.4-0.3,0.6-0.5c0.2-0.1,0.3-0.1,0.5-0.3
				c0.1-0.1,0.3-0.3,0.4-0.4c0.2-0.1,0.3-0.3,0.5-0.5C8.6,46.1,8.7,45.8,8.9,45.6z"/>
			<path class="st1" d="M56,75.6c-0.6,0-1.2,0.2-1.8,0.2c-0.5,0.2-0.9,0.1-1.4,0.1c-0.3,0-0.7-0.1-1-0.1c-0.2-0.3-0.5-0.3-0.8-0.4
				s-0.5-0.1-0.8-0.3C50.1,75,50,75,49.9,75c-0.2,0-0.3-0.1-0.3-0.2c-0.1-0.2-0.2-0.2-0.3-0.3c-0.1-0.2-0.3-0.1-0.4-0.2
				c-0.1-0.1-0.2-0.2-0.4-0.3c-0.2-0.1-0.4-0.2-0.5-0.4c-0.3-0.1-0.5-0.3-0.7-0.4c-0.1,0-0.1-0.1-0.2-0.1c-0.2,0-0.4-0.1-0.5-0.3
				c-0.1-0.1-0.2-0.2-0.3-0.2c0,0,0,0-0.1,0c-0.1-0.1-0.3-0.2-0.3-0.3c0-0.4-0.5-0.6-0.3-1l0.1-0.1c0-0.2-0.1-0.5-0.1-0.6
				c0.1-0.2-0.1-0.4,0-0.6s0.1-0.4,0.2-0.6c0.1-0.2,0.2-0.4,0.3-0.6s0.1-0.4,0.4-0.4c0.2-0.9,0.9-1.5,1.5-2.1h0.2c0,0,0.1,0,0.1-0.1
				c0.2-0.2,0.4-0.4,0.7-0.6c0.1,0,0.2-0.2,0.2-0.3c0.2-0.4,0.2-0.4,0.8-0.7c0.1,0,0.2-0.2,0.3-0.3c0.2-0.1,0.4-0.2,0.6-0.4
				c0.4-0.4,0.8-0.8,1.3-1.1c0.1-0.2,0.3-0.1,0.5-0.2c0.1-0.1,0.2-0.3,0.3-0.4c0.4-0.3,0.8-0.6,1.3-0.8c0.1,0,0.1-0.1,0.2-0.2
				c0.2,0,0.3,0,0.5,0c0.1-0.1,0.2-0.2,0.2-0.2c0.2,0,0.3-0.1,0.4,0.1C55.7,61,55.9,61,56,61c0.2,0,0.6,0.2,0.8,0.4
				c0.1,0.1,0.3,0.1,0.4,0.2c0.2,0.6,0.3,1.3,0.3,1.9c0,0.2,0.1,0.3,0.1,0.6c0.1,0.1,0.2,0.2,0.3,0.2c0,0.1,0,0.2,0,0.2
				c0.3,0.3,0.2,0.8,0.4,1.2c0.1,0.2,0.2,0.4,0.3,0.5c0,0.6,0.2,1,0.5,1.5c0,0,0,0-0.1,0.1c0.1,0.4,0.3,0.8,0.1,1.3
				c-0.1,0.2,0,0.6,0,0.9s-0.1,0.6,0.1,0.9c0,0.1,0,0.2,0,0.3l-0.1,0.1c0.1,0.4-0.2,0.8-0.1,1.2c-0.1,0.1-0.1,0.1-0.2,0.2
				c0,0.7-0.4,1.1-0.9,1.5c0,0.1,0,0.2,0,0.4c0,0-0.1,0-0.1,0.1c-0.1,0.1-0.3,0.2-0.4,0.3c-0.1,0.2-0.4,0.3-0.6,0.4
				C56.5,75.4,56.3,75.5,56,75.6z"/>
			<path class="st1" d="M43.1,45.7c-0.2-0.1-0.3-0.1-0.5-0.2c0.2-0.5,0.7-0.7,1-1c0.3,0.1,0.6,0,0.8-0.3c0.2,0,0.4,0.1,0.6-0.1
				c0.3-0.2,0.6-0.4,1-0.5c0.2,0,0.3-0.1,0.5-0.2c0.2,0,0.5,0,0.8,0c0.2,0.3,0.5,0.1,0.8,0.2c0.2,0.1,0.5,0.2,0.8,0.2
				c0.1,0,0.2,0.1,0.3,0.1c0.2,0.1,0.5,0.3,0.7,0.3c0.1,0,0.1,0,0.1,0.1c0.3,0.3,0.7,0.5,1,0.9c0.1,0.1,0.2,0.1,0.4,0.2
				c0.1,0.2,0.2,0.4,0.3,0.6c0.4,0.5,0.5,1.2,0.6,1.8c0.1,0.3,0,0.6,0,0.9c0,0.4,0,0.7-0.1,1s-0.1,0.6-0.2,1c0,0.2-0.1,0.3-0.1,0.5
				c0,0.1,0,0.2,0,0.3c-0.3,0.6-0.6,1.2-0.9,1.9c-0.1,0.3-0.2,0.5-0.5,0.7c-0.1,0-0.1,0.1-0.1,0.2c0,0.2-0.1,0.3-0.2,0.5
				c-0.1,0.3-0.4,0.5-0.4,0.8c0,0-0.1,0.1-0.2,0.1c-0.2,0.2-0.4,0.5-0.6,0.8c-0.1,0.2-0.3,0.3-0.4,0.5c-0.1,0.1-0.2,0.2-0.3,0.4
				c-0.3,0.1-0.7,0.2-1.1,0.4c-0.3,0-0.6,0-1,0.1c-0.7,0-1.4-0.3-2.1-0.6c0,0-0.1-0.1-0.1-0.2c-0.1,0-0.3-0.1-0.4-0.2
				c0-0.1-0.1-0.2-0.1-0.3c-0.3-0.1-0.4-0.4-0.6-0.7c-0.3-0.5-0.4-1-0.6-1.5c0-0.1-0.1-0.2-0.2-0.3c0-0.2,0-0.4,0.1-0.5
				c0-0.1,0-0.1,0-0.2c-0.4-0.3-0.1-0.7-0.1-1.2C42,52,42,51.7,42,51.3c0-0.2,0.1-0.5-0.1-0.7c0-0.1,0-0.2,0-0.3
				c0-0.4,0.2-0.7,0-1.1c0.1-0.2,0-0.4,0.1-0.6c0.1-0.1,0.1-0.2,0.2-0.4c0-0.4,0.1-0.7,0.3-1.1C42.9,46.6,42.9,46.1,43.1,45.7z"/>
			<path class="st0" d="M23.5,35.8l-0.2-0.1c-0.3,0.2-0.6,0.1-0.9,0.1c-0.5,0.3-0.5,0.3-0.9,0.3c-0.1,0.1-0.2,0.2-0.4,0.3
				c-0.3-0.2-0.6-0.2-1-0.1c-0.3,0-0.4-0.3-0.7-0.1c-0.3,0.1-0.5,0-0.8,0s-0.5,0-0.8,0s-0.4-0.3-0.7-0.3c-0.1-0.1-0.1-0.3-0.3-0.4
				c-0.4,0.4-0.9-0.1-1.4,0l-0.2,0.2c-0.3,0-0.5,0-0.7,0c-0.3,0.1-0.5,0.2-0.8,0.4c-0.4,0-0.9,0-1.4,0l-0.1,0.1
				c-0.2,0-0.3-0.3-0.5-0.3c0.3-0.6-0.3-0.9-0.4-1.4c0.3-0.2-0.3-0.5,0-0.8c-0.4-0.2-0.5-0.4-0.7-1.1c-0.2-0.5-0.2-0.9,0-1.3
				c-0.2-0.2-0.1-0.5-0.1-0.8s0-0.6,0-0.9s0-0.6,0-0.9l0.1-0.3l-0.3-0.3c0.1-0.3,0.2-0.7,0-1c-0.1-0.4,0.1-0.8,0.2-1.2l0.1-0.4
				L10.4,25l0.1-0.5c0-0.3-0.3-0.6-0.1-1c0.2-0.2,0.4-0.5,0.8-0.6c0.5,0.2,1,0.6,1.7,0.6c0.2,0.4,0.8,0.5,1,1.1
				c0.4-0.1,0.7,0.1,1,0.3c0.3,0.2,0.6,0.5,1.1,0.5l0.2,0.2c0.2,0,0.4,0,0.5,0c0.4,0.2,0.8,0.3,1.2,0.4c0.3,0.1,0.7,0.2,1,0.5
				l0.2-0.1c0.3,0.2,0.6,0.1,0.9,0.2s0.6,0.1,1,0.1c0.2,0.3,0.5,0.4,0.9,0.5c0.5,0.1,0.9,0.4,1.2,0.7c0.4,0.1,0.8,0.2,1.1,0.4
				c0.2,0,0.5,0,0.8,0c0.3-0.3,0.4-0.7,0.7-1c-0.1-0.6,0.3-1.1,0.6-1.5l0.2-0.2c0.2-0.8,0.8-1.4,1.2-2L28,23c0-0.3,0.2-0.4,0.4-0.6
				c0.2-0.2,0.4-0.6,0.6-0.9c0.2-0.4,0.5-0.7,0.8-1.1l0.3-0.1c-0.1-0.5,0.1-0.7,1.2-1.2c0.2,0.2,0.4,0.4,0.6,0.6c0.2,0,0.4,0,0.5,0
				l0.2,0.2c0.1,0.3-0.2,0.4-0.1,0.7c0.4,0.2,0.5,0.4,0.3,0.9l0.1,0.5c-0.3,0-0.3,0.3-0.4,0.4c0.2,0,0.3,0.2,0.5,0.2
				c0,0.4-0.1,0.8,0.2,1.2c0.3,0.4,0.6,0.6,1,0.8c0,0.4-0.2,0.8-0.3,1.1L34,26l-0.1,0.3h0.4c0.3-0.3,0.6-0.3,0.9-0.4
				c0.3-0.6,0.9-0.8,1.3-1.3h0.3c0.1-0.3,0.4-0.4,0.6-0.5c0.3-0.1,0.5-0.3,0.7-0.5s0.4-0.3,0.6-0.5c0.2-0.3,0.5-0.6,0.9-0.8V22
				c0.4-0.1,0.6-0.3,0.9-0.6c0.2-0.2,0.4-0.4,0.8-0.6c0.3-0.1,0.5-0.4,0.7-0.7l0.4-0.3c0.2-0.1,0.4-0.3,0.6-0.5
				c0.2-0.3,0.7-0.4,1-0.6l0.2-0.3h0.3l0.2-0.3c0.1-0.4,0.4-0.5,0.7-0.5l0.4-0.3H46c0.3,0.2,0.5,0.6,0.8,0.7
				c0.1,0.2,0.2,0.4,0.3,0.6c0.1,0.3-0.1,0.6-0.2,1c-0.1,0.4-0.3,0.7-0.4,1.1v0.4c0,0.6,0,1.2-0.2,1.7v0.1c0.1,0.2,0,0.4,0,0.7
				c-0.1,0.5-0.1,0.9,0,1.4h-0.2c-0.3,0.1,0.2,0.3,0,0.5V26L46,26.7h-0.5c-0.1-0.2,0.2-0.4,0.1-0.6c-0.5,0.5,0.3,1.1,0,1.5
				c0.2-0.2,0.4,0.1,0.5,0.3c0.1,0.4-0.3,0.6-0.1,0.9l0.1,0.2c0,0.3,0,0.6,0,0.9c-0.1,0.2-0.2,0.4-0.3,0.6h-0.3c0,0.3,0,0.6,0,0.9
				c-0.5,0.4-1.1,0.6-1.8,0.7c-1.7,0.4-3.4,0.7-5.1,1.1c-0.8,0.2-1.6,0.5-2.4,0.4c-0.4,0-0.6,0.2-0.8,0.4c-0.3,0-0.6,0-0.9,0
				c-1.2,0.1-2.5,0.3-3.7,0.5c-1.2,0.1-2.3,0.5-3.6,0.4c-0.6-0.1-1.1,0.2-1.7,0.4C24.7,35.5,24.1,35.7,23.5,35.8z"/>
			<path class="st1" d="M7.3,82.5c-0.3,0.1-0.6-0.1-0.9,0.1c-0.4-0.1-0.8-0.1-1-0.4C5.3,82,5.1,81.8,5,81.7
				c-0.2-0.1-0.4-0.2-0.6-0.3c-0.3-0.3-0.7-0.4-0.8-0.8c-0.1-0.3-0.3-0.5-0.5-0.7s-0.2-0.4-0.2-0.7C2.6,79,2.6,79,2.5,78.7
				c-0.4-0.4-0.9-0.6-1-1.2c0-0.3-0.3-0.5-0.3-0.7c-0.2-0.1,0-0.3-0.1-0.5c-0.1-0.1,0-0.4,0-0.6c0-0.3,0-0.5,0-0.8
				c0.1-0.2,0.2-0.3,0.2-0.4c0-0.2,0.1-0.4,0.2-0.6l0.1-0.1c0-0.3,0.2-0.5,0.4-0.8c0.1-0.1,0.1-0.1,0.1-0.2C2.4,72.4,2.6,72.1,3,72
				c0.2,0,0.3-0.2,0.4-0.3c0.3-0.3,0.7-0.3,0.9-0.7c0.2-0.1,0.5-0.1,0.6-0.2c0.2-0.2,0.4-0.2,0.7-0.3c0.1,0,0.1,0,0.2-0.1
				c0.2-0.2,0.6-0.2,0.8-0.3C6.7,70,7,70.2,7.1,70c0.2,0.3,0.5-0.1,0.7,0c0.2-0.2,0.5,0,0.6-0.1c0.2-0.1,0.4,0,0.6-0.1
				c0.1,0.1,0.1,0.1,0.2,0.2h0.1c0.1-0.1,0.2-0.1,0.3,0c0.5,0.3,0.9,0.7,1.4,1c0.2,0.4,0.7,0.6,1,1.1c0,0.1,0.1,0.4,0.1,0.6
				c0.1,0.1,0.1,0.2,0.2,0.4c0,0.2,0.1,0.3,0.2,0.4c0.1,0.1,0.2,0.2,0.3,0.4c0,0.3,0.1,0.6-0.1,1l0.1,0.1c-0.1,0.1-0.2,0.1-0.3,0.2
				c0.2,0.2,0.1,0.4,0.1,0.6c-0.2,0.2-0.4,0.5-0.6,0.7c0,0,0,0.1,0,0.2c-0.2,0.2-0.1,0.5-0.3,0.7s-0.1,0.5-0.2,0.7
				c-0.2,0.6-0.5,1.1-0.7,1.6c0,0.1-0.2,0.2-0.2,0.3c0,0,0,0.1-0.1,0.3c0.3-0.2,0.4-0.3,0.6-0.4c0.1,0.1,0.2,0.2,0.4,0.4
				c-0.1,0.2-0.2,0.4-0.3,0.6c0,0,0,0.1,0.1,0.1c-0.1,0.3-0.4,0.2-0.6,0.4c-0.2,0-0.4,0-0.6,0.1c-0.2,0.1-0.4-0.1-0.6,0.1
				C9,81.4,8.6,81.8,8.2,82C7.9,82.2,7.6,82.3,7.3,82.5z"/>
		</g>
		<g>
			<path class="st1" d="M104.5,89.4c0.1,0,0.1,0,0.2,0c0.1-0.1,0.1-0.1,0.2-0.2c0.2-0.2,0.4-0.4,0.6-0.6c0.2-0.3,0.5-0.5,0.7-0.7
				c0.2-0.1,0.4-0.2,0.6-0.4c0.2-0.2,0.4-0.2,0.6-0.3c0.2-0.2,0.4-0.2,0.6-0.4c0.1-0.1,0.2-0.1,0.3,0c0.1-0.1,0.1-0.2,0.2-0.3
				c0.9-0.3,1.9-0.2,2.8-0.4c0.1,0.1,0.1,0.1,0.4,0.1c0.1,0.1,0.3,0.2,0.4,0.3c0.2,0.1,0.3,0.1,0.5,0.2c0,0.1,0.1,0.2,0.1,0.4
				c0.4,0.1,0.3,0.7,0.6,0.9c0,0.1,0,0.2,0,0.3c0.3,0.2,0.3,0.5,0.3,0.8c0.1,0.2,0,0.4,0.1,0.6c0,0.1-0.1,0.2,0,0.3
				c0.1,0.1,0,0.2,0,0.3c0,0.1,0.1,0.2-0.1,0.3c0.1,0.1-0.1,0.2,0.1,0.3c-0.1,0.1-0.2,0.3-0.2,0.5c0,0.3-0.1,0.5-0.1,0.7
				c-0.1,0.2-0.1,0.4-0.1,0.5c0,0.3-0.1,0.5-0.2,0.7c-0.2,0.4-0.3,0.8-0.5,1.2c-0.1,0.1-0.1,0.3-0.2,0.4s-0.1,0.3-0.2,0.5
				s-0.4,0.6-0.5,0.8c-0.1,0.1-0.1,0.2-0.1,0.3c0,0.2-0.1,0.3-0.3,0.5c0,0.1,0,0.2,0,0.2c0.1,0.1,0.2,0.1,0.2,0.2
				c0.1,0.1,0.1,0.2,0.1,0.2c0.1,0.1,0.2,0.1,0.2,0.1c0,0.1,0,0.2,0,0.3c-0.2,0.1-0.4,0.2-0.6,0.2c-0.2-0.2-0.4,0-0.6,0.1
				s-0.3,0.2-0.5,0.3c0,0-0.1,0-0.2,0c-0.2,0.2-0.4,0.4-0.6,0.5s-0.4,0.3-0.7,0.3c-0.2,0-0.5,0.1-0.8,0.1c0,0,0-0.1-0.1-0.1
				c-0.2,0-0.4-0.1-0.6-0.1l-0.1-0.1c-0.2-0.2-0.5-0.3-0.7-0.5c-0.4-0.3-0.7-0.7-1.1-0.9c-0.1-0.1-0.2-0.3-0.3-0.3
				c-0.3-0.2-0.5-0.4-0.7-0.7c0,0-0.1-0.1-0.1-0.2c-0.1-0.2-0.2-0.3-0.3-0.4c-0.2-0.1-0.3-0.3-0.3-0.5c0-0.1-0.1-0.2-0.2-0.3
				c-0.1-0.2-0.2-0.5-0.2-0.8c0-0.2-0.1-0.5-0.2-0.8c-0.1-0.1-0.1-0.3-0.2-0.4c0-0.4-0.2-0.7-0.1-1.1c0-0.2,0.1-0.4,0.2-0.5
				s0.1-0.3,0.2-0.4s0.2-0.3,0.2-0.5c0-0.1,0.1-0.2,0.1-0.2c0.3-0.4,0.5-0.8,0.9-1.1C104.5,89.5,104.5,89.4,104.5,89.4z"/>
			<path class="st1" d="M101.2,66.2c-0.7,0.1-1.4,0.1-2,0.1c-0.1-0.1-0.2-0.2-0.3-0.2c-0.1,0-0.2,0-0.3,0c-0.1-0.1-0.2-0.2-0.3-0.4
				c-0.2-0.1-0.6-0.2-0.8-0.4c-0.2-0.2-0.6-0.2-0.8-0.5c-0.1,0-0.2,0-0.3,0c-0.3-0.3-0.5-0.6-0.8-1c-0.3-0.3-0.5-0.6-0.8-1
				c-0.1-0.2-0.2-0.4-0.3-0.6c0-0.2,0-0.4-0.1-0.5c-0.2-0.3-0.2-0.7-0.4-1c-0.1-0.1,0-0.4-0.1-0.5c0.1-0.2-0.1-0.5-0.1-0.7
				c0-0.4-0.1-0.7,0-1.1c0.1-0.4,0-0.8,0.2-1.2c0.2-0.3,0.3-0.7,0.4-1.1c0.2-0.5,0.4-0.9,0.7-1.3c0-0.2,0.2-0.1,0.3-0.2
				c0-0.1,0.1-0.3,0.2-0.3c0.3,0,0.2-0.3,0.3-0.4c0.1,0,0.1,0,0.2-0.1c0.4-0.4,0.9-0.7,1.4-1.1c0.2-0.1,0.3-0.1,0.5-0.2
				c0.5-0.3,0.9-0.7,1.4-0.9c0.3-0.1,0.6-0.1,0.7-0.4h0.1c0.2,0,0.4-0.1,0.5-0.2c0.2-0.2,0.5-0.2,0.8-0.3c0.2,0,0.3,0,0.5-0.1
				c0.1-0.1,0.3,0,0.5,0.1c0.3,0.1,0.6,0.2,0.9,0.3c0.1,0.1,0.2,0.2,0.4,0.4c0.5,0,0.7,0.4,0.9,0.6c0.2,0.3,0.4,0.6,0.4,0.8
				c0.1,0.3,0.3,0.4,0.5,0.6c0,0.3,0,0.6,0.1,0.9c0,0.3,0.1,0.5,0.2,0.8c0.1,0.1,0.1,0.3,0.1,0.4c0,1.1,0,2.1,0,3.2
				c0,0.3-0.1,0.5-0.2,0.7c0,0.1-0.1,0.2-0.1,0.2c0.1,0.5-0.1,1-0.2,1.4c-0.1,0.3-0.3,0.6-0.5,0.9c-0.1,0.1-0.2,0.3-0.3,0.4
				c-0.1,0.1-0.2,0.2-0.3,0.3c-0.1,0.1-0.1,0.3-0.2,0.4c-0.1,0.1-0.2,0.2-0.3,0.3c-0.2,0.3-0.5,0.5-0.7,0.8
				c-0.1,0.1-0.2,0.2-0.3,0.3c-0.2,0.1-0.4,0.3-0.5,0.4c-0.1,0.2-0.2,0.2-0.3,0.3C101.9,65.7,101.5,65.9,101.2,66.2z"/>
			<path class="st1" d="M78.2,59.7c0.2-0.2,0.3-0.4,0.3-0.6c0.1-0.4,0.3-0.7,0.6-1c0.3-0.4,0.6-0.8,0.9-1.1c0.1-0.1,0.1-0.3,0.3-0.4
				c0.1,0,0.3-0.2,0.4-0.3s0.3-0.1,0.5-0.1c0.2-0.1,0.4-0.2,0.6-0.3c0.4-0.4,0.8-0.5,1.2-0.7l0.1-0.1c0.3,0,0.6,0.1,0.8-0.2
				c0.1,0,0.2-0.1,0.2,0c0.1,0.2,0.4,0,0.5,0.2c0.1,0.1,0.3,0.2,0.5,0.2c0.1,0,0.1,0.1,0.2,0.1c0.2,0.3,0.5,0.5,0.7,0.8
				c0.1,0.2,0.2,0.4,0.3,0.6c0.3,0.3,0.4,0.8,0.5,1.2c0.1,0.2,0.1,0.4,0.3,0.6c0.1,0.1,0.1,0.3,0.2,0.5l-0.1,0.1
				c0.1,0.2,0.2,0.5,0.3,0.7l0.1,0.1c-0.1,0.5,0.3,1,0.2,1.5c0,0.2,0.1,0.3,0.2,0.6c0,0.5,0.2,1.2,0.1,1.8c0,0.2,0.1,0.3,0,0.5
				s0,0.4,0,0.6S88,65.4,88,65.5c0,0.2,0,0.4,0,0.5s0,0.2-0.1,0.3c-0.3,0.5-0.7,1-0.9,1.6c-0.3,0.3-0.6,0.7-0.8,1.2
				c0,0,0,0.1-0.1,0.1c-0.3,0.1-0.3,0.5-0.6,0.6c-0.1,0.1-0.2,0.1-0.2,0.2s-0.1,0.1-0.2,0.1c-0.2,0.1-0.5,0.2-0.7,0.3
				c-0.5,0.2-1,0.3-1.7,0.1c-0.2-0.1-0.5-0.1-0.7-0.3h-0.1c-0.3,0-0.6-0.2-0.8-0.5c-0.2-0.3-0.5-0.5-0.7-0.8
				c-0.1-0.1-0.4-0.3-0.5-0.3c-0.5-0.2-0.9-0.6-1.3-0.9l-0.1-0.1c-0.2-0.4-0.6-0.6-0.7-1c0-0.2-0.2-0.3-0.2-0.5s-0.2-0.3,0-0.5
				c-0.2-0.5-0.1-1-0.1-1.4c0-0.1,0-0.3-0.1-0.4c-0.1-0.1,0-0.3,0.1-0.4c0-0.1,0-0.3,0-0.4c0-0.2,0.1-0.5,0.1-0.7
				c0.1-0.2,0.2-0.3,0.2-0.5s0.1-0.4,0.1-0.5c0.1-0.2,0-0.4,0.1-0.6C78.2,60.3,78.2,60,78.2,59.7z"/>
			<path class="st1" d="M83.3,85.4c-0.6,0-1.2,0.2-1.7,0.2c-0.4,0.2-0.9,0.1-1.3,0.1c-0.3,0-0.6-0.1-1-0.1c-0.2-0.3-0.5-0.3-0.8-0.4
				C78.2,85,78,85,77.8,84.8c-0.1-0.1-0.2-0.1-0.3-0.1c-0.2,0-0.3-0.1-0.3-0.2c-0.1-0.1-0.2-0.2-0.3-0.3c-0.1-0.2-0.3-0.1-0.4-0.2
				s-0.2-0.2-0.4-0.3c-0.2-0.1-0.4-0.2-0.5-0.4c-0.3-0.1-0.5-0.2-0.7-0.4c-0.1,0-0.1-0.1-0.2-0.1c-0.2,0-0.3-0.1-0.5-0.3
				c-0.1-0.1-0.2-0.2-0.3-0.2c0,0,0,0-0.1,0c-0.1-0.1-0.3-0.2-0.3-0.3c0-0.3-0.5-0.5-0.3-0.9l0.1-0.1c0-0.2-0.1-0.5-0.1-0.6
				c0.1-0.2-0.1-0.4,0-0.6s0.1-0.4,0.2-0.6s0.2-0.4,0.3-0.6c0.1-0.2,0.1-0.4,0.4-0.4c0.2-0.8,0.8-1.4,1.4-2c0,0,0.1,0,0.2,0
				c0,0,0.1,0,0.1-0.1c0.2-0.2,0.4-0.4,0.6-0.5c0.1,0,0.2-0.2,0.2-0.3c0.2-0.4,0.2-0.4,0.8-0.6c0.1,0,0.2-0.2,0.3-0.3
				c0.2-0.1,0.4-0.2,0.5-0.4c0.4-0.4,0.7-0.8,1.2-1c0.1-0.2,0.3-0.1,0.4-0.2s0.2-0.3,0.3-0.3c0.4-0.3,0.8-0.6,1.2-0.8
				c0.1,0,0.1-0.1,0.2-0.2c0.2,0,0.3,0,0.5,0c0.1-0.1,0.1-0.1,0.2-0.2c0.1,0,0.3-0.1,0.4,0.1c0.1-0.1,0.2-0.1,0.4-0.1
				c0.1,0,0.6,0.2,0.8,0.4c0.1,0.1,0.3,0.1,0.4,0.2c0.2,0.6,0.3,1.2,0.2,1.8c0,0.2,0.1,0.3,0.1,0.5c0.1,0.1,0.2,0.2,0.3,0.2
				c0,0.1,0,0.2,0,0.2c0.3,0.3,0.2,0.8,0.4,1.1c0.1,0.2,0.2,0.4,0.3,0.5c0,0.5,0.2,1,0.4,1.4c0,0,0,0-0.1,0.1c0,0.4,0.3,0.8,0.1,1.2
				c-0.1,0.2,0,0.6,0,0.8c0,0.3-0.1,0.6,0.1,0.8c0,0.1,0,0.2,0,0.2l-0.1,0.1c0.1,0.4-0.2,0.7-0.1,1.1c-0.1,0.1-0.1,0.1-0.2,0.2
				c0,0.6-0.4,1.1-0.9,1.5c0,0.1,0,0.2,0,0.3c0,0-0.1,0-0.1,0.1c-0.1,0.1-0.3,0.2-0.4,0.3c-0.1,0.2-0.4,0.2-0.6,0.3
				C83.8,85.2,83.6,85.3,83.3,85.4z"/>
			<path class="st1" d="M111.4,58.8c0.1-0.1,0.1-0.1,0.2-0.2c0-0.2,0-0.4,0.2-0.6c0.1-0.2,0.2-0.4,0.3-0.6c0.1-0.2,0.2-0.4,0.5-0.4
				c0.1,0,0.2-0.1,0.2-0.2c0.7,0,1-0.5,1.5-0.8c0.1,0,0.3,0,0.4-0.2c0.2-0.3,0.5-0.3,0.7-0.5c0.2-0.1,0.4-0.2,0.7-0.3
				c0.3-0.1,0.6-0.1,1-0.1s0.8,0.1,1.2,0.2c0.1,0,0.2,0.2,0.3,0.3c0.4,0.1,0.4,0.1,0.6,0.5c0.4,0.2,0.8,0.4,0.7,0.9
				c0.3,0.1,0.3,0.5,0.5,0.7s0.3,0.5,0.4,0.7c0,0.3,0.1,0.6,0.1,0.9c0,0.3,0,0.6,0,0.9c0.1,0.1,0.1,0.1,0.2,0.2
				c0,0.4,0.2,0.9,0.1,1.3c-0.1,0.6-0.1,1.1-0.1,1.7c0,0.2-0.1,0.5-0.3,0.7c0,0.4,0,0.7,0,1c-0.3,0.6-0.6,1.1-0.7,1.7
				c-0.1,0.3-0.2,0.5-0.4,0.7c-0.2,0.2-0.3,0.5-0.5,0.7c-0.1,0.2-0.2,0.4-0.5,0.5c-0.1,0.1-0.3,0.2-0.4,0.3c-0.1,0.2-0.4,0-0.4,0.2
				c-0.1,0-0.2-0.1-0.3-0.1c-0.2,0-0.4,0-0.6,0c-0.4,0.1-0.8-0.1-1.2-0.3c-0.2-0.1-0.4-0.3-0.7-0.5H115c-0.4,0.2-0.7,0.4-1,0.6
				c-0.3,0-0.7,0-1,0c-0.2,0-0.5,0-0.6-0.1c-0.2-0.1-0.3,0-0.6-0.1c-0.3-0.2-0.6-0.6-1-0.9c-0.1-0.3-0.4-0.6-0.3-1
				c-0.1,0-0.1,0-0.2,0c-0.1-0.4-0.1-0.7-0.3-1.1c-0.1-0.1,0-0.3,0.1-0.4c-0.1-0.2-0.2-0.5-0.1-0.8c0-0.1,0.1-0.3,0-0.4
				c-0.2-1-0.2-0.8,0.1-1.8L110,62c0.2-0.6,0.5-1.1,0.5-1.7C111,59.8,111.5,59.4,111.4,58.8z"/>
			<path class="st1" d="M110.8,83c-0.2,0-0.3,0-0.5,0c-0.1,0-0.3,0.1-0.4,0c-0.2-0.2-0.3,0.1-0.5,0c-0.1-0.1-0.3-0.1-0.4-0.1
				c-0.2,0-0.3,0-0.4,0c-0.6-0.3-1.2-0.5-1.7-0.7c-0.3-0.3-0.6-0.5-0.8-0.7c-0.2-0.3-0.4-0.5-0.6-0.7c-0.3-0.2-0.3-0.6-0.7-0.7
				c0-0.5-0.1-0.8-0.3-1.2c-0.1-0.3-0.2-0.6-0.2-1c0-0.3-0.1-0.6-0.1-1c0-0.1,0-0.3,0.1-0.4c0.1-0.4,0.2-0.7,0.2-1.1
				c0-0.2,0.1-0.3,0.1-0.4c0.2-0.5,0.4-1,0.5-1.5c0.2-0.2,0.3-0.6,0.7-0.7c0.2,0,0.3-0.2,0.4-0.3c0.1-0.1,0.3-0.2,0.4-0.3
				c0.1-0.1,0.2-0.3,0.4-0.3c0-0.3,0.3-0.3,0.4-0.4s0.3-0.2,0.4-0.3c0.6-0.3,1.1-0.7,1.8-0.8c0.1,0,0.1,0,0.2-0.1
				c0.3-0.3,0.7-0.3,1-0.3c0.4,0,0.7,0,1.1,0c0.2,0,0.4,0.1,0.5-0.1c0,0,0.1,0,0.2,0c0.4,0.2,0.8,0,1.3,0.1c0.4,0.1,0.6,0.7,1.1,0.6
				c0.5,0.2,0.4,0.8,0.8,1.1c-0.1,0.4,0.2,0.7,0.2,1.1c0,0.1,0.1,0.1,0.1,0.2c0.1,0.4,0.1,0.9,0.1,1.3c-0.1,0.1-0.2,0.2-0.4,0.2
				c0.1,0.2,0.2,0.4,0.3,0.6c-0.1,0.1-0.1,0.3-0.2,0.5c0.1,0.5-0.4,0.8-0.4,1.3c-0.1,0.1-0.3,0.2-0.3,0.2c0,0.4-0.3,0.6-0.5,0.9
				c-0.1,0.3-0.4,0.6-0.6,0.9s-0.4,0.5-0.5,0.8s-0.3,0.5-0.6,0.8c-0.4,0.4-0.7,0.8-1,1.2C111.8,82.2,111.4,82.8,110.8,83z"/>
			<path class="st1" d="M95.4,84c-0.3,0.1-0.6-0.1-0.9,0.1c-0.4-0.1-0.8-0.1-1.1-0.4c-0.2-0.2-0.3-0.4-0.5-0.5s-0.4-0.2-0.6-0.3
				c-0.3-0.3-0.7-0.4-0.8-0.8c-0.1-0.3-0.3-0.5-0.5-0.8c-0.2-0.2-0.2-0.4-0.3-0.7c-0.3-0.2-0.3-0.2-0.4-0.6c-0.4-0.4-0.9-0.6-1-1.2
				c0-0.3-0.3-0.5-0.3-0.8c-0.2-0.1,0-0.3-0.1-0.5c-0.1-0.1,0-0.4,0-0.6c0-0.3,0-0.6,0-0.8c0.1-0.2,0.2-0.3,0.2-0.4
				c0-0.2,0.1-0.4,0.2-0.6l0.1-0.1c0-0.4,0.2-0.6,0.4-0.8C90,74.1,90,74,90,73.9c0.2-0.3,0.4-0.6,0.8-0.7c0.2,0,0.3-0.2,0.5-0.3
				c0.3-0.3,0.7-0.4,0.9-0.7c0.3-0.1,0.5-0.1,0.6-0.2c0.2-0.2,0.4-0.2,0.7-0.3c0.1,0,0.1,0,0.2-0.1c0.2-0.2,0.6-0.2,0.9-0.4
				c0.1-0.1,0.4,0.1,0.6-0.1c0.2,0.3,0.5-0.1,0.7,0c0.2-0.2,0.5,0,0.6-0.1c0.2-0.1,0.4,0,0.7-0.1c0.1,0.1,0.1,0.1,0.2,0.2h0.1
				c0.1-0.1,0.2-0.1,0.3,0c0.5,0.3,0.9,0.7,1.4,1c0.2,0.4,0.8,0.6,1,1.1c0,0.1,0.1,0.4,0.1,0.6c0.1,0.1,0.2,0.3,0.2,0.4
				c0,0.2,0.1,0.3,0.2,0.4s0.2,0.2,0.3,0.4c0,0.3,0.1,0.7-0.1,1l0.1,0.1c-0.1,0.1-0.2,0.1-0.3,0.2c0.2,0.2,0.1,0.4,0.1,0.6
				c-0.2,0.2-0.4,0.5-0.7,0.7c0,0.1,0,0.2,0,0.2c-0.2,0.2-0.1,0.5-0.3,0.7c-0.2,0.2-0.1,0.5-0.2,0.7c-0.2,0.6-0.5,1.1-0.8,1.7
				c0,0.1-0.2,0.2-0.3,0.3c0,0,0,0.1-0.1,0.3c0.3-0.2,0.5-0.3,0.6-0.4c0.1,0.1,0.2,0.2,0.4,0.4c-0.1,0.2-0.2,0.4-0.3,0.6
				c0,0,0,0.1,0.1,0.1c-0.1,0.3-0.4,0.2-0.6,0.4c-0.2,0-0.4,0-0.6,0.1s-0.4-0.1-0.6,0.1c-0.6-0.1-0.9,0.3-1.3,0.6
				C96,83.8,95.7,83.8,95.4,84z"/>
			<path class="st0" d="M87.8,32.7v0.2c0.1,0.4,0.3,0,0.5,0.1l0.2,0.3l0.1,0.3l-0.1,0.3v0.3c0.4,0.2,0.8,0.2,1.1,0.4l0.1,0.4
				l0.1,0.1l-0.1,0.1l0.2,0.2l0.3-0.3L90,35l0.3-0.1l0.2,0.3c-0.1,0.1-0.1,0.3-0.1,0.4c0.2,0.2,0.3,0.4,0.6,0.5
				c0.2,0.1,0.4,0.2,0.3,0.6c0.2,0,0.4,0,0.5,0c0.3,0.2,0.6,0.4,0.9,0.6c0.3,0.2,0.7,0.3,1,0.4c0.2,0.1,0.4-0.1,0.6-0.1
				c0.1-0.3,0.5-0.2,0.6-0.6c0.2-0.1,0.3-0.2,0.4-0.5c0-0.2,0.2-0.1,0.4-0.2c0.3-0.3,0.7-0.6,1.1-0.9c0.2-0.1,0.2-0.4,0.4-0.5
				c0.2-0.2,0.4-0.3,0.5-0.6c0.3-0.1,0.4-0.3,0.6-0.5h0.2l0.2-0.3c0.4-0.2,0.6-0.5,0.9-0.8s0.6-0.6,0.8-0.9c0.2-0.3,0.6-0.4,1-0.5
				h0.3l0.2,0.1l0.1-0.2c0.1,0.1,0.2,0.1,0.1,0.4c0.3-0.1,0.4,0.1,0.6,0.3c0,0.2,0,0.5,0,0.8l0.3,0.2c-0.1,0.4,0.1,0.7,0.1,1
				l0.3,0.4c0.3,0.3,0.6,0.5,0.5,1c0.2,0.1,0,0.4,0.2,0.5s0.1,0.3,0.2,0.5l0.2,0.3c0.2,0.2,0.4,0.4,0.5,0.6h0.1
				c0.5,0,0.8-0.3,1.1-0.6c0.1-0.1,0.3-0.2,0.4-0.4l0.5-0.3c0.3-0.2,0.6-0.4,0.9-0.5s0.5-0.3,0.7-0.5s0.5-0.2,0.6-0.5
				c0.1-0.2,0.3-0.2,0.4-0.3c0.2-0.1,0.3-0.2,0.5-0.4h0.4l0.4-0.5h0.3l0.4-0.4l0.4-0.2l0.4-0.3c0.1-0.1,0.2-0.3,0.4-0.3l0.4-0.3
				l0.4-0.3c0.3-0.1,0.6-0.3,0.9-0.2c0.4,0.3,0.2,0.7,0.2,1.1c-0.1,0.5-0.2,0.9,0,1.4c0.1,0.5-0.1,1.1,0.1,1.7
				c0.1,0.2,0.3,0.2,0.4,0.4c0.2,0.4-0.1,0.9,0,1.2c-0.1,0.3-0.3,0.2-0.4,0.3c0.1,0.2,0.3,0.1,0.4,0.3c0.1,0.5-0.1,0.9-0.1,1.4
				c-0.2,0.3-0.4,0.3-0.7,0.1c0.1,0.3,0.3,0.6,0.5,1c-0.2,0.4-0.2,0.8-0.1,1.2c-0.2,0.2-0.2,0.6-0.5,0.8h-0.5l-0.2,0.2h-0.4
				c-0.4,0.2-0.7,0.4-1.1,0.7c-0.1,0-0.3,0-0.5,0c-0.3,0.3-0.5,0.5-0.9,0.6c-0.3,0.1-0.4,0.3-0.7,0.5c-0.4,0.2-0.8,0.3-1.1,0.5
				c-0.3,0.2-0.6,0.2-0.9,0.3l-0.3,0.1c-0.2,0-0.4,0.2-0.6,0.1c-0.1-0.1-0.3,0-0.5,0.1s-0.5,0-0.8,0l-0.2-0.1l-0.2,0.1
				c-0.2,0-0.3,0.1-0.4-0.1l-0.3,0.1c-0.2,0-0.4,0-0.6-0.1c-0.2,0.2-0.4,0.1-0.5,0h-0.3c-0.5,0.2-1,0.4-1.5,0.4
				c-0.3,0.2-0.6,0.1-1,0.1c-0.2,0.3-0.7,0.4-0.9,0.7c-0.7,0.1-1.5,0.4-2.2,0.2c-0.2,0-0.4-0.2-0.6-0.3c-0.5,0.4-1.2-0.1-1.8,0.2
				c-0.2-0.2-0.5-0.2-0.8-0.3c-0.2,0-0.4,0.1-0.6-0.1c-0.2,0.1-0.3,0-0.5-0.1h-0.3c-0.4,0-0.8,0-1.2,0c-0.3,0-0.5,0.2-0.7,0.1
				L91,45.9L90.8,46c-0.5-0.1-1.1,0.1-1.6,0.1L89.1,46c-0.3,0.2-0.3,0.2-0.4,0.4c-0.2,0.1-0.5,0.1-0.8,0.3c-0.1-0.2-0.5,0-0.7-0.3
				l0.1-0.1c-0.2-0.1-0.1-0.4-0.4-0.4l-0.1-0.3l-0.1-0.2c0.3-0.3,0-0.7,0-1c0-0.2,0-0.4,0-0.6c0-0.2,0.1-0.5-0.1-0.8v-0.3
				c0-0.5-0.1-0.9-0.4-1.2c0-0.2,0.2-0.4,0-0.5c0.1-0.5-0.4-0.9-0.2-1.4c-0.2-0.2-0.1-0.5-0.1-0.8c0-0.2,0.1-0.4,0.1-0.6
				c0-0.2,0-0.4,0.1-0.6v-0.3c0-0.3,0.1-0.6,0.3-0.8l-0.2-0.1c0.1-0.3,0.2-0.6,0-0.9l0.1-0.4c-0.1-0.2,0.1-0.2,0.1-0.4l-0.1-0.1
				c0.1-0.2,0.2-0.5,0.2-0.8s0-0.6,0.2-1c0.1,0,0.2-0.2,0.4-0.3c0.1,0,0.3,0.1,0.5,0.2l0.2,0.1C87.7,32.4,87.7,32.6,87.8,32.7z"/>
			<path class="st1" d="M122.9,74.8c-0.1-0.2-0.2-0.3-0.3-0.4c0.4-0.3,0.9-0.2,1.4-0.3c0.2,0.2,0.5,0.3,0.8,0.2
				c0.2,0.1,0.3,0.3,0.6,0.2c0.3,0,0.7,0,1.1,0.2c0.1,0.1,0.3,0.1,0.5,0.1c0.2,0.1,0.4,0.3,0.6,0.4c0,0.4,0.4,0.4,0.6,0.6
				s0.2,0.4,0.5,0.6c0.1,0,0.1,0.2,0.2,0.3c0.1,0.2,0.2,0.5,0.4,0.6l0.1,0.1c0.1,0.4,0.3,0.8,0.3,1.3c0,0.1,0.1,0.2,0.2,0.4
				c0,0.2-0.1,0.4-0.1,0.6c0,0.6-0.3,1.2-0.5,1.8c-0.1,0.3-0.3,0.5-0.5,0.7c-0.2,0.3-0.4,0.5-0.6,0.8c-0.2,0.2-0.4,0.5-0.6,0.7
				c-0.1,0.1-0.2,0.2-0.4,0.3c-0.1,0.1-0.1,0.2-0.2,0.3c-0.5,0.3-1.1,0.6-1.7,1c-0.2,0.2-0.4,0.3-0.7,0.3c-0.1,0-0.2,0-0.2,0.1
				c-0.1,0.2-0.3,0.2-0.4,0.3c-0.3,0.1-0.6,0.1-0.8,0.4c0,0-0.1,0-0.2,0c-0.3,0-0.6,0.1-0.9,0.3c-0.2,0.1-0.4,0.1-0.6,0.1
				c-0.1,0-0.3,0.1-0.5,0.1c-0.3-0.1-0.7-0.3-1.1-0.3c-0.2-0.1-0.5-0.3-0.8-0.5c-0.6-0.4-1-1-1.3-1.6c0,0,0-0.1,0-0.2
				c-0.1-0.1-0.2-0.2-0.2-0.3c0-0.1,0.1-0.2,0.1-0.3c-0.1-0.2-0.1-0.5-0.1-0.8c0-0.5,0.2-1,0.4-1.5c0-0.1,0-0.2,0-0.4
				c0.1-0.1,0.2-0.3,0.3-0.4c0,0,0.1-0.1,0-0.1c-0.1-0.5,0.3-0.6,0.5-1c0-0.2,0.2-0.5,0.4-0.7c0.1-0.2,0.3-0.4,0.3-0.6
				c0-0.1,0.1-0.1,0.1-0.2c0.2-0.3,0.5-0.5,0.5-0.9c0.2-0.1,0.2-0.4,0.4-0.4c0.1,0,0.2-0.1,0.3-0.2c0.2-0.3,0.5-0.5,0.8-0.7
				C122.3,75.3,122.5,75,122.9,74.8z"/>
			<path class="st1" d="M93.7,87.6C93.7,87.6,93.8,87.5,93.7,87.6c0.1-0.1,0.2-0.1,0.3-0.1c0.1,0.1,0.2,0.1,0.2,0.2
				c0.3-0.3,0.5,0.1,0.8,0.1v0.1c0.3,0.1,0.6,0.4,0.9,0.6c0.1,0.1,0.2,0.1,0.4,0.1c-0.1-0.4-0.4-0.9-0.1-1.3c0.1,0,0.2-0.1,0.4-0.1
				c0.3,0.2,0.5,0.4,0.8,0.6c0,0.1,0.1,0.2,0.1,0.4c0,0.1-0.1,0.2-0.2,0.3c0,0.1,0.1,0.1,0.1,0.2c0,0.3,0,0.5,0.1,0.8
				c0.1,0.2,0.2,0.5,0.4,0.6c0.4,0.4,0.6,0.9,0.5,1.6c-0.1,0.4-0.2,0.7-0.1,1.1c0,0.2-0.1,0.3-0.1,0.5s0,0.3-0.1,0.5s0,0.4,0,0.6
				c-0.2,0.4-0.5,0.8-0.7,1.2c0,0.1,0.1,0.1,0.1,0.2v0.1c-0.1,0.2-0.3,0.3-0.4,0.4c-0.1,0.2-0.2,0.3-0.3,0.5l-0.1-0.1
				c-0.2,0.2-0.5,0.3-0.5,0.6c-0.2-0.1-0.4,0-0.6,0.1s-0.4,0.2-0.6,0.2c-0.2,0.1-0.4,0.1-0.7,0.1c-0.4-0.1-0.7-0.1-1.2-0.2L93,97.4
				c-0.3-0.1-0.7-0.2-0.9-0.3c-0.4-0.4-0.9-0.4-1.3-0.6c-0.4,0.1-0.8-0.1-1.1-0.3c-0.1-0.1-0.3-0.2-0.4-0.2c-0.2,0-0.3-0.1-0.4-0.3
				c-0.2-0.4-0.6-0.7-0.9-0.9c-0.4-0.3-0.6-0.6-0.8-1c-0.1-0.3-0.2-0.6-0.3-0.9c-0.1-0.2-0.2-0.3-0.3-0.5c-0.1-0.2-0.2-0.4-0.2-0.6
				c-0.1-0.2-0.3-0.4-0.3-0.5c0-0.2-0.2-0.5-0.1-0.7c0.2-0.3,0-0.7,0.2-1c0-0.1,0-0.2,0-0.3c0.1-0.1,0.2-0.2,0.2-0.3
				c0-0.4,0.3-0.6,0.5-0.8c0.2-0.2,0.3-0.3,0.3-0.6c0.2,0,0.3-0.1,0.4-0.2s0.2-0.2,0.4-0.2c0.1-0.1,0.3-0.2,0.5-0.3
				c0.1,0,0.3,0.1,0.5,0.1c0,0,0-0.1,0.1-0.2c0.3,0,0.7,0,1,0c0,0,0,0.1,0.1,0.2c0.3,0,0.5-0.1,0.7-0.1c0.4,0.3,0.9,0.2,1.2,0.6
				c0.4,0,0.7,0.1,1.1,0.1c0.1,0,0.1-0.1,0.2-0.1s0.1,0,0.2,0.1C93.5,87.5,93.6,87.5,93.7,87.6z"/>
		</g>
		<path class="st1" d="M222,72.7c0,0.2-0.1,0.4-0.1,0.5c-0.1,0-0.1,0.1-0.2,0.1c0,0.4,0.1,0.7-0.1,1c-0.1,0.1,0,0.4,0,0.5
			c0,0.2-0.1,0.5-0.2,0.8c-0.1,0.1-0.2,0.3-0.4,0.5c0,0.1,0,0.2,0,0.3c-0.2,0.3-0.4,0.4-0.6,0.6c0,0.6-0.4,1.1-0.8,1.5
			c-0.1,0.1-0.2,0.2-0.3,0.3c-0.1,0.1-0.2,0.1-0.3,0.3c0,0.1-0.2,0.1-0.3,0.1c-0.2,0.1-0.5,0.2-0.6,0.5c-0.1,0-0.1,0-0.2,0
			c-0.4,0.3-0.8,0.4-1.2,0.5s-0.8,0.3-1.2,0.5c-0.2-0.2-0.4,0.1-0.7,0.1c-0.2,0-0.4,0.2-0.7,0.2c-0.2,0-0.4,0.1-0.7,0.2
			c-0.1,0-0.3-0.1-0.5-0.1c-0.1,0-0.2,0.1-0.2,0.1c-0.3-0.1-0.6,0.1-0.9,0c-0.3-0.1-0.5-0.2-0.8-0.3c-0.1,0-0.2-0.1-0.3-0.1
			c-0.3,0.1-0.5,0-0.7-0.1s-0.4-0.1-0.6-0.2c-0.2-0.1-0.3-0.1-0.4-0.3c-0.1-0.1-0.2-0.2-0.3-0.3c-0.2-0.1-0.4-0.3-0.5-0.5
			c-0.2-0.3-0.5-0.4-0.8-0.6c-0.1-0.1-0.3-0.1-0.4-0.2c-0.1-0.1-0.3-0.3-0.2-0.5c-0.2-0.1-0.3-0.2-0.4-0.2c-0.1-0.1-0.2-0.3-0.2-0.4
			c-0.1-0.4-0.2-0.9-0.2-1.4c0-0.1,0-0.2,0-0.3c0.1-0.3,0.1-0.7,0.2-1c0.2-0.8,0.4-1.5,0.8-2.2c0.1-0.2,0.3-0.4,0.5-0.6
			c0-0.1,0.2,0,0.2-0.1v-0.1c0.5-0.4,1-0.8,1.6-1.1c0.3-0.2,0.6-0.3,0.9-0.5c0.2-0.1,0.4-0.2,0.4-0.4c0-0.1,0.1-0.1,0.2-0.1
			c0.2,0,0.3-0.3,0.5-0.3s0.4-0.2,0.6-0.4c0.1,0,0.2,0,0.3,0.1c0.1-0.1,0.1-0.3,0.2-0.4c0.2-0.1,0.3-0.1,0.5-0.2s0.3-0.1,0.5-0.1
			c0.2-0.3,0.6-0.4,0.9-0.5c0,0,0.1,0.1,0.2,0.1c0.2-0.1,0.5-0.2,0.8-0.3c0.1,0,0.4,0.2,0.5,0c0.2,0,0.3,0.1,0.5,0.1
			c0,0,0.1-0.1,0.2-0.1c0.2,0.1,0.4,0.2,0.6,0.2c0.2-0.1,0.4,0.1,0.6,0.1c0.2-0.1,0.4,0,0.7,0c0.1,0,0.1,0.1,0.2,0.1
			c0.1,0,0.1-0.1,0.2-0.1c0.1,0.1,0.1,0.1,0.2,0.2c0.5-0.1,0.8,0.4,1.2,0.4c0,0.1,0,0.1,0,0.2c0.1,0,0.3,0,0.4,0
			c0.2,0.2,0.3,0.4,0.5,0.5c0.1,0.4,0.2,0.8,0.5,1.2c0.3,0.3,0.3,0.8,0.4,1.2c0,0.1,0,0.3,0,0.4c0.2,0.2,0,0.3,0,0.5
			C222,72.6,222,72.7,222,72.7z"/>
		<path class="st1" d="M188,80.2h0.1c0.1-0.1,0-0.3,0.3-0.4c0.2-0.1,0.2-0.3,0.4-0.4c0-0.1,0-0.2,0.1-0.3c0.1-0.1,0.3-0.2,0.4-0.3
			c0.1-0.1,0.2-0.2,0.3-0.3l0.1-0.1c0-0.2,0.1-0.3,0.1-0.5c-0.2-0.2,0.1-0.3,0-0.5c0.3-0.5,0.4-0.5,0.9-0.4c0.2,0,0.3-0.2,0.4-0.3
			c0.2-0.2,0.5-0.5,0.8-0.6c0,0,0.1,0,0.1-0.1c0.1-0.1,0.2-0.2,0.3-0.4c0.2-0.3,0.3-0.4,0.6-0.6s0.6-0.3,0.9-0.4
			c0.1,0,0.1-0.1,0.2-0.1c0.2,0,0.3,0.1,0.5,0c0.1,0,0.2,0,0.3,0.1c0.1,0,0.1,0,0.2,0c0.2-0.2,0.4-0.1,0.6,0.1c0,0,0.1,0,0.2,0
			c0,0,0,0.1,0,0.2c0,0,0.1,0,0.1-0.1c0.3,0.1,0.5,0.2,0.8,0.3l0,0c0.1,0.1,0.3,0.2,0.3,0.3c0.1,0.1,0.2,0.2,0.3,0.3
			c0.1,0.1,0.3,0.1,0.3,0.3c0,0,0.2,0,0.2,0.1c0.2,0.3,0.6,0.6,0.8,0.9c0.1,0.2,0.2,0.4,0.4,0.7c0.3,0.1,0.4,0.5,0.6,0.7
			c0.1,0.1,0.2,0.1,0.3,0.2c0,0.1,0,0.1,0.1,0.2c0.2,0.3,0.4,0.5,0.4,0.9c0.3,0.3,0.4,0.8,0.6,1.1c0.2,0.3,0.2,0.6,0.3,0.9
			c0,0.1,0.1,0.2,0.1,0.3c0,0.3,0.2,0.5,0.3,0.7s0.1,0.4,0.1,0.6c0.2,0.4,0.2,0.1,0.5,1.9c0,0.1-0.1,0.1-0.2,0.2
			c0.1,0.3,0,0.5-0.1,0.8s-0.3,0.5-0.5,0.6s-0.3,0.3-0.5,0.4c-0.1,0-0.1,0.1-0.2,0.1c-0.3,0.1-0.5,0.3-0.9,0.3c-0.1,0-0.1,0-0.2,0
			l-0.1,0.1c-0.1,0-0.3,0-0.5,0.1c-0.2,0-0.3,0-0.5,0s-0.4,0-0.6,0c-0.1,0-0.3,0-0.4,0.1c-0.2,0.1-0.4,0-0.5,0.1
			c-0.2,0.1-0.4,0.1-0.6,0.1c-0.2,0-0.4-0.1-0.5-0.1v-0.1c-0.4-0.1-0.8-0.2-1.1-0.5c0,0-0.1,0-0.2,0c-0.1-0.2-0.3-0.3-0.4-0.5h-0.1
			c0-0.1,0-0.1,0-0.2l-0.1,0.1c0,0,0-0.1-0.1-0.1c0,0-0.1-0.1-0.2-0.1c0-0.1,0-0.1,0-0.2c-0.1,0-0.3,0-0.3-0.2c-0.1,0-0.1,0-0.2,0
			c0-0.1,0-0.1,0-0.1h-0.1c0-0.1-0.1-0.2-0.1-0.3c-0.2-0.1-0.3-0.2-0.4-0.5c-0.1-0.2-0.2-0.3-0.4-0.5s-0.4-0.4-0.5-0.7l-0.1-0.1
			c-0.1-0.1-0.2-0.2-0.2-0.4c0-0.3-0.2-0.4-0.4-0.6c0-0.3-0.1-0.6-0.3-0.9c-0.1-0.1-0.2-0.3-0.1-0.4c0.1-0.2-0.1-0.3-0.1-0.4
			c-0.1-0.2-0.2-0.4-0.2-0.6s-0.2-0.3-0.2-0.5s-0.2-0.3-0.1-0.5c-0.3,0.2-0.5,0.5-0.9,0.5c-0.1,0.1-0.2,0.2-0.3,0.4
			c-0.1-0.1-0.1-0.2-0.1-0.2c0.1-0.1,0.1-0.1,0.2-0.2c0.1,0,0.1-0.1,0.2-0.2c-0.1-0.1-0.2-0.1-0.3-0.2c-0.1,0.2-0.3,0.3-0.3,0.5
			c0,0-0.1,0-0.2-0.1c0,0.1,0,0.1,0,0.2c-0.1,0.1-0.1,0.2-0.2,0.2c-0.1,0-0.1,0.1-0.2,0.1c-0.1-0.1-0.1-0.2-0.2-0.3h0.1
			C188,80.4,188,80.3,188,80.2z"/>
		<path class="st1" d="M219.1,93.6c-0.1,0.1-0.2,0.2-0.3,0.3c-0.1,0-0.1,0-0.2,0c-0.2,0.2-0.3,0.5-0.6,0.7c-0.1,0-0.2,0.3-0.3,0.4
			c-0.2,0.1-0.3,0.2-0.6,0.4c-0.1,0-0.3,0.1-0.5,0.1c0,0.1-0.1,0.2-0.2,0.2c-0.3,0-0.5,0.1-0.8,0.1c-0.4,0.4-0.8,0.5-1.4,0.6
			c-0.1,0-0.2,0.1-0.3,0.1s-0.2,0-0.3,0.1h-0.2c-0.2-0.1-0.5-0.1-0.7,0l-0.1-0.1c-0.4,0-0.8-0.1-1.1-0.3c-0.3-0.2-0.7-0.2-1.1-0.3
			c0-0.2-0.3-0.1-0.5-0.3c-0.1-0.2-0.4-0.1-0.6-0.3c-0.2-0.1-0.4-0.2-0.6-0.3c-0.1-0.1-0.2-0.2-0.3-0.3c-0.1,0-0.2,0-0.2-0.1
			c-0.2-0.2-0.4-0.3-0.6-0.5c-0.1-0.2-0.3-0.4-0.4-0.6c-0.1-0.1-0.1-0.2-0.2-0.2c-0.2-0.1-0.3-0.3-0.4-0.4c-0.1-0.2-0.2-0.3-0.3-0.4
			s-0.2-0.2-0.1-0.4c0-0.1,0-0.3-0.1-0.4c-0.1-0.2-0.1-0.4-0.1-0.6c0.1-0.3-0.1-0.6-0.2-0.8c0-0.1-0.1-0.2-0.1-0.4
			c0-0.2,0-0.3,0.2-0.4c-0.1-0.2-0.1-0.3-0.2-0.4c0-0.1,0-0.3,0.1-0.4c0.2-0.4,0.4-0.7,0.6-1.1c0-0.1,0.1-0.2,0.2-0.2
			c0.3-0.2,0.4-0.4,0.7-0.6c0.5-0.4,1.1-0.8,1.7-1c0.2-0.1,0.4-0.1,0.6-0.1c0.1,0,0.1,0.1,0.2,0.1l0.1-0.1c0.6,0,1.1,0,1.7,0.1
			c0.3,0.1,0.6,0.1,0.9,0.1c0.2,0,0.4,0.1,0.5-0.1c0,0,0.1,0,0.2,0c0.2,0.1,0.3-0.1,0.5,0.1c0.1,0.1,0.4,0.1,0.6,0.1
			c0,0,0.1,0.1,0.1,0.2c0.1-0.1,0.2-0.1,0.4-0.2c0.1,0,0.3,0.1,0.4,0.1c0.2,0,0.3,0.1,0.4,0.2c0.3-0.1,0.6,0.1,0.9,0.1
			c0,0,0,0.1,0,0.2c0.2,0.1,0.4,0.1,0.7,0.2c0.1,0.1,0.2,0.3,0.4,0.3c0.1,0.1,0.2,0.3,0.3,0.4c0,0,0.1,0,0.2,0
			c0.1,0.1,0.2,0.4,0.3,0.4c0.2,0.1,0.2,0.3,0.4,0.4s0.3,0.2,0.4,0.4c0,0,0.1,0.1,0.1,0.2c0.1,0,0.1,0,0.2,0c0,0.1,0,0.1,0,0.2
			c0.4,0.2,0.3,0.7,0.6,0.9c-0.1,0.1-0.1,0.1-0.1,0.1c0.1,0.1,0.2,0.2,0.2,0.2c0,0.2-0.1,0.4,0.1,0.6c-0.1,0.3-0.3,0.7-0.3,1.1
			s-0.2,0.7-0.3,1.1c0,0.1-0.2,0.2-0.2,0.3C219.5,93.6,219.3,93.7,219.1,93.6C219.1,93.5,219.1,93.6,219.1,93.6z"/>
		<path class="st1" d="M236,77.9c-0.2,0.1,0,0.3-0.1,0.5s-0.2,0.4-0.5,0.5c-0.1,0-0.2,0.1-0.2,0.2c-0.1,0.3-0.3,0.3-0.6,0.4
			c-0.2,0.6-0.7,0.9-1.1,1.3c0.1,0.3,0.3,0.5,0.4,0.7c-0.1,0.3-0.3,0.5-0.5,0.8c-0.2,0-0.3,0.1-0.5,0.1c-0.2-0.2-0.6-0.1-0.8-0.4
			c-0.3,0-0.6-0.2-0.8-0.3c-0.5,0.2-1,0.4-1.6,0.5c-0.4,0.1-0.8,0.2-1.2,0.1c-0.3-0.1-0.6-0.1-0.9-0.1c0-0.1-0.1-0.1-0.1-0.2
			c-0.3,0-0.5-0.1-0.7-0.3c-0.1-0.1-0.2-0.2-0.3-0.2c-0.3-0.1-0.4-0.2-0.5-0.5c-0.2-0.4-0.5-0.6-0.8-0.8c-0.2-0.2-0.3-0.4-0.4-0.7
			c-0.2-0.1-0.3-0.2-0.4-0.5c-0.1-0.3-0.3-0.6-0.5-0.8c-0.3-0.3-0.4-0.7-0.5-1.1c-0.1-0.3-0.2-0.6-0.3-0.9s-0.2-0.5-0.2-0.8
			c0-0.1-0.1-0.2-0.1-0.2c0-0.1,0-0.2,0-0.2c0.1-0.1,0-0.3,0.1-0.4s0.1-0.3,0.1-0.4c0.1-0.1,0.2-0.2,0.3-0.3c0.1-0.1,0.2,0,0.2-0.2
			c0-0.1,0.2-0.1,0.3-0.2c0.1,0,0.1,0,0.2,0c0.1-0.1,0.3-0.2,0.4-0.3c0.1,0,0.1-0.1,0.1-0.2c0-0.2,0.2-0.3,0.4-0.4
			c0,0-0.1-0.1-0.1-0.2c0.1-0.1,0.2-0.3,0.4-0.4s0.3-0.3,0.4-0.4c0.2-0.4,0.4-0.6,0.8-0.7c0.2,0,0.4-0.2,0.6-0.3c0.1,0,0.2,0,0.3,0
			c0.1-0.1,0.1-0.1,0.2-0.2c0.3,0,0.5,0,0.8,0.1c0,0,0.1,0,0.2,0c0.4-0.2,0.8-0.2,1.1-0.4l0.5-0.2c0.2,0,0.3,0,0.5,0
			c0.4,0,0.7-0.1,1.1,0.2c0.3,0.2,0.6,0.3,0.8,0.5c0.1,0.1,0.2,0.1,0.3,0.2s0.2,0.2,0.3,0.3c0.5,0.3,1,0.6,1.3,1.1
			c0.1,0.2,0.3,0.1,0.3,0.3c0,0.1,0.2,0.2,0.3,0.3c0,0.1,0,0.2,0,0.3c0.1,0.4,0.2,0.6,0.6,0.8c0-0.2,0-0.2-0.1-0.4
			c0.2-0.2,0.2-0.2,0.4,0c0.1,0,0.1,0.1,0.2,0.1c0.1,0,0.2,0.1,0.4,0.1c0,0.2,0.3,0.3,0,0.5c0.1,0.1,0.1,0.1,0.2,0.2
			c-0.1,0.1-0.2,0.1-0.3,0.2c0,0.1,0,0.3,0.1,0.5c0,0-0.1,0.2-0.1,0.3c0,0.2,0,0.4-0.1,0.5s-0.2,0.2-0.2,0.3l-0.2,0.5
			c0.1,0.1,0,0.2,0,0.3C235.9,77.5,235.9,77.7,236,77.9z"/>
		<path class="st1" d="M234.9,88.6c0.2,0,0.4,0.1,0.6,0.3c0,0.2,0.1,0.4,0.1,0.5s-0.1,0.3-0.2,0.4c0,0.2,0.2,0.4,0.1,0.5
			c-0.1,0.2,0,0.4-0.2,0.6c-0.1,0.1-0.1,0.2-0.1,0.4c0,0.2,0,0.4,0,0.7c-0.1,0.5-0.1,1-0.4,1.4c0,0.1,0,0.2,0,0.2
			c-0.3,0.3-0.6,0.5-1,0.7c-0.3,0.1-0.6,0.2-0.8,0.4c-0.2,0.2-0.5,0.2-0.8,0.4c-0.1,0.1-0.3,0.2-0.4,0.2c-0.2,0-0.4,0-0.5,0.1
			c-0.1,0-0.1,0.1-0.2,0.1c-0.5,0.1-1,0.1-1.6,0.2c-0.1,0.1-0.3,0.1-0.5,0.1s-0.3,0-0.5,0c-0.2-0.1-0.6,0-0.8-0.4
			c-0.6,0.1-1.1-0.2-1.6-0.5c0,0-0.1,0-0.1-0.1c-0.3-0.3-0.6-0.6-0.9-0.9c-0.2-0.2-0.4-0.5-0.5-0.8c0-0.1-0.1-0.1-0.2-0.2
			c-0.1-0.2-0.2-0.5-0.3-0.7l0.1-0.1c-0.3-0.2-0.4-0.6-0.4-0.9c-0.1-0.3-0.2-0.5-0.3-0.7c-0.1-0.5-0.1-0.9-0.1-1.3
			c0-0.1-0.1-0.2-0.1-0.2c0.1-0.1,0-0.1,0-0.2c0-0.2,0.1-0.3,0.2-0.5c-0.1-0.2-0.1-0.3,0.1-0.5c0.1-0.2,0.3-0.3,0.5-0.5
			c0,0,0.1,0,0.2,0c0.1-0.1,0.2-0.3,0.3-0.4s0.2-0.2,0.3-0.3c0.4-0.2,0.8-0.4,1.2-0.5c0.1,0,0.1-0.1,0.2-0.1c0,0,0.1,0,0.2-0.1h0.1
			c0.2-0.2,0.6-0.4,0.9-0.5c0.2-0.1,0.3-0.2,0.5-0.3c0.2-0.1,0.5-0.2,0.8-0.2c0.2,0,0.4,0,0.6,0c0.1,0,0.2,0,0.3-0.1
			c0.1,0,0.2,0.1,0.3,0.1c0.1-0.1,0.3,0,0.4,0c0.1,0,0.2,0.2,0.4,0.1c0.1,0,0.2,0,0.4,0c0.1-0.1,0.3,0.1,0.4,0.1
			c0.2,0,0.4,0.1,0.6,0.1c0,0.1,0,0.1,0,0.2c0.7,0,1.1,0.5,1.5,0.9l-0.1,0.1v0.1c0.2,0.2,0.3,0.4,0.6,0.5c0.2,0.1,0.3,0.3,0.4,0.5
			C234.5,88.2,234.7,88.4,234.9,88.6z"/>
		<path class="st1" d="M226.6,63.5c-0.1-0.3-0.2-0.6-0.3-0.9c-0.1-0.2,0.1-0.4-0.1-0.5c0-0.2,0.1-0.4,0.1-0.6
			c0.3-0.2,0.2-0.5,0.1-0.8c-0.1-0.3-0.2-0.6-0.2-0.9c0,0,0-0.1-0.1-0.1c0.1-0.1,0.1-0.2,0.2-0.4c0.1,0,0.2-0.1,0.3-0.3
			c0.1-0.3,0.2-0.6,0.6-0.7c0.2-0.3,0.5-0.5,0.7-0.7s0.4-0.3,0.7-0.2c0.1-0.1,0.1-0.1,0.2-0.2c0.1,0,0.1,0,0.2,0
			c0.6,0,1.1,0.2,1.6,0.2c0.1,0,0.2,0.1,0.4,0.1c0.1,0,0.3,0,0.4,0.1c0.1-0.2,0.2,0.1,0.3,0c0.1,0,0.2,0.1,0.3,0.1c0,0,0,0,0.1,0.1
			c0.2-0.2,0.4,0,0.5-0.1c0.1,0.2,0.3,0.2,0.5,0.2s0.4,0.1,0.7,0.1c0.1,0.1,0.1,0.1,0.2,0.2c0.2,0,0.4,0,0.6,0.1
			c0.2,0.1,0.4,0.1,0.6,0.3c0.2,0.1,0.3,0.3,0.6,0.2l0.1,0.1c0.4,0.3,0.8,0.4,1.1,0.7c0,0,0.1,0,0.2,0c0.2,0.4,0.6,0.7,0.9,1
			c0,0.2,0.1,0.4,0.1,0.7c-0.2,0.2,0,0.5,0.1,0.7s0.2,0.4,0.4,0.7c0,0.2,0,0.6,0,0.9c-0.4,0.4-0.7,0.8-0.9,1.4
			c-0.3,0.1-0.4,0.6-0.8,0.7c-0.1,0.1-0.1,0.3-0.2,0.5c-0.2,0.2-0.4,0.3-0.5,0.7c-0.2,0.2-0.4,0.4-0.7,0.5c-0.1,0-0.2,0.2-0.3,0.2
			s-0.2,0-0.3,0.1c0,0,0,0-0.1-0.1c-0.1,0.1-0.1,0.2-0.2,0.4h-0.1c-0.3,0.2-0.6,0.2-0.9,0.1c-0.1,0-0.2,0-0.3,0.1h-0.2
			c-0.2-0.1-0.3-0.1-0.5-0.1c-0.3,0-0.9-0.2-1.3-0.4c-0.1-0.1-0.2-0.1-0.3-0.1c-0.4,0-0.6-0.3-0.8-0.5l-0.1-0.1c0,0-0.1,0-0.2,0
			c-0.4-0.3-0.8-0.5-1.2-0.8c-0.1-0.3-0.5-0.3-0.5-0.6c-0.1,0-0.1,0-0.2,0c-0.3-0.3-0.5-0.5-0.8-0.7c-0.2-0.2-0.3-0.5-0.6-0.7
			C226.9,63.8,226.9,63.6,226.6,63.5z"/>
		<path class="st1" d="M221.7,56.3c0.2,0.2,0.5,0.5,0.5,0.8c0,0.1,0.1,0.2,0.2,0.2c0.2,0.2,0.3,0.5,0.3,0.8c0,0.1,0.1,0.3,0.1,0.4
			c0,0.3-0.1,0.5-0.2,0.8c0,0.1,0,0.2,0,0.3c-0.1,0.1-0.3,0.3-0.3,0.6c-0.1,0.3-0.4,0.5-0.6,0.7c-0.1,0.1-0.4,0.1-0.5,0.3
			c0,0.2-0.4,0.1-0.4,0.4c-0.2,0-0.3,0.2-0.5,0.3c-0.4,0.3-0.8,0.5-1.3,0.7c-0.3,0.1-0.7,0-1,0.2c-0.4-0.1-0.8,0.2-1.3,0.2
			c-0.2,0-0.3-0.1-0.5-0.1c-0.1,0-0.3-0.1-0.5-0.1c-0.3,0.2-0.6-0.1-0.8-0.2c-0.1,0-0.4,0.1-0.4,0.1c-0.3-0.3-0.6,0-0.9,0l-0.1,0.1
			c-0.6,0-1.3,0-1.9-0.1c-0.7-0.1-1.3-0.4-1.9-0.8c-0.2-0.1-0.4-0.3-0.6-0.5c-0.1-0.1-0.3-0.2-0.4-0.3c-0.3-0.2-0.5-0.6-0.5-0.9
			c0-0.2-0.1-0.3-0.2-0.4c0.3-0.3,0.1-0.5,0-0.7s-0.3-0.3-0.5-0.5c-0.4-0.4-0.7-0.8-0.7-1.2c0-0.3-0.2-0.5-0.3-0.8s0.1-0.6-0.1-0.8
			c0.1-0.2,0.2-0.5,0-0.7c0-0.2,0.1-0.3,0.1-0.5c0-0.5,0.1-0.9,0.4-1.2c0.1-0.1,0.1-0.2,0.1-0.2c0.1-0.4,0.3-0.7,0.7-0.9
			c0-0.1,0-0.2,0-0.3c0.4-0.2,0.7-0.6,1.2-0.6h0.1c0.3,0,0.7-0.1,1-0.1c0.4,0,0.7,0,1.1,0.1c0.3,0.1,0.5,0.1,0.8,0.1l0.1,0.1
			c0.1,0,0.3-0.1,0.4-0.1c0.2,0,0.3,0.1,0.5-0.1c0,0,0.2,0,0.3,0c0.6,0.3,1.2,0.1,1.8,0.2c0.7,0.1,1.4,0.3,1.9,0.7s1.2,0.7,1.8,1.1
			c0.3,0.2,0.5,0.3,0.7,0.6s0.5,0.5,0.7,0.8c0.1,0.2,0.1,0.4,0.2,0.6c0.3-0.1,0.6-0.3,1-0.4c0.1,0.2,0.2,0.3,0.3,0.5
			C221.7,55.6,221.7,55.9,221.7,56.3z"/>
		<path class="st1" d="M200.6,59.9l0.1-0.1c0.1,0,0.1,0,0.2,0c0.1,0.1,0.2,0.2,0.3,0.3c0.4-0.3,0.6,0.1,0.9,0.2v0.1
			c0.4,0.2,0.7,0.5,1,0.7c0.1,0.1,0.3,0.1,0.4,0.1c-0.1-0.5-0.4-1,0-1.5c0.1,0,0.3-0.1,0.4-0.1c0.3,0.3,0.6,0.5,0.8,0.8
			c0,0.2,0.1,0.3,0.1,0.5c0,0.1-0.1,0.2-0.2,0.4c0,0.1,0.1,0.1,0.1,0.2c-0.1,0.3,0,0.6,0.1,0.9c0.1,0.3,0.2,0.5,0.4,0.8
			c0.5,0.5,0.6,1.1,0.4,1.8c-0.1,0.4-0.3,0.8-0.3,1.2c0,0.2-0.1,0.4-0.1,0.6s0,0.3-0.1,0.5s0,0.5-0.1,0.7c-0.3,0.4-0.6,0.9-0.9,1.3
			c0,0.1,0.1,0.1,0.1,0.2v0.1c-0.2,0.2-0.4,0.3-0.5,0.5s-0.3,0.4-0.4,0.5c-0.1-0.1-0.1-0.1-0.1-0.1c-0.3,0.2-0.6,0.3-0.7,0.6
			c-0.3-0.1-0.5,0-0.7,0.1s-0.5,0.2-0.8,0.2c-0.3,0.1-0.5,0.1-0.8,0.1c-0.4-0.1-0.9-0.2-1.3-0.3l-0.1-0.1c-0.4-0.1-0.7-0.3-1-0.4
			c-0.4-0.5-1-0.5-1.5-0.8c-0.5,0-0.9-0.2-1.3-0.5c-0.2-0.1-0.3-0.2-0.5-0.3c-0.3,0-0.4-0.2-0.5-0.4c-0.2-0.5-0.6-0.8-1-1.2
			c-0.4-0.3-0.7-0.8-0.8-1.2c-0.1-0.4-0.2-0.7-0.3-1.1c0-0.2-0.2-0.4-0.3-0.6c-0.1-0.3-0.2-0.5-0.1-0.7c-0.1-0.3-0.3-0.4-0.3-0.6
			c0-0.3-0.2-0.6-0.1-0.8c0.2-0.3,0-0.8,0.3-1.1c0.1-0.1,0-0.2,0-0.3c0.1-0.1,0.2-0.2,0.2-0.3c0.1-0.4,0.4-0.6,0.7-0.9
			c0.2-0.2,0.4-0.4,0.4-0.6c0.2,0.1,0.3-0.1,0.5-0.2c0.1-0.1,0.3-0.2,0.5-0.3s0.4-0.2,0.6-0.3c0.1,0,0.4,0.1,0.6,0.1
			c0,0,0-0.1,0.1-0.2c0.4,0,0.8,0,1.2,0.1c0,0,0,0.1,0.1,0.2c0.3,0,0.6,0,0.9-0.1c0.4,0.3,1,0.3,1.4,0.8c0.4,0.1,0.8,0.1,1.2,0.2
			c0.1,0,0.2-0.1,0.2-0.1c0.1,0,0.2,0.1,0.2,0.1C200.3,59.7,200.4,59.8,200.6,59.9z"/>
		<path class="st0" d="M220.5,35.5v0.3l-0.1,0.3c0.1,0.2,0.2,0.3,0.1,0.5l0.2,0.2h0.1c0.3,0,0.5-0.3,0.9-0.2
			c0.4-0.4,0.9-0.4,1.4-0.6c0.3-0.1,0.7-0.4,1.1-0.3c0.2-0.2,0.4-0.4,0.7-0.3l0.6-0.3l0.2,0.1c0.2-0.4,0.7-0.4,1-0.6
			c0.3-0.1,0.6-0.1,0.9-0.4c0.1-0.1,0.4,0,0.5-0.3c0.4-0.2,0.6-0.7,1-1c0.3-0.2,0.6-0.3,0.9-0.3l0.3,0.2c0.2-0.2,0.6,0.2,0.8-0.1
			c0.3,0,0.5,0.2,0.6,0.3c0.2,0.3,0.1,0.5,0,0.8l0.2-0.1V34c0,0.2-0.3,0.3-0.2,0.5s0,0.4,0,0.6v0.2c-0.2,0.2-0.1,0.6-0.4,0.7v0.3
			l-0.2,0.1l0.1,0.2c-0.1,0.1-0.2,0.3-0.3,0.5c-0.1,0.5-0.3,0.9-0.6,1.2c-0.1,0.6-0.6,0.9-0.7,1.4l0.1,0.2c-0.4,0.2-0.7,0.4-0.5,0.9
			l-0.3,0.2c-0.2,0.2-0.1,0.6-0.4,0.8v0.3l-0.3,0.1c-0.1,0.3-0.1,0.5-0.2,0.7l-0.4,0.1c-0.1,0.3,0.1,0.5-0.1,0.7
			c-0.2,0.2-0.2,0.4-0.3,0.6l-0.3,0.1c0.1,0.6-0.4,0.9-0.3,1.4l-0.2,0.1c-0.2,0.2-0.3,0.4-0.5,0.6l-0.5,0.3l-0.1,0.4
			c-0.2,0-0.3,0.1-0.4,0.1c-0.1,0.1-0.3-0.2-0.4,0.1h-0.2c-0.2,0-0.5-0.1-0.7,0.1c-0.2,0.1-0.4,0-0.7,0.2s-0.6,0.2-0.9,0.1
			c-0.6-0.1-1.2,0-1.8,0.1c-0.3,0-0.5,0-0.8,0c-0.2,0-0.4,0.1-0.5-0.1c-0.2,0.1-0.4,0-0.6,0l-0.5,0.1c-0.2-0.2-0.4-0.3-0.7-0.2
			c-0.3,0-0.7-0.1-1-0.3c-0.3,0-0.5,0-0.8-0.1c-0.2,0-0.4,0-0.6-0.1c-0.2-0.1-0.4-0.2-0.6-0.1c-0.5-0.1-1-0.1-1.6-0.2
			c-0.5-0.1-0.8,0-1.5,0c-0.6,0.1-1.1,0.1-1.7,0.2c-0.2,0-0.4-0.1-0.6-0.1l-0.6,0.3l-0.3-0.1c-0.2-0.2-0.4-0.5-0.5-0.7
			c-0.1-0.3-0.2-0.6-0.1-0.9c-0.3,0.2-0.6,0.1-0.8,0.2c-0.4-0.2-0.5-0.6-0.6-1l0.2-0.1c-0.2-0.5-0.3-1-0.2-1.5l0.2-0.3
			c0-0.4,0-0.8-0.1-1.3c-0.1-0.4,0-0.8,0-1.2c0-0.2,0-0.4,0.1-0.6v-0.3l0.2-0.2c0-0.1-0.1-0.2-0.1-0.4c0,0,0.3-0.1,0-0.3l0.2-0.1
			l-0.1-0.4l0.1-0.1c0-0.4-0.2-0.8,0.2-1.2c-0.1-0.5,0.3-0.9,0.3-1.4c0-0.4,0.1-0.8,0.2-1.2v-0.3l0.1-0.5c0.3-0.2,0.2-0.4,0.1-0.7
			l0.2-0.1l-0.1-0.1c0.1-0.1,0.2-0.2,0.2-0.4c0-0.4,0.1-0.9,0.3-1.3h0.1c0.7-0.1,1.2,0.1,1.5,0.9c0.2,0.6,0.5,1.2,0.9,1.8
			c0.1,0.3,0.2,0.5,0.4,0.7s0.2,0.5,0.4,0.7s0.3,0.5,0.3,0.7c0.1,0.2,0.2,0.5,0.4,0.7c0.2,0.1,0.1,0.3,0.2,0.5
			c0.1,0.2,0.2,0.3,0.2,0.5l0.1,0.2c0.2,0.1,0.3-0.1,0.4,0c0-0.2,0.4-0.3,0.3-0.6c0.2-0.1,0.4-0.3,0.5-0.6c0.1-0.2,0.4-0.3,0.6-0.5
			c0.4-0.3,0.7-0.6,1-0.9c0.2-0.2,0.4-0.3,0.7-0.3l0.1-0.2c0.5-0.2,0.7-0.6,1.1-0.9c0.2-0.2,0.3-0.3,0.6-0.5s0.5-0.5,0.9-0.7
			l0.4-0.3c0.2,0,0.2,0.3,0.4,0.1l0.3,0.2c0.2,0,0.3,0.1,0.5,0.2c0.1,0.4-0.2,0.7,0,1.1C220.7,34.1,220.1,35,220.5,35.5z"/>
	</g>
</g>
<g id="レイヤー_3" class="st2">
	<rect y="99.4" class="st3" width="240" height="47.4"/>
</g>
</svg>
