<?xml version="1.0" encoding="utf-8"?>
<!-- Generator: Adobe Illustrator 25.1.0, SVG Export Plug-In . SVG Version: 6.00 Build 0)  -->
<svg version="1.1" id="レイヤー_2" xmlns="http://www.w3.org/2000/svg" xmlns:xlink="http://www.w3.org/1999/xlink" x="0px"
	 y="0px" viewBox="0 0 240 12.2" style="enable-background:new 0 0 240 12.2;" xml:space="preserve">
<style type="text/css">
	.st0{fill:#231815;}
</style>
<g>
	<g>
		<path class="st0" d="M74.2,6.4c-0.6-0.2-1.1-0.5-1.7-0.9V6c-0.5,0-1.4,0-1.9,0h-2c-0.4,0-1.2,0-1.6,0V5.4c-0.8,0.6-1.4,0.9-1.7,1
			l-0.9-0.9c1.1-0.3,2.3-1.2,2.9-1.7c1-0.9,1.5-1.9,1.9-2.6l1.3,0.4c0.1,0,0.2,0.1,0.2,0.2c0,0.1-0.1,0.1-0.2,0.2
			c0.4,0.9,1.5,1.8,1.7,2c0.9,0.7,1.5,1,2.6,1.5L74.2,6.4z M71.7,11.1c0-0.3,0-0.3,0-0.5h-3.9c0,0,0,0.5,0,0.5h-1.1
			c0-0.2,0.1-1.1,0.1-1.3V8.1c0-0.4,0-0.8-0.1-1.2c0.4,0,1.1,0.1,1.8,0.1h2.2c0.4,0,0.8,0,2-0.1c0,0.5,0,1,0,1.2v1.5
			c0,0.4,0,1,0,1.5H71.7z M69.7,2.6c-1,1.5-2.1,2.3-2.2,2.4c0.9,0,1,0.1,1.1,0.1h1.9c0.3,0,0.9,0,1.3,0C71,4.4,70.3,3.5,69.7,2.6z
			 M71.8,7.9h-4v1.8h4V7.9z"/>
		<path class="st0" d="M88.4,4.2v2.9c0,0.4,0,2.3,0,2.7c0,1-0.6,1.1-1.9,1.1L86,9.8c0.3,0,0.6,0.1,0.9,0.1c0.5,0,0.5-0.1,0.5-0.5
			V2.6h-6.7v5.2c0,1.9,0,2.7,0.1,3.1h-1.2c0.1-0.3,0.2-2.8,0.2-3.1V4.5c0-0.6,0-2.4-0.1-2.9c0.7,0,2,0,2.8,0h0.2h2.7
			c0.1,0,2.8-0.1,3.3-0.1C88.4,1.9,88.4,3.9,88.4,4.2z M84.9,4.2h-1.7c-0.6,0-1.2,0-1.7,0.1v-1c0.7,0.1,1.7,0.1,1.7,0.1h1.7
			c0.2,0,1,0,1.7-0.1v1C86.1,4.2,85.4,4.2,84.9,4.2z M84.5,8.5h-1.9c0,0.1,0,0.5,0.1,0.7h-1c0-0.4,0.1-1.1,0.1-1.3V6.4
			c0-0.4,0-0.7,0-1.3c0.7,0,1.5,0.1,1.6,0.1h1.2c0.1,0,0.8,0,0.9,0c0.3,0,0.7,0,0.8,0c0,0.2,0,1.2,0,1.4v0.6c0,0.4,0,1,0.1,1.4
			C85.4,8.5,85,8.5,84.5,8.5z M85.2,6.1h-2.6v1.6h2.6V6.1z"/>
		<path class="st0" d="M102.8,5.8c-0.9-0.3-1.3-0.5-1.9-0.9v0.6c-0.5-0.1-1.2-0.1-1.7-0.1h-1.7c-0.6,0-1.2,0-1.7,0.1V4.9
			c-0.9,0.6-1.4,0.8-1.7,0.9l-0.8-0.9c1-0.3,1.7-0.6,2.8-1.4c0.8-0.6,1.5-1.4,1.9-2.3L99,1.5c0.1,0,0.2,0.1,0.2,0.2
			c0,0.1-0.1,0.2-0.2,0.2c0.3,0.7,2,2.3,4.5,2.9L102.8,5.8z M99.2,7.5h-0.9c-0.3,0.8-0.8,1.6-1.1,2.1c0.8-0.1,2-0.2,3.1-0.4
			c-0.3-0.3-0.4-0.4-1-0.8l0.8-0.6c1,0.7,1.9,2,2.2,2.6l-0.8,0.7c-0.1-0.3-0.2-0.6-0.6-1.1c-3.6,0.5-3.9,0.6-5.5,0.7
			c0,0.1-0.1,0.3-0.3,0.3c0,0-0.1,0-0.1-0.2l-0.1-1.1c0.6,0,0.8,0,1.1,0c0.3-0.4,0.9-1.2,1.2-2.2h-0.4c-1.2,0-1.7,0-2.7,0.1v-1
			c1,0.1,1.4,0.1,2.8,0.1h2.4c1.3,0,2,0,3.6-0.1v1C102,7.5,101.1,7.5,99.2,7.5z M98.2,2.5c-0.4,0.6-1,1.3-2.1,2.1
			c0.1,0,0.8,0.1,1.3,0.1h1.7c0.4,0,1,0,1.2,0C99.3,3.9,98.9,3.4,98.2,2.5z"/>
		<path class="st0" d="M111.7,7.9c-0.2-0.2-0.7-0.5-1.2-1.1V9c0,0.4,0.1,1.7,0.1,2h-1.1c0.1-1,0.1-1.9,0.1-2V6.9
			c-0.6,0.6-1.2,1-1.6,1.2l-0.7-0.9c2-1.1,2.9-2.4,3.1-3.1h-1.2c-0.5,0-0.9,0-1.4,0.1v-1c0.4,0.1,0.4,0.1,1.3,0.1h0.4V3.1
			c0-0.6,0-0.9,0-1.8l1.2,0.1c0.1,0,0.2,0.1,0.2,0.2c0,0.2-0.2,0.2-0.3,0.3c0,0.3,0,0.8,0,1.3v0.2c0.4,0,0.8,0,1.1-0.1l0.4,0.4
			c-0.2,0.3-0.9,1.5-1.1,1.7c-0.1,0.2-0.2,0.3-0.3,0.4c0.5,0.6,1.1,1,1.8,1.5L111.7,7.9z M115.5,10.5h-1.9c-0.9,0-1.2,0-1.9,0.1v-1
			c0.6,0.1,0.9,0.1,1.9,0.1h0.6V5.4h-0.5c-0.6,0-1.2,0-1.7,0.1v-1c0.7,0.1,1.7,0.1,1.7,0.1h0.5c0-1.7,0-1.9,0-3.4l1.1,0.1
			c0.1,0,0.3,0,0.3,0.2c0,0.1-0.1,0.2-0.2,0.2c0,1.2,0,1.3,0,2.9h0.2c0,0,1,0,1.7-0.1v1c-0.5-0.1-1.2-0.1-1.7-0.1h-0.2v4.2h0.3
			c0.5,0,1.4,0,2-0.1v1C116.8,10.5,116.5,10.5,115.5,10.5z"/>
		<path class="st0" d="M129.6,6.7l-1.1,0.2l0.1,0.3c0.1,0.4,0.8,2.7,1,3.2l-1.4,0.3c0-0.7-0.4-2.4-0.7-3.4l-0.1-0.3l-1.3,0.2
			c-0.7,0.1-2,0.4-2.5,0.6l-0.3-1.2c0.7,0,2-0.2,2.7-0.3l1.1-0.2l-0.4-1.7l-0.7,0.1c-0.7,0.1-1.6,0.4-2.2,0.6l-0.3-1.1
			c0.3,0,0.6,0,1.2-0.1c0.9-0.1,1-0.1,1.1-0.2l0.6-0.1c0,0-0.4-1.4-0.7-2.1l1.3-0.1c0.2,0,0.3,0,0.3,0.1c0,0.1-0.1,0.2-0.2,0.4
			c0.1,0.6,0.2,0.8,0.3,1.5l0.6-0.1c0.9-0.2,1.4-0.4,2-0.6l0.3,1.1c-0.7,0.1-1.3,0.2-2,0.3l-0.6,0.1l0.4,1.7l1.1-0.2
			c0.8-0.1,1.5-0.3,2.3-0.6l0.3,1.1C130.8,6.5,130.2,6.6,129.6,6.7z"/>
		<path class="st0" d="M144.3,2.7c-1.1,1.1-1.4,1.5-2.2,2.1v2.9c0,0.8,0,0.9,0.1,1.8c0,0.7,0,0.9,0.1,1.2h-1.2c0-0.2,0-0.5,0-0.5
			c0-0.4,0-2.2,0-2.6V5.5c-0.9,0.6-1.9,1.2-3,1.6l-1-0.8c0.6-0.2,1.9-0.6,3.7-1.9c1.1-0.8,2.1-1.8,2.9-2.9l1,0.7
			c0.1,0.1,0.1,0.1,0.1,0.2C144.8,2.6,144.6,2.6,144.3,2.7z"/>
		<path class="st0" d="M156.2,6.2h-0.4c0,0.5-0.1,1.5-0.9,2.7c-0.9,1.2-1.9,1.7-2.4,1.9l-1.1-0.8c0.5-0.1,1.7-0.4,2.6-1.6
			c0.7-0.9,0.7-1.7,0.7-2.2h-1.4c-1,0-1.9,0-2.9,0.1V5.2c1,0.1,2.5,0.1,2.9,0.1h1.4c0-0.6,0-1.2-0.1-1.8c-1.1,0.3-1.8,0.5-2.7,0.6
			l-0.7-1c0.7,0,1.6,0,3.1-0.5c0.8-0.3,1.6-0.5,2.4-1l0.8,0.7c0.1,0.1,0.1,0.1,0.1,0.2c0,0.1-0.1,0.1-0.1,0.1c-0.1,0-0.1,0-0.3,0
			C157,2.6,156,3,155.7,3.1c0,1.4,0,1.6,0,2.2h0.4c1,0,2,0,2.9-0.1v1.1C157.8,6.2,156.3,6.2,156.2,6.2z"/>
		<path class="st0" d="M170.2,9.8c0-0.1,0-0.2,0.1-0.6h-2.6c-2.3,0-2.6,0-3.4,0.1V8.2c0.3,0,0.5,0.1,1.6,0.1c0.3,0,1.4,0,1.6,0h2.8
			V4.1h-3c-0.8,0-2.4,0-3.1,0.1V3.1c0.8,0.1,1.7,0.1,2.5,0.1h2.3c0.4,0,0.5,0,0.8,0c0.3,0,1.4,0,1.6,0c-0.1,0.6-0.1,1.5-0.1,2.3v2.2
			c0,0.3,0,1.6,0.1,2.2H170.2z M170.9,2.9c-0.2-0.3-0.8-0.7-1.2-1l0.5-0.6c0.4,0.2,1,0.6,1.3,1L170.9,2.9z M172.7,2.6
			c-0.4-0.5-0.7-0.7-1.2-1l0.5-0.6c0.6,0.3,1.1,0.8,1.3,1.1L172.7,2.6z"/>
	</g>
</g>
</svg>
