<?xml version="1.0" encoding="utf-8"?>
<!-- Generator: Adobe Illustrator 25.1.0, SVG Export Plug-In . SVG Version: 6.00 Build 0)  -->
<svg version="1.1" id="レイヤー_1" xmlns="http://www.w3.org/2000/svg" xmlns:xlink="http://www.w3.org/1999/xlink" x="0px"
	 y="0px" viewBox="0 0 240 47.5" style="enable-background:new 0 0 240 47.5;" xml:space="preserve">
<style type="text/css">
	.st0{fill:#231815;}
</style>
<g id="レイヤー_2_1_">
	<g>
		<g>
			<path class="st0" d="M136.8,31.8c-0.1,0-0.1,0-0.2,0c-0.1,0.1-0.3,0.2-0.4,0.4c-0.1-0.1-0.2,0.2-0.3,0.1l-0.1-0.1
				c-0.2,0.1-0.4,0.2-0.5,0.3c-0.2,0-0.3,0-0.5,0l-0.1,0.1c-0.2,0-0.4,0-0.6,0l-0.1,0.1c-0.1,0-0.2,0-0.3,0l-0.1,0.1
				c-0.2,0-0.4,0-0.6,0c-0.1,0-0.1-0.1-0.2-0.1c-0.1,0-0.1,0.1-0.2,0.1c-0.1,0-0.2-0.1-0.2-0.1c-0.4,0-0.6-0.3-0.9-0.4
				c0-0.1,0-0.2,0-0.2c-0.1-0.1-0.1-0.1-0.2-0.2c-0.1,0-0.1,0-0.2,0c0-0.1,0.1-0.1,0.1-0.1c0-0.1-0.1,0-0.2-0.1c0,0,0-0.1,0-0.2
				l-0.1-0.1c0-0.2,0-0.4,0-0.6l-0.1-0.1v-0.1c0-0.6,0-1.1,0-1.7l0.1-0.1c0-0.1,0-0.2,0-0.4c0,0-0.1-0.1-0.2-0.1l-0.1,0.1
				c-0.2,0-0.3,0-0.4,0c-0.1,0.1-0.2,0.1-0.2,0.2l0.1,0.1c0,0.1-0.1,0.1-0.1,0.2c-0.1-0.1-0.1-0.1-0.2-0.1c-0.1,0.1-0.2,0.1-0.3,0.2
				c-0.1,0.1-0.2,0.1-0.2,0.3c-0.1,0.1-0.2,0.3-0.4,0.3c-0.1,0.1-0.2,0.3-0.3,0.3c-0.2,0.1-0.3,0.2-0.4,0.3
				c-0.2,0.2-0.4,0.2-0.5,0.4v0.1c-0.1,0-0.1,0-0.2,0.1c0,0,0,0.1,0,0.2c-0.2,0.2-0.4,0.4-0.5,0.6c-0.1,0.1-0.3,0.2-0.3,0.4
				c0,0.1-0.3,0.2-0.4,0.3v0.1c-0.1,0-0.1,0-0.2,0.1s0,0.2,0,0.3c-0.2,0.2-0.4,0.5-0.7,0.7c-0.1,0.1-0.1,0.3-0.2,0.4
				c-0.1,0.1-0.2,0.2-0.4,0.4c-0.1,0-0.3,0-0.5,0c-0.1,0.1-0.2,0.2-0.3,0.3c-0.1,0-0.1,0-0.1,0c-0.1-0.1-0.3-0.3-0.4-0.4
				c-0.1-0.2-0.1-0.3-0.2-0.4c-0.1-0.1,0-0.3-0.2-0.4c0-0.2,0-0.4,0-0.6c0,0,0-0.1,0.1-0.1c0-0.1,0-0.2,0-0.3
				c0.1-0.2,0.2-0.4,0.3-0.5c0.1-0.1,0.1-0.1,0.1-0.3l0.1-0.1c0-0.1,0-0.2,0-0.3c0,0,0-0.1,0.1-0.1c0.2-0.2,0.2-0.5,0.3-0.7
				c0-0.1,0-0.2,0-0.2c0.1-0.1,0.1-0.2,0.1-0.3c0.1-0.1,0.2-0.3,0.2-0.5c0.1-0.1,0.1-0.3,0.1-0.4c0.1-0.1,0.1-0.1,0.2-0.2l-0.1-0.1
				v-0.1c0.1-0.1,0.1-0.3,0.2-0.4c-0.1-0.1-0.1-0.1-0.2-0.2c-0.1,0-0.2,0-0.4,0c-0.2,0.2-0.5,0.3-0.6,0.6c0,0,0,0,0,0.1
				c-0.2,0-0.4,0.2-0.6,0.3c-0.1,0-0.1,0.1-0.2,0.2c-0.1,0-0.1,0-0.3,0c-0.1,0.1-0.2,0.3-0.3,0.4c-0.1,0-0.1,0-0.2,0
				c-0.2,0.2-0.3,0.3-0.5,0.5c-0.1,0-0.2,0-0.3,0.1c-0.4,0.2-0.8,0.3-1.2,0.7c-0.1,0-0.1,0-0.2,0l-0.1,0.1c-0.1,0-0.2,0-0.2,0
				c-0.1,0.1-0.2,0.3-0.4,0.3c-0.1,0.1-0.2,0.1-0.3,0.2c-0.1,0.1-0.2,0.1-0.3,0.2c-0.1,0.1-0.2,0.1-0.3,0.2c-0.1,0.2-0.3,0-0.4,0.2
				c-0.1,0.1-0.2,0.1-0.3,0.2c-0.1,0-0.1,0-0.2,0.1s-0.2,0.1-0.3,0.2c-0.2,0-0.4,0-0.7,0l-0.1,0.1c-0.2,0-0.4,0-0.6,0l-0.1-0.1
				c-0.1,0-0.1,0-0.2,0l-0.1-0.1c-0.1,0-0.2,0-0.3,0c-0.1-0.1-0.1-0.1-0.2-0.2c-0.1,0-0.1,0-0.2,0l-0.1-0.1c-0.1,0-0.2,0-0.2,0
				l-0.1-0.1c-0.1,0-0.2,0-0.4,0c-0.1-0.1-0.1-0.1-0.2-0.2c0-0.1-0.1-0.2-0.2-0.2c-0.2-0.1-0.3-0.2-0.4-0.4s-0.1-0.4-0.3-0.4
				c0-0.1,0-0.2,0-0.3l-0.1-0.1c0-0.1,0-0.3,0-0.5l0.1-0.1c0-0.2,0-0.5,0-0.7l0.1-0.1c0-0.4,0-0.4,0.2-0.7c0-0.1,0-0.2,0-0.2
				l0.1-0.1c0-0.1,0-0.2,0-0.2c0.1-0.1,0.1-0.3,0.2-0.4s0.1-0.3,0.3-0.4c0-0.2,0.1-0.3,0.2-0.4s0.2-0.2,0.3-0.3c0.1,0,0.2,0,0.2,0
				s0,0,0.1,0c0.1-0.1,0.2-0.2,0.3-0.3c0.1,0,0.1,0,0.2,0c0-0.1,0-0.1,0-0.2h0.1c0.1,0,0.4-0.1,0.5-0.2l0.1-0.1c0,0,0,0,0.1,0
				c0.1-0.1,0.2-0.2,0.3-0.3c0.2,0,0.3,0,0.5,0l0.1,0.1h0.1c0.1,0.1,0.3,0.3,0.4,0.3c0.1,0.1,0.2,0.1,0.3,0.1
				c0.1,0.2,0.2,0.4,0.3,0.6c0,0-0.1,0.1-0.1,0.2s0,0.2,0,0.3c-0.1,0.2-0.2,0.4-0.3,0.6c-0.1,0-0.2,0-0.3,0
				c-0.2,0.1-0.2,0.2-0.3,0.3c-0.2,0-0.2,0.2-0.3,0.2c-0.1,0-0.1,0-0.2,0c0,0.1,0,0.1-0.1,0.2l-0.1-0.1l-0.1,0.1
				c-0.2,0-0.3,0.1-0.3,0.3c-0.1,0.1-0.1,0.3-0.3,0.4c-0.2,0.1-0.2,0.3-0.3,0.5c-0.1,0.1-0.2,0.3-0.2,0.4c0,0.1-0.1,0.1-0.1,0.1
				c0,0.2,0,0.4,0,0.6c0.1,0.1,0.3,0.3,0.4,0.4c0.4,0,0.9,0,1.3,0l0.1-0.1c0.2,0,0.3-0.1,0.5-0.1s0.3-0.2,0.5-0.1
				c0.2,0.1,0.2-0.2,0.4-0.1c0.1,0,0.2-0.1,0.3-0.1c0-0.1,0-0.1,0-0.2c0.1-0.1,0.3,0,0.3,0c0.1-0.1,0.2-0.1,0.2-0.1
				c0.1,0,0.2-0.1,0.3-0.1c0.1,0,0.3-0.1,0.3-0.1c0.2-0.2,0.4-0.2,0.6-0.5c0.1,0,0.2,0,0.3,0c0.3-0.2,0.7-0.2,0.9-0.5
				c0.1,0,0.2,0,0.2,0l0.1-0.1c0.1,0,0.1,0,0.2,0s0.1-0.2,0.3-0.1c0.2-0.2,0.3-0.3,0.5-0.5c0,0,0.1,0,0.2,0c0.1-0.1,0.1-0.2,0.2-0.2
				s0.2,0,0.3,0c0-0.1,0-0.1,0-0.2c0,0,0.1-0.1,0.2-0.2c0.1,0,0.2,0.1,0.3-0.1c0.1-0.1,0.2,0,0.3-0.1c0.1-0.1,0.2-0.1,0.3-0.2
				c0.1,0,0.2-0.1,0.2-0.1c0.1-0.1,0.1-0.2,0.2-0.3c0.1,0,0.3,0,0.4,0c0-0.1,0-0.1,0-0.2c0.1-0.1,0.3,0,0.4-0.2
				c0.2,0,0.3-0.1,0.4-0.2s0.3-0.1,0.4-0.3c0,0,0.1,0,0.1-0.1c0.1-0.1,0.3-0.2,0.4-0.4c0.1-0.2,0.1-0.4,0.3-0.5
				c0-0.1-0.1-0.1-0.1-0.1c0.2-0.1,0.2-0.5,0.5-0.6c-0.1-0.2,0.1-0.3,0.1-0.5c0.1-0.1,0.1-0.2,0.1-0.4c0.1-0.1,0.2-0.2,0.2-0.3
				c0-0.2,0.1-0.2,0.2-0.3c0.1-0.1,0.1-0.2,0.2-0.3c0.1-0.1,0.1-0.2,0.2-0.3c0.1-0.1,0.1-0.3,0.2-0.4c0.1-0.1,0.2-0.2,0.3-0.3
				c0.1-0.3,0.2-0.5,0.3-0.7c0.1-0.1,0.3-0.3,0.4-0.4c0.1-0.2,0.2-0.4,0.3-0.7c0.1-0.1,0.2-0.1,0.3-0.2c0-0.2,0.1-0.4,0.2-0.5
				c0.1-0.2,0.1-0.4,0.3-0.5c0-0.1,0-0.1,0-0.3c0.1,0,0.2-0.1,0.3-0.1c0,0-0.1,0-0.1-0.1s0.1-0.2,0.1-0.3c0,0,0-0.1,0-0.2
				c0.1-0.1,0.2-0.1,0.2-0.2c0.1-0.2,0.2-0.4,0.3-0.7c0.1,0,0.3-0.1,0.3-0.3c0-0.2,0.3-0.2,0.2-0.4c0.1-0.1,0.1-0.3,0.1-0.4
				c0.1-0.1,0.2,0,0.2-0.1l0.1-0.1c0-0.2,0.2-0.2,0.2-0.4c0-0.1,0.1-0.2,0.1-0.3c0-0.1,0.1-0.2,0.2-0.3c0.1-0.1,0.2-0.1,0.3-0.2
				c0.1,0,0.2,0,0.3,0c0,0.1,0.1,0.2,0.2,0.2c0.1,0,0.2,0,0.3,0c0,0.1,0.1,0.2,0.1,0.2h0.1c0,0.1,0,0.1,0.1,0.2s0.1,0.1,0.2,0.2
				c0,0.7,0,1.3,0,2l0.1,0.1c0,0.2,0,0.4,0,0.6l-0.1,0.1c0,0.2,0,0.3,0,0.5l-0.1,0.1l0.1,0.1l-0.1,0.1l0.1,0.1l-0.1,0.1
				c0,0.1,0,0.1,0,0.2c-0.2,0.3-0.3,0.6-0.5,0.9s-0.2,0.6-0.6,0.8c0,0,0,0-0.1,0c0,0,0,0.1-0.1,0.2s-0.3,0.3-0.4,0.4c0,0,0,0-0.1,0
				c0,0.1,0,0.2,0,0.3c-0.1,0.1-0.2,0-0.3,0.1s-0.1,0.1-0.2,0.2c-0.1,0.1-0.1,0.2-0.1,0.2c-0.1,0-0.1,0-0.2,0c-0.1,0.1,0,0.2,0,0.3
				c-0.1,0.1-0.3,0.1-0.4,0.2c0,0.1,0,0.1,0,0.2c-0.1,0.1-0.2,0.2-0.3,0.3c-0.1,0.1-0.2,0.1-0.3,0.2v0.1c-0.1,0-0.1,0-0.2,0.1
				c0,0.1,0,0.2,0,0.3c0,0-0.1,0-0.2,0.1c-0.1,0.1-0.2,0.2-0.2,0.3c-0.2,0-0.3,0-0.3,0.1l0.1,0.1c-0.1,0-0.2,0.1-0.2,0.1
				c-0.1,0-0.1,0.1-0.2,0.1c0,0.1,0,0.1,0,0.2c0,0-0.1,0-0.2,0c-0.2,0.1-0.2,0.4-0.3,0.6s-0.2,0.4-0.3,0.6s-0.2,0.4-0.3,0.6
				c0,0.1,0,0.2,0,0.3c0,0.1-0.1,0.2-0.1,0.2c-0.1,0.2-0.1,0.4-0.3,0.5s-0.2,0.3-0.3,0.4c0,0.1,0.1,0.2,0.2,0.3
				c0-0.1,0.1-0.2,0.1-0.2l0.1,0.1c0.1-0.1,0.2-0.1,0.3-0.2s0.2-0.1,0.4-0.1c0.1-0.1,0.2-0.2,0.3-0.2c0.2,0,0.2-0.2,0.3-0.2
				s0.2,0,0.3,0c0-0.1,0-0.1,0.1-0.2c0.1,0,0.2,0,0.4,0c0-0.1,0.1-0.2,0.1-0.2c0.2,0,0.2,0,0.3,0l0.1-0.1c0.1,0,0.2,0.1,0.2,0.1
				c0.1,0,0.1,0,0.2,0c0.1,0.1,0.3,0.1,0.4,0.2c0.1,0.1,0.2,0.1,0.3,0.2s0.2,0.2,0.3,0.3c-0.1,0.2,0.2,0.2,0.1,0.4
				c0.1,0.1,0.2,0.2,0.2,0.2l-0.1,0.1c0.1,0.2,0.3,0.4,0.2,0.6l0.1,0.1c0,0.1,0,0.2,0,0.2l0.1,0.1l-0.1,0.1c0,0.1,0,0.2,0,0.4
				c0,0,0,0.1,0.1,0.1c0,0.2,0,0.4,0,0.6c0,0-0.1,0.1-0.1,0.2c0,0.1,0.1,0.1,0.1,0.2c0,0.1,0,0.1,0,0.2c0.1,0.1,0.1,0.2,0.2,0.3
				c0.1,0,0.3,0.1,0.3-0.1c0.2,0,0.4,0,0.6,0l0.1-0.1c0.2,0,0.3,0,0.5,0l0.1-0.1c0.1,0,0.2,0,0.2,0l0.1-0.1c0.3,0,0.6-0.2,0.9-0.4
				c0,0,0.2,0,0.3,0l0.1-0.1c0.1,0,0.2,0,0.2,0l0.1-0.1c0.1,0,0.2,0,0.4,0c0.1-0.2,0.2-0.1,0.4-0.1c0.1,0,0.2-0.1,0.4-0.2
				c0.1,0,0.2,0,0.3,0L138,30c0.1,0,0.1,0,0.2,0l0.1-0.1c0.2,0,0.3,0,0.5,0c0.1-0.1,0.1-0.1,0.2-0.2c0.2,0,0.4-0.1,0.7-0.3
				c0.1,0,0.2,0,0.3,0l0.1-0.1c0.1,0,0.2,0,0.3,0c0.1-0.1,0.2-0.1,0.3-0.2c0.1-0.1,0.3,0,0.4-0.1c0.1-0.1,0.2,0,0.3-0.1
				s0.2-0.1,0.4-0.1c0.1-0.1,0.1-0.2,0.2-0.2c0.1,0,0.1,0,0.2,0l0.1-0.1c0.2,0,0.5,0,0.7,0c0.1-0.1,0.3-0.2,0.4-0.2
				c0.5-0.2,0.5-0.2,0.7-0.4l0.1-0.1c0.2,0.1,0.2-0.2,0.4-0.1c0.2,0,0.2-0.2,0.4-0.1c0.1,0,0.2-0.2,0.4-0.1c0.1-0.2,0.2-0.3,0.3-0.4
				c0.1,0,0.2,0,0.3,0c0.2-0.2,0.3-0.3,0.5-0.5c0.1,0,0.2,0,0.2,0l0.1-0.1c0.1-0.1,0.2-0.2,0.2-0.3c0-0.2,0.2-0.2,0.2-0.4
				c0-0.1,0.1-0.3,0.2-0.3c0.1-0.1,0-0.2,0.1-0.3c0.1-0.1,0.2-0.1,0.3-0.2c0.1,0,0.2,0,0.2,0c0.1,0.2,0.2,0.1,0.4,0.1
				c0.3,0.2,0.5,0.5,0.8,0.7c0,0.1,0,0.2,0,0.2l0.1,0.1c0,0.2,0,0.3,0,0.5l0.1,0.1c0,0.1-0.1,0.1-0.1,0.2s0,0.2,0,0.3
				c0,0,0,0.1-0.1,0.1c-0.1,0.1-0.2,0.1-0.2,0.3c-0.1,0.1-0.1,0.2-0.1,0.3l-0.1,0.1c0,0.2-0.2,0.3-0.2,0.5c-0.2,0.1-0.1,0.3-0.1,0.5
				l-0.1,0.1c0,0,0,0,0,0.1c0,0.3,0,0.5,0,0.8c0.1,0,0.2,0.1,0.3,0.1s0.2-0.1,0.3-0.1l0.1,0.1c0.2,0,0.5,0,0.7,0
				c0.1-0.1,0.3-0.2,0.4-0.2c0.2,0,0.4,0,0.7,0l0.1-0.1c0.1,0,0.2,0,0.3,0l0.1-0.1c0.1,0,0.2,0,0.3,0c0.1-0.1,0.3-0.3,0.4-0.4
				c0.1,0.1,0.1,0.1,0.1,0.1h0.1c0.1,0,0.3,0,0.3,0c0.3-0.1,0.5-0.3,0.8-0.4c0.2,0,0.3-0.1,0.5-0.2c0.1-0.1,0.3-0.1,0.3-0.2
				c0.1,0,0.2,0,0.3,0s0.2-0.1,0.2-0.1l0.2-0.1c0.1,0,0.2-0.1,0.3-0.1s0.2-0.1,0.2-0.1c0.1,0,0.2,0,0.2-0.1l0.1,0.1l0,0
				c0.2-0.2,0.4-0.2,0.6-0.4c0.1,0,0.2,0,0.3,0l0.1-0.1c0.1,0,0.1,0,0.2,0l0.1-0.1c0.2,0,0.3,0,0.5,0l0.1,0.1l0.1-0.1h0.1
				c0.2,0.2,0.4,0.3,0.7,0.3c0,0.1-0.1,0.1-0.1,0.2c0.1,0.1,0.2,0.1,0.2,0.2s0,0.2,0,0.3c-0.1,0.1-0.3,0.2-0.2,0.4
				c-0.1,0-0.1,0-0.2,0c0,0.1,0,0.1-0.1,0.2c-0.2,0.1-0.4,0.2-0.6,0.3c-0.1,0-0.1,0.1-0.2,0.2c-0.1,0-0.2,0-0.2,0
				c-0.1,0.2-0.3,0.3-0.4,0.5c-0.1,0-0.3,0-0.4,0c-0.1,0.2-0.3,0.3-0.6,0.4c0,0-0.1-0.1-0.2-0.1c-0.1,0.1-0.1,0.1-0.2,0.2
				c-0.4,0-0.6,0.3-1,0.4c-0.1,0.1-0.2,0.2-0.3,0.3c-0.1,0-0.2,0-0.4,0l-0.1,0.1c-0.1,0-0.2,0-0.3,0l-0.1,0.1c-0.1,0-0.2,0-0.3,0
				c-0.1,0.1-0.2,0.2-0.3,0.2s-0.2,0-0.2,0c-0.1,0.1-0.1,0.1-0.2,0.2c-0.2,0-0.3,0-0.5,0l-0.1,0.1c-0.2,0-0.4,0-0.6,0l-0.1,0.1
				c-0.2,0-0.3,0-0.4,0c-0.1,0.1-0.3,0.2-0.4,0.2c-0.4,0-0.8,0-1.2,0c-0.1,0-0.1-0.1-0.2-0.1c-0.1,0-0.1,0.1-0.2,0.1
				c-0.1-0.1-0.2-0.1-0.4-0.2c0,0-0.1,0-0.2,0c-0.1-0.1-0.2-0.2-0.3-0.3c-0.1,0-0.2,0-0.3,0c-0.2-0.1-0.2-0.2-0.3-0.4h-0.1
				c-0.1-0.1-0.3-0.2-0.4-0.4c-0.1-0.2-0.3-0.3-0.4-0.4c0-0.1,0-0.2,0-0.3s-0.1-0.1-0.1-0.2l0.1-0.1c-0.1-0.1-0.1-0.4-0.3-0.4
				c-0.1-0.2,0-0.3,0-0.4c0-0.1,0-0.2,0-0.3c-0.1-0.1-0.1,0-0.1,0s-0.1,0-0.2,0.1c0,0-0.1,0.1-0.2,0.2c-0.1,0-0.2,0-0.3,0
				c-0.2,0.2-0.6,0.2-0.8,0.5c-0.1,0-0.2,0-0.3,0c-0.3,0.2-0.6,0.3-0.8,0.4v0.1c-0.1,0.1-0.3,0-0.4,0.2c-0.2,0-0.3,0-0.5,0l-0.1,0.1
				c-0.1,0-0.2,0-0.2,0c0,0.1,0,0.1-0.1,0.2c-0.3,0-0.5,0.2-0.8,0.3c-0.1,0.1-0.2,0-0.3,0.1c0,0.1-0.1,0.2-0.2,0.2
				c-0.2,0-0.3,0-0.4,0l-0.1,0.1c-0.1,0-0.2,0-0.4,0c0,0.1,0,0.1-0.1,0.2c-0.2,0-0.4,0-0.6,0c0,0.1-0.1,0.2-0.1,0.2
				c-0.2,0.1-0.3,0.1-0.4,0.2c0,0-0.1,0-0.2,0l-0.1,0.1c-0.1,0-0.3,0-0.4,0c-0.2,0.1-0.3,0.2-0.4,0.2c-0.1,0-0.2,0-0.3,0
				c0,0.1-0.1,0.2-0.1,0.3C136.8,31.8,136.8,31.8,136.8,31.8z M131.2,20.3c0,0.2,0,0.2,0,0.3c-0.1,0-0.1,0-0.2,0
				c-0.1,0.2-0.2,0.4-0.3,0.6c0.1,0,0.1,0,0.2,0c0-0.1,0-0.1,0.1-0.2c0.2-0.1,0.3-0.1,0.4-0.2c0-0.2,0-0.4,0-0.5
				c0.2,0,0.3-0.1,0.4-0.2c0.1-0.1,0.3-0.1,0.3-0.3c0-0.1,0-0.2,0.1-0.3c0.1-0.1,0-0.2,0.1-0.3c0.2-0.1,0.4-0.2,0.6-0.3
				c0-0.1,0-0.2,0-0.2l0.1-0.1c0-0.1,0-0.2,0-0.2l0.1-0.1l-0.1-0.1l0.1-0.1c0-0.1,0-0.3,0-0.4c-0.1-0.1-0.1-0.2-0.3-0.2
				c-0.1,0.1-0.2,0.1-0.2,0.2s-0.1,0.2-0.2,0.3c0,0.1,0,0.1,0,0.2c-0.2,0.1-0.3,0.3-0.3,0.5c0,0.1,0,0.2-0.1,0.3
				c-0.1,0.1-0.1,0.2-0.2,0.3c-0.1,0.1-0.2,0.2-0.2,0.3c0,0.1,0,0.2,0,0.3c-0.1,0.1-0.2,0.1-0.2,0.2
				C131.3,20.1,131.3,20.2,131.2,20.3z"/>
			<path class="st0" d="M176.8,26.5c-0.1,0-0.2,0-0.3,0l-0.1,0.1c-0.1,0-0.2,0-0.2,0c-0.1,0-0.1-0.1-0.1-0.1c-0.1,0-0.1,0-0.2,0
				c0,0-0.1,0.1-0.2,0.2c0,0,0,0.1,0,0.2c-0.1,0-0.1,0-0.2,0.1c-0.1,0.1-0.1,0.1-0.2,0.2c-0.1,0-0.2,0-0.2,0
				c-0.1,0.1-0.2,0.2-0.3,0.3c-0.2,0-0.2,0.2-0.4,0.2c-0.1,0-0.3,0.1-0.4,0.2c-0.1,0.1-0.2,0-0.3,0s-0.1,0.1-0.2,0.1
				c-0.2-0.1-0.2,0.1-0.4,0.1c-0.1,0-0.2,0.1-0.3,0.2c-0.3-0.1-0.6,0.2-0.9,0.3c0,0.1,0,0.1,0,0.2c-0.1,0.1-0.2,0-0.3,0
				c-0.3,0.1-0.5,0.4-0.9,0.4c-0.1,0.1-0.2,0.2-0.3,0.4c-0.1,0-0.2,0-0.3,0c0,0.1,0,0.1-0.1,0.2c-0.1,0-0.2,0-0.3,0s-0.1,0-0.1,0
				c-0.1,0.2-0.4,0.2-0.6,0.5c-0.1,0-0.1-0.1-0.1-0.1c-0.2,0.1-0.4,0.2-0.6,0.4c-0.1,0-0.2,0-0.3,0c-0.2,0.1-0.2,0.3-0.5,0.4
				c-0.1,0-0.1,0.1-0.2,0.1c-0.1,0-0.2,0-0.3,0c-0.1,0.1-0.2,0.1-0.2,0.3c-0.1,0-0.1,0.1-0.2,0.1c0,0.3-0.2,0.5-0.3,0.8
				c-0.2,0.1-0.1,0.3-0.3,0.4c0,0.2-0.2,0.2-0.2,0.4c0,0.1-0.1,0.3-0.2,0.4c0,0,0,0.1,0,0.2c-0.2,0.2-0.4,0.3-0.5,0.6
				c-0.1,0.2-0.3,0.4-0.5,0.6h-0.1c0,0.1-0.1,0.1-0.2,0.2c0,0.1,0,0.2,0,0.4c-0.1,0.1-0.2,0.1-0.2,0.2c0,0.1,0,0.1,0,0.2
				c-0.1,0-0.1,0-0.2,0.1c0,0.1-0.1,0.2-0.1,0.3s-0.1,0.1-0.2,0.2c-0.1,0-0.2,0.2-0.3,0.2c-0.2,0-0.1,0.1-0.2,0.2l0,0L163,37
				c-0.2,0-0.3,0.3-0.5,0.3l-0.1,0.1c-0.1,0-0.2,0-0.2,0c-0.1,0.1-0.1,0.1-0.2,0.2c-0.1,0-0.2,0-0.3,0c-0.1,0.2-0.4,0-0.5,0.3
				c-0.2,0-0.3,0-0.5,0l-0.1,0.1l-0.1-0.1c-0.1,0-0.1,0-0.2,0c0,0-0.1,0-0.2-0.1c-0.1,0-0.3,0-0.4,0c-0.2-0.1-0.3-0.1-0.4-0.2
				c-0.1-0.1,0-0.3-0.2-0.2c0-0.1,0-0.2,0-0.3c-0.1-0.1-0.2-0.2-0.3-0.3s-0.1-0.2-0.2-0.3c0,0,0.1-0.1,0.1-0.2
				c-0.1-0.1-0.1-0.1-0.1-0.2c0-0.1,0.1-0.2,0.1-0.3c0,0-0.1-0.1-0.1-0.2c0-0.3,0-0.6,0-0.9c0.1,0,0.2-0.1,0.2-0.2
				c0-0.2,0-0.3,0.1-0.4V34c0.2-0.1,0.2-0.3,0.3-0.5c0.1-0.1,0.3,0,0.3-0.2c0.1-0.1,0.2-0.2,0.3-0.2l0.1-0.1c0.1-0.1,0-0.2,0.1-0.2
				s0.1-0.1,0.2-0.2c0.1,0,0.2-0.1,0.2-0.1c0.1-0.1,0.1-0.1,0.2-0.2c0.1-0.1,0.2-0.1,0.2-0.1c0.1-0.1,0.3-0.1,0.3-0.2
				c0.2-0.2,0.4-0.2,0.5-0.4c0.1,0,0.3,0,0.4,0c0-0.1,0-0.1,0-0.2c0.1,0,0.2-0.1,0.3-0.2c0.1,0,0.3,0,0.5,0c0.1-0.1,0.2-0.2,0.3-0.4
				c0.2,0.1,0.4-0.2,0.6-0.1c0.1-0.1,0.2-0.3,0.3-0.4c0.1,0,0.1,0,0.2,0c0.2-0.1,0.2-0.4,0.4-0.5c0-0.1,0-0.2,0-0.3
				c0.1-0.1,0.1-0.3,0.2-0.4c0-0.1,0-0.3,0-0.5c0.1-0.1,0.2-0.1,0.2-0.1c0-0.2,0-0.3,0-0.4c-0.1,0-0.2-0.1-0.3-0.2
				c-0.1,0-0.2,0-0.3,0c-0.1,0.1-0.2,0.1-0.4,0.2c0,0-0.1,0-0.2,0l-0.1-0.1c-0.1,0-0.1,0-0.2,0c0,0-0.1-0.1-0.2-0.1
				c-0.1,0-0.2,0-0.4,0c0-0.1,0-0.1-0.1-0.2s-0.2-0.2-0.3-0.3h-0.1c-0.1-0.2-0.3-0.4-0.4-0.5c0-0.4,0-0.9,0-1.3
				c0.1-0.1,0.1-0.3,0.2-0.4c0-0.2,0.2-0.4,0.1-0.7c0.1-0.1,0.2-0.2,0.2-0.3c0-0.2,0.2-0.2,0.2-0.3c0-0.1,0-0.2,0-0.2
				c0.2-0.2,0.4-0.4,0.5-0.6c0-0.1,0.1-0.2,0.2-0.2c0.2-0.1,0.4-0.2,0.5-0.4c0.1,0,0.2,0,0.2,0c0.1-0.1,0.2-0.2,0.3-0.3h0.1
				c0.1-0.1,0.2-0.1,0.3-0.2l0,0c0.1,0,0.2,0,0.4,0l0.1-0.1c0.2,0,0.4,0,0.6,0L166,22c0.2,0,0.5,0.1,0.7,0.3
				c0.1,0.1,0.3,0.1,0.4,0.3c0.1,0.1,0.2,0.2,0.3,0.3V23c0.1,0.1,0.2,0.1,0.2,0.2c0.1,0.1,0.1,0.2,0.1,0.2c0.1,0.1,0.1,0.2,0.1,0.2
				c0,0.1,0,0.2,0.1,0.2c0,0.2,0,0.3,0,0.5c-0.1,0.2-0.3,0.2-0.4,0.3c-0.1,0-0.2,0-0.3,0c-0.1,0.1-0.1,0.1-0.2,0.1
				c-0.2,0-0.3-0.2-0.3-0.3c-0.2,0-0.4-0.1-0.6-0.3c-0.2,0-0.4,0-0.6,0c-0.1,0.1-0.3,0.3-0.4,0.5c0,0,0,0,0,0.1
				c-0.2,0.1-0.3,0.2-0.4,0.3c-0.1,0-0.2,0-0.3,0c0,0.1,0,0.1,0,0.2c0.1,0.1,0.3,0,0.4,0c0.2-0.1,0.4-0.2,0.7-0.3c0.2,0,0.4,0,0.7,0
				c0,0.1,0.1,0.2,0.2,0.3l0,0c0,0.1,0.1,0.1,0.1,0.2c0.1,0,0.2,0,0.3,0c0,0.1,0.1,0.2,0.1,0.2h0.1c0.1,0.1,0,0.2,0.1,0.3
				c0.1,0,0.2,0.1,0.2,0.2c0,0.2,0,0.3,0,0.4l0.1,0.1c0,0.1-0.1,0.2-0.1,0.3c0,0.1,0,0.2,0,0.3c0,0-0.1,0.1-0.1,0.2s0,0.3,0,0.5
				c-0.1,0.1-0.2,0.2-0.2,0.2c0,0.2,0,0.4,0,0.6c0,0,0,0,0.1,0.1c0.1,0,0.2,0,0.3,0h0.1c0.1-0.2,0.3-0.1,0.4-0.1
				c0.1-0.1,0.2-0.1,0.4-0.2c0.1,0,0.2,0,0.3,0l0.1-0.1c0.1-0.1,0.3,0,0.4-0.1c0.1-0.2,0.3-0.2,0.5-0.3c0.1,0,0.2,0,0.4,0
				c0.1-0.1,0.1-0.2,0.2-0.2c0.1,0,0.2,0,0.3,0c0.1-0.1,0.1-0.2,0.2-0.3c0.1-0.1,0.3-0.2,0.4-0.2c0.4-0.1,0.4-0.1,0.6-0.4
				c0.1,0,0.2,0,0.4,0l0.1-0.1c0.1,0,0.2,0,0.2,0c0.1-0.2,0.3-0.2,0.5-0.4c0.1,0,0.2,0,0.4,0c0-0.1,0-0.1,0-0.2
				c0.1-0.1,0.2,0,0.3-0.1s0.2-0.2,0.2-0.2c0.1,0,0.2,0,0.4,0c0.1-0.1,0.1-0.1,0.2-0.1c0.1,0,0.1-0.1,0.2-0.2c0.1,0,0.2,0,0.3,0
				c0.1-0.1,0.3-0.2,0.4-0.3c0,0,0.1,0,0.2,0l0.1-0.1l0.1,0.1c0.1,0,0.1-0.1,0.2-0.1c0.1,0,0.2,0,0.3-0.1c0,0,0.1,0,0.2-0.1
				c0.1-0.1,0.1-0.1,0.2-0.1l0.1,0.1c0-0.1,0.1-0.2,0.1-0.2c0.1,0.1,0.1,0.1,0.2,0.2c0.1,0,0.2-0.1,0.3-0.1c0-0.1,0-0.1,0.1-0.2
				c0.1,0,0.2,0,0.2,0c0.2-0.3,0.2-0.3,0.6-0.6c0.1,0,0.2,0,0.3,0c0.1-0.1,0.3-0.2,0.4-0.2L179,24c0.1-0.1,0.1-0.2,0.3-0.2
				s0.2-0.2,0.3-0.3c0.1,0,0.2,0,0.2,0c0.3-0.2,0.4-0.5,0.6-0.8c0.2-0.2,0.4-0.4,0.7-0.7c0.1,0,0.3,0,0.5,0l0.1,0.1
				c0.1,0,0.1,0,0.2,0c0.1,0.2,0.2,0.3,0.2,0.5c0.1,0,0.2,0,0.2,0c0.1,0.1,0.1,0.2,0.2,0.3c0,0,0,0.1,0,0.2l0.1,0.1
				c0,0.1,0,0.2,0,0.2l-0.1,0.1c0,0.1,0,0.2,0,0.4c-0.2,0.2-0.3,0.3-0.5,0.5c0.1,0.2-0.2,0.2-0.1,0.4c-0.1,0.1-0.2,0.2-0.3,0.2
				c0,0.1,0,0.1,0,0.3c-0.1,0-0.2,0.1-0.2,0.1c0.1,0.3-0.1,0.4-0.2,0.6c-0.1,0.1-0.1,0.2-0.1,0.3l-0.1,0.1c0,0.1,0,0.2,0,0.3
				l-0.1,0.1c0,0.4,0,0.8,0,1.2c0.1,0.1,0.2,0,0.3,0l0.1,0.1c0.1,0,0.2-0.1,0.2-0.1c0.1,0,0.2,0.1,0.3,0.1c0,0,0.1-0.1,0.2-0.1
				c0.2,0,0.5,0,0.8,0c0-0.1,0-0.1,0-0.2c0.1,0,0.2,0,0.3-0.1c0-0.1,0.2,0,0.3-0.2c0,0,0,0,0-0.1c-0.1-0.2-0.3-0.3-0.5-0.5
				c0-0.1-0.1-0.2-0.1-0.3c0-0.2-0.2-0.2-0.1-0.4c0-0.1,0-0.3,0-0.4c-0.1-0.1-0.1-0.1-0.1-0.1c0-0.1,0-0.2,0-0.4l0.1-0.1
				c-0.1-0.2,0.1-0.3,0.1-0.5c0-0.1,0.1-0.1,0.2-0.2c0-0.1,0-0.2,0.1-0.2c0.1-0.1,0.2-0.3,0.3-0.5c0-0.1,0-0.1,0.1-0.1
				s0.1-0.1,0.2-0.1c0.1-0.1,0.1-0.2,0.2-0.1c0-0.1,0.1-0.2,0.1-0.2c0.1-0.1,0.2-0.3,0.4-0.3v-0.1c0-0.1,0.1-0.2,0.2-0.2
				c0.2,0,0.3-0.2,0.4-0.3c0.1,0,0.2,0,0.2,0c0.1-0.1,0.1-0.1,0.2-0.2c0.1,0,0.2-0.1,0.3,0c0.2,0.1,0.4,0.1,0.5,0.3
				c0.1,0.1,0.3,0.2,0.5,0.3c0.1,0.1,0.2,0.1,0.2,0.1V23c0.1,0.1,0.2,0.2,0.3,0.3c0.1,0.1,0.1,0.2,0.2,0.3c0,0.1,0,0.2,0,0.4
				c0.1,0,0.2,0,0.4,0.1c-0.1,0.1-0.2,0.1-0.3,0.2c0,0.1,0.1,0.2,0.1,0.2l-0.1,0.1l0.1,0.1c-0.1,0.1-0.1,0.2-0.1,0.4l-0.1,0.1
				c0.1,0.1,0.1,0.1,0.1,0.2s0.1,0.1,0.2,0.2c0.1,0,0.2,0.1,0.2,0.1c0.2,0,0.3,0,0.5,0l0.1-0.1l0.1,0.1c0.4,0,0.8,0,1.2,0l0.1-0.1
				l0.1,0.1c0.4,0,0.8,0,1.2,0l0.1-0.1l0.1,0.1c0.8,0,1.5,0,2.3,0c0-0.1,0.1-0.2,0.1-0.3c0,0.1,0.1,0.2,0.1,0.2c0.2,0,0.5,0,0.8,0
				l0.1-0.1c0.1,0,0.2,0,0.4,0l0.1,0.1c0.1,0,0.1-0.1,0.2-0.1c0.1,0,0.1,0.1,0.2,0.1l0.1-0.1c0.1,0,0.1,0.1,0.3,0.1
				c0.1,0,0.2,0,0.3,0c0-0.1,0.1-0.1,0.1-0.2l0.1,0.1c0.3,0,0.5,0,0.8,0l0.1-0.1c0.3,0,0.7,0,1.1,0l0.1-0.1c0.1,0,0.2,0,0.2,0
				l0.1-0.1l0.1,0.1l0.1-0.1c0.2,0,0.5,0,0.7,0l0.1-0.1c0.1,0,0.2,0,0.3,0c0.1-0.1,0.1-0.1,0.2-0.1c0.1,0.1,0.2,0.1,0.3,0.1
				s0.1-0.1,0.2-0.1c0.1,0,0.2,0,0.2,0l0.1-0.1c0.3,0,0.5,0,0.8,0c0,0,0.1-0.1,0.2-0.1c0.3,0,0.7,0,1.1,0l0.1-0.1c0.2,0,0.4,0,0.6,0
				l0.1-0.1c0.1,0,0.2,0,0.3,0l0.1-0.1c0.1-0.1,0.3,0,0.4,0c0.1-0.1,0.1-0.1,0.2-0.2c0.1,0,0.3,0,0.4,0c0.1-0.2,0.4,0,0.4-0.2
				c0.2,0,0.4,0,0.6,0c0,0,0.1,0.1,0.1,0.2c0.1,0.1,0.1,0.3,0.2,0.4c0.1,0.1,0.2,0.2,0.3,0.3c0,0.1,0,0.1,0,0.2c0.1,0,0.1,0,0.2,0.1
				c0,0.2,0,0.3,0,0.5l0.1,0.1c-0.2,0.1-0.1,0.3-0.1,0.4c-0.3,0-0.5,0.2-0.8,0.3c-0.1,0.1-0.3,0.3-0.4,0.4c-0.2,0-0.3,0-0.5,0
				l-0.1,0.1c-0.2,0-0.4,0-0.6,0c-0.2,0.1-0.3,0.2-0.4,0.3c-0.1,0-0.2,0-0.3,0l-0.1-0.1c0,0,0,0.1-0.1,0.1c-0.1-0.1-0.2-0.1-0.4-0.2
				c-0.2,0.1-0.4,0.2-0.6,0.3l-0.1-0.1c-0.1,0-0.1,0-0.2,0c-0.1,0.1-0.3,0.1-0.4,0.1l-0.1,0.1c-0.3,0-0.6,0-0.8,0l-0.1,0.1
				c-0.3,0-0.6,0-0.9,0l-0.1,0.1c-0.1,0-0.3,0-0.5,0l-0.1,0.1c-0.2,0-0.4,0-0.6,0l-0.1,0.1c-0.3,0-0.6,0-0.8,0l-0.1,0.1
				c-0.2,0-0.5,0-0.7,0c-0.1,0-0.1,0.1-0.2,0.1c-0.2,0-0.4,0-0.6,0l-0.1,0.1c-0.1,0-0.3,0-0.4-0.1c-0.4,0-0.8,0-1.2,0l-0.1,0.1
				c-0.1,0-0.2,0-0.4,0l-0.1-0.1c-0.1,0-0.2,0.1-0.3,0.1s-0.1-0.1-0.2-0.1l-0.1,0.1c-0.7,0-1.4,0-2.1,0l-0.1-0.1c-0.1,0-0.3,0-0.5,0
				l-0.1,0.1c-0.1,0-0.2,0-0.4,0l-0.1-0.1l-0.1,0.1c-0.2,0-0.4,0-0.6,0l-0.1-0.1l-0.1,0.1c-0.3,0-0.5,0-0.8,0l-0.1-0.1
				c-0.1,0-0.2,0-0.4,0c-0.1,0-0.1,0.1-0.2,0.1c-0.1-0.1-0.1-0.1-0.2-0.1c-0.4,0-0.7,0-1.1,0c-0.1,0-0.1-0.1-0.2-0.1
				c-0.1,0-0.1,0.1-0.2,0.1c-0.1,0-0.2,0-0.3,0c-0.2,0.2-0.4,0.4-0.6,0.6c-0.1,0-0.2,0-0.3,0c-0.1,0.1-0.2,0.1-0.2,0.2
				c0,0.1-0.1,0.2-0.2,0.2c-0.1,0-0.2,0-0.2,0c-0.1,0.1-0.1,0.2-0.4,0.1c0.1,0.2,0.2,0.2,0.2,0.3s-0.1,0.1-0.2,0.2
				c-0.2,0-0.4,0.1-0.5,0.2c-0.2,0.1-0.4,0.1-0.4,0.3c-0.1,0-0.3,0-0.4,0c-0.1,0-0.1,0.1-0.1,0.1c-0.5,0-0.9,0-1.4,0l-0.1,0.1
				c-0.1,0-0.3,0-0.4,0l-0.1-0.1c-0.1,0-0.2,0-0.4,0c-0.1,0-0.1,0.1-0.1,0.1c-0.2,0-0.2-0.2-0.4-0.2c-0.1,0-0.1-0.1-0.2-0.1
				c-0.3,0-0.4-0.2-0.7-0.2h-0.1c0-0.1-0.1-0.2-0.1-0.2h-0.1c-0.1-0.1-0.1-0.2-0.2-0.3c0-0.1,0-0.2-0.1-0.3c0-0.1,0-0.2,0-0.4
				c-0.1-0.1-0.2-0.2-0.2-0.2c-0.1-0.1,0.1-0.2,0.1-0.3c0,0-0.1-0.1-0.1-0.2s0-0.3,0-0.5l0.1-0.1c0-0.4,0-0.8,0-1.2l0.1-0.1
				l-0.1-0.1l0.1-0.1c-0.1,0-0.1,0-0.2,0l-0.1,0.1c-0.1,0-0.2,0-0.3,0c-0.1,0.1-0.3,0.1-0.4,0.2c-0.1,0-0.4,0-0.6,0
				C176.8,26.4,176.8,26.4,176.8,26.5c-0.1,0-0.2,0.1-0.2,0.1c-0.1,0.1-0.2,0-0.3,0.1s-0.2,0.1-0.2,0.1
				C176.8,26.4,176.8,26.4,176.8,26.5z M162.8,33.1c0,0.1-0.1,0.2-0.1,0.3c-0.3,0.1-0.5,0.4-0.8,0.3c-0.1,0.2-0.1,0.5-0.4,0.6
				c-0.4,0.1-0.6,0.4-0.7,0.8c-0.1,0-0.2,0-0.3,0.1c-0.1,0.3,0.1,0.4,0.3,0.5c0.1-0.1,0.2-0.2,0.3-0.4c0.1,0,0.2,0,0.3-0.1
				c0-0.1,0.1-0.2,0.1-0.3c0.1,0,0.1,0,0.2,0c0.3-0.5,0.9-0.6,1.2-1.1c0-0.1,0-0.1,0-0.2c0.1-0.1,0.2-0.1,0.4-0.2
				c-0.1-0.1-0.2-0.2-0.3-0.3C163,33.1,162.9,33.1,162.8,33.1z"/>
			<path class="st0" d="M73.7,15.2c0.1,0.1,0.2,0.1,0.3,0.1c0.1,0.2,0.2,0.5,0.4,0.6c0,0.1,0,0.1,0,0.2c-0.1,0.1-0.2,0.2-0.3,0.3
				c-0.1,0-0.2-0.1-0.3-0.1c-0.1,0-0.2,0-0.3,0c-0.2,0.2-0.5,0.2-0.7,0.4c-0.2,0.2-0.5,0.2-0.7,0.4c-0.2,0.2-0.5,0.2-0.6,0.5
				c-0.1,0-0.2,0-0.2,0c-0.1,0.1-0.2,0.2-0.3,0.2c-0.1,0.1-0.2,0.1-0.4,0.2l-0.4,0.4c-0.2,0-0.3,0.3-0.5,0.4h-0.1
				c0,0.1,0,0.1-0.1,0.2s-0.3,0-0.4,0.1c-0.2,0.2-0.4,0.4-0.6,0.6h-0.1c0,0,0,0.1-0.1,0.1v0.1c-0.2,0-0.3,0.2-0.5,0.2
				c0,0.1,0,0.1,0,0.2c-0.2,0-0.3,0.2-0.4,0.3c-0.1,0-0.2,0-0.2,0c-0.1,0.2-0.4,0.2-0.6,0.5h-0.3c-0.1,0.1-0.2,0.2-0.3,0.2
				c-0.1,0-0.2,0.2-0.3,0.3h-0.5l-0.5,0.5c-0.1,0-0.2,0-0.2,0c-0.1,0.2-0.4,0.3-0.6,0.4c-0.2,0.2-0.4,0.2-0.7,0.3h-0.4l-0.2,0.4
				c-0.1,0-0.3,0-0.4,0c-0.2,0.2-0.3,0.3-0.5,0.5h-0.3c-0.3,0.2-0.6,0.3-0.8,0.4v0.1c-0.1,0-0.2,0-0.3,0.1c0,0.1,0,0.1-0.1,0.2
				c-0.1,0-0.1-0.1-0.2-0.1c-0.1,0.3-0.3,0.5-0.3,0.8l0.1,0.1c-0.1,0-0.2,0.1-0.2,0.1c0.1,0.1,0.3,0.1,0.4,0.2
				c0-0.1,0.1-0.2,0.1-0.3c0,0.1,0.1,0.2,0.1,0.3h0.5c0.1,0.1,0.2,0.2,0.3,0.1c0-0.1,0.1-0.1,0.1-0.2c0,0,0.1,0,0.1,0.1
				c0,0,0,0.1,0,0.2c0.1-0.1,0.1-0.1,0.2-0.1c0.1,0.1,0.1,0.1,0.2,0.1c0.7,0,1.4,0,2.1,0c0,0,0,0,0.1,0l0.1,0.1c0.2,0,0.5,0,0.7,0
				l0.1,0.1c0.1,0,0.2,0,0.4,0l0.1-0.1l0.1,0.1c0.1,0,0.1,0,0.2,0l0.1,0.1c0.1,0,0.2,0,0.2,0l0.1,0.1c0.2,0,0.4,0,0.6,0l0.1-0.1
				l0.1,0.1c0.5,0,0.9,0,1.4,0l0.1,0.1c0.2,0,0.3,0,0.5,0l0.1-0.1c0.1,0.1,0.3,0.1,0.4,0.2h0.2c0.1,0,0.1,0.1,0.1,0.1
				c0.2,0,0.3,0,0.5,0l0.1,0.1c0.1,0,0.2,0,0.4,0l0.1,0.1c0.1-0.1,0.2-0.2,0.4,0c0.1,0,0.2,0.1,0.2,0.1c0.3,0,0.7,0,1,0
				c-0.1,0.1-0.1,0.1-0.2,0.2c0.1,0.1,0.2,0,0.3,0.1c0,0,0.2,0.1,0.2,0.2s0.1,0.2,0.2,0.3c0.1,0,0.2,0,0.2,0
				c0.1,0.2,0.2,0.5,0.4,0.6c0,0.3,0,0.6,0,0.9c-0.1,0-0.1,0-0.2,0.1s-0.1,0.1-0.2,0.2c-0.1,0-0.2-0.1-0.2-0.1c-0.1,0-0.2,0-0.2,0
				l-0.1,0.1c-0.3,0-0.7,0-1,0c0,0-0.1-0.1-0.2-0.1s-0.2,0-0.3,0c-0.1-0.1-0.3-0.1-0.4-0.2c-0.1-0.1-0.3-0.1-0.3-0.2
				c-0.2,0-0.4,0-0.6,0l-0.1-0.1c-0.1-0.1-0.3,0-0.4,0L69,28.9c-0.1,0-0.2,0-0.4,0c-0.1-0.1-0.2-0.1-0.4-0.2c-0.2,0-0.3,0-0.5,0
				l-0.1-0.1c-0.3,0-0.7,0-1.1,0l-0.1-0.1c-0.5,0-0.9,0-1.4,0c0,0-0.1-0.1-0.2-0.1s-0.1,0.1-0.2,0.1l-0.1-0.1c-0.2,0-0.5,0-0.7,0
				c-0.1-0.1-0.1-0.1-0.2-0.1c-0.1,0-0.2,0.1-0.3,0.2c-0.1,0-0.1-0.1-0.2-0.1c-0.1,0-0.1,0-0.2,0l-0.1-0.1l-0.1,0.1
				c-0.1,0-0.3,0.1-0.4-0.1h-1.7c0,0-0.1,0.1-0.2,0.1c-0.1,0-0.1-0.1-0.2-0.1c-0.1,0-0.1,0-0.2,0l-0.1-0.1c-0.2,0-0.5,0-0.7,0
				l-0.1-0.1c-0.1-0.1-0.3,0-0.4,0c-0.1,0.1-0.2,0.2-0.3,0.3c0,0.1,0,0.1,0,0.2c-0.1,0.1-0.1,0.2-0.1,0.4c-0.1,0.1-0.2,0.1-0.2,0.2
				C58,29.3,58,29.4,58,29.5c0,0,0,0.2,0,0.3l-0.1,0.1c0,0.1,0,0.2,0,0.2l-0.1,0.1c0,0.1,0,0.2,0,0.4c-0.1,0.1-0.1,0.2-0.1,0.3
				s-0.1,0.2-0.1,0.4c0,0.1-0.1,0.2-0.1,0.3c-0.1,0.1-0.1,0.2-0.1,0.3L57.3,32c0,0.1,0.1,0.2,0.2,0.3c0,0,0.1,0,0.2,0.1l-0.1,0.1
				l0.1,0.1c0,0.1-0.2,0.2-0.2,0.4c0,0.1-0.2,0.2-0.2,0.3s-0.1,0.3-0.2,0.4l0.1,0.1c-0.2,0.1-0.2,0.3-0.4,0.5v0.3l-0.6,0.6h-0.8
				c-0.1-0.1,0-0.3-0.1-0.4c0-0.1,0-0.3,0-0.4l-0.1-0.1c0-0.2,0-0.5,0-0.7l-0.1-0.1c0-0.1,0-0.2,0-0.4l0.1-0.1c0-0.1,0-0.2,0-0.3
				l0.1-0.1v-0.1c0.1-0.1,0.1-0.1,0.2-0.2c0-0.2,0-0.4,0-0.6c0-0.1,0.1-0.1,0.1-0.1c0-0.1,0-0.3,0-0.4c0.1-0.1,0.1-0.2,0.1-0.3
				c0.3-0.2,0.3-0.5,0.4-0.7c0-0.3,0.2-0.4,0.1-0.7c0-0.1,0.1-0.1,0.1-0.2c0-0.1,0-0.1,0-0.2l0.1-0.1c0-0.1,0-0.2,0-0.4l0.1-0.1
				l-0.1-0.1c0.1-0.1,0.1-0.2,0.2-0.4c0,0-0.1-0.1-0.1-0.2c-0.1,0-0.2,0-0.3,0l-0.1,0.1c-0.1-0.1-0.3-0.1-0.4-0.2c0,0-0.1,0-0.2,0
				l-0.1,0.1c-0.1-0.1-0.3-0.1-0.4-0.2c-0.1,0-0.2,0-0.3,0s-0.2,0.1-0.2,0.1c-0.1-0.1-0.1-0.1-0.2-0.1c-0.1,0-0.3,0-0.5,0l-0.1,0.1
				c-0.1,0-0.2,0-0.4,0l-0.2,0.2c-0.1,0.1-0.2,0-0.4,0c-0.1,0-0.2,0-0.3,0c0,0.1-0.1,0.1-0.1,0.2c-0.2,0-0.3,0-0.5,0
				c-0.1,0.2-0.3,0.3-0.5,0.4c-0.4-0.2-0.4-0.2-0.5-0.4c-0.1,0-0.1,0-0.2,0c-0.1-0.1-0.1-0.2-0.2-0.4c0,0,0.1-0.1,0.1-0.2
				c0-0.2,0-0.4,0-0.6l-0.1-0.1c0.1-0.1,0.1-0.3,0.1-0.4c0.2-0.1,0.3,0,0.5,0c0,0,0.1,0,0.1-0.1c0.1-0.1,0.2-0.3,0.3-0.3
				c0.2,0,0.2-0.2,0.4-0.3v-0.6c0.1-0.1,0.1-0.2,0.2-0.3c0.2,0,0.3,0,0.5,0l0.1,0.1c0.2,0,0.3,0,0.5,0l0.1,0.1c0.1,0,0.2,0,0.2,0
				l0.1-0.1c0.1,0,0.1,0,0.2,0c0.2-0.1,0.4-0.2,0.5-0.4h0.3c0.2-0.1,0.4-0.2,0.5-0.4c0.2,0,0.4,0,0.6,0c0.1-0.1,0.2-0.2,0.4-0.3
				c0.1,0,0.2-0.2,0.3-0.3h0.6c0.1-0.1,0.2-0.1,0.3-0.2s0.2-0.1,0.3-0.1c-0.1-0.1-0.1-0.1-0.1-0.1l0,0c0.1,0,0.2,0,0.4,0l0.4-0.2
				c0.1-0.1,0-0.3,0.1-0.4s0.1-0.2,0.2-0.3v-0.3c0.1-0.1,0.1-0.2,0.2-0.3c0.1-0.1,0-0.2,0.1-0.3c0-0.1,0.1-0.1,0.1-0.3
				c0-0.1,0.1-0.2,0.1-0.3c0-0.1,0-0.2,0-0.4l0.1-0.1c0-0.1,0-0.2,0-0.3l0.1-0.1c0-0.1,0-0.3,0-0.5l0.1-0.1c0-0.2,0-0.3,0-0.4
				l0.5-0.9c0-0.1,0-0.2,0-0.3l0.1-0.1c0-0.1,0-0.3,0-0.5l0.1-0.1c0-0.1,0-0.2,0-0.4l0.1-0.1c0-0.2,0-0.3,0-0.5l0.1-0.1
				c0.1-0.1-0.1-0.3,0.1-0.4c0.1-0.1,0-0.3,0.2-0.4c0-0.1,0-0.2,0-0.4l0.1-0.1c0-0.1,0-0.3,0-0.5c0.1-0.1,0.1-0.3,0.2-0.4v-0.7
				c0.1-0.1,0.1-0.2,0.1-0.4c0.1-0.1,0.2,0,0.3-0.1c0.1,0.1,0.2,0.2,0.3,0.2s0.2,0,0.2,0c0,0.1,0,0.1,0.1,0.2
				c0.3,0.2,0.4,0.5,0.6,0.8c0,0.1,0,0.3,0,0.4l0.1,0.1c0,0.2,0,0.4,0,0.6c0,0,0,0.1-0.1,0.1v0.1c0,0.1,0,0.3,0,0.4l-0.1,0.1
				c0,0.1,0,0.2,0,0.4l-0.1,0.1c0,0.1,0,0.2,0,0.3L62,16.7c0,0.1,0,0.2,0,0.3l-0.1,0.1c0,0.1,0,0.2,0,0.2l-0.1,0.1
				c0,0.1,0,0.2,0,0.2l-0.1,0.1c0,0.1,0,0.2,0,0.3l-0.1,0.1c0,0.1,0,0.2,0,0.3c-0.1,0.1-0.1,0.3-0.2,0.4v0.6l-0.2,0.2
				c0,0.2,0,0.4,0,0.5l-0.1,0.1l0.1,0.1l-0.1,0.1c0,0.1,0,0.3,0,0.5L61,21c0,0.1,0,0.2,0,0.3h0.1c0.1,0,0.2-0.1,0.3-0.1
				c0.1-0.1,0.2-0.1,0.3-0.1c0.2-0.1,0.4-0.1,0.5-0.4c0.1,0,0.2,0,0.3,0l0.1-0.1c0.2,0,0.3,0,0.5,0c0.1-0.1,0.1-0.2,0.2-0.2
				c0.1,0,0.2,0,0.2-0.1c0.1,0,0.2,0,0.4,0c0.1-0.1,0.2-0.2,0.2-0.2c0.1,0,0.2,0,0.3,0c0,0,0.1,0,0.1-0.1c0.1-0.1,0.3-0.1,0.4-0.2
				s0.2-0.2,0.3-0.2c0,0,0,0,0.1,0c0.1-0.1,0.2-0.3,0.3-0.3c0.2-0.1,0.3-0.2,0.4-0.3h0.3c0.1-0.1,0.3-0.2,0.4-0.4c0,0,0,0,0.1,0
				s0.2-0.1,0.3-0.2c0.1-0.1,0.3-0.3,0.5-0.5c0.2,0,0.3-0.2,0.5-0.2c0,0,0,0,0.1,0c0.2-0.3,0.6-0.3,0.9-0.6c0.1,0,0.2,0,0.2-0.1
				c0.1-0.2,0.4-0.2,0.5-0.4c0.1,0,0.2,0,0.3,0l0.1-0.1c0.1,0,0.2,0,0.2,0c0.1-0.2,0.3-0.2,0.4-0.3c0.1-0.1,0.3-0.1,0.4-0.2
				s0.3-0.1,0.3-0.2c0.2,0,0.2-0.1,0.4-0.2c0.1,0,0.2,0,0.4,0c0-0.1,0-0.1,0-0.2c0.1-0.1,0.1,0.1,0.1,0.1c0.1,0,0.2,0,0.3,0l0.1-0.1
				L73.7,15.2z"/>
			<path class="st0" d="M86.1,25.1c0,0.1,0,0.2,0,0.2l0.1,0.1c0.1,0.2-0.1,0.3-0.1,0.5c0,0.1-0.1,0.3-0.2,0.5
				c-0.1,0-0.2,0.2-0.3,0.2c0,0.1,0,0.2,0,0.2c-0.1,0.1-0.1,0.1-0.2,0.2s0,0.2-0.1,0.2c-0.1,0.1-0.1,0.1-0.1,0.2s-0.1,0.1-0.1,0.3
				c-0.1,0.1-0.3,0.3-0.4,0.4c-0.1,0.3-0.3,0.4-0.4,0.6c0,0.1,0,0.2,0,0.4l-0.1,0.1c0,0.2-0.1,0.4-0.2,0.7c0.1,0,0.2,0,0.3,0
				l0.1,0.1c0.1,0,0.2,0,0.3,0c0.1,0,0.1,0.1,0.2,0.1S85,30,85.1,30c0.1,0.1,0.2,0.1,0.4,0.2c0.1,0,0.2,0,0.3,0l0.1-0.1l0.1,0.1
				c0.2,0,0.3,0,0.5,0l0.1-0.1c0.1,0,0.2,0,0.4,0l0.1-0.1c0.1,0,0.2,0,0.3,0c0.1-0.1,0.3-0.1,0.4-0.2c0.2,0,0.2-0.2,0.4-0.1
				c0.1,0,0.2-0.1,0.3-0.1c0.1,0,0.2-0.1,0.3-0.1c0.1,0,0.2-0.1,0.3-0.1c0.1,0,0.1,0,0.1-0.1c0.1-0.2,0.3-0.2,0.4-0.3s0-0.2,0.1-0.2
				s0.2-0.1,0.2-0.2c0.1-0.1,0.2-0.1,0.2-0.1c0.1-0.1,0.2-0.1,0.3-0.2c0.1-0.1,0.2-0.2,0.3-0.2c0.1-0.1,0.2-0.1,0.4-0.2
				c0.1-0.1,0.3-0.2,0.4-0.4c0.1,0,0.2,0,0.2,0c0.1-0.1,0.2-0.2,0.3-0.2c0.1,0,0.2-0.1,0.3-0.1c0.2,0,0.3-0.1,0.5-0.2
				c0.2,0,0.4,0,0.7,0c0,0.1,0,0.1,0.1,0.2c0.1,0,0.2,0,0.3,0c0.1,0.1,0.1,0.3,0.2,0.4C94,27.7,94,27.7,94,27.8s0,0.2,0,0.3
				c-0.1,0.1-0.1,0.2-0.2,0.3c-0.1,0.1-0.2,0.2-0.3,0.4c-0.1,0-0.2,0-0.3,0.1c0.1,0.1,0.1,0.1,0.1,0.1v0.1c-0.1,0-0.1,0-0.2,0.1
				c0,0,0,0-0.1,0.1v0.1c-0.1,0.1-0.2,0.3-0.3,0.3c-0.2,0-0.2,0.1-0.3,0.2c-0.1,0.1-0.2,0.1-0.3,0.2c-0.1,0.1-0.2,0.2-0.4,0.3
				c-0.1,0.1-0.3,0.1-0.4,0.2c-0.1,0-0.1,0.1-0.2,0.2c0,0.2-0.2,0.3-0.3,0.4h-0.1c0,0.1,0,0.1-0.1,0.2c0,0-0.1,0-0.2,0
				c0,0.1,0,0.1-0.1,0.2c-0.1,0-0.2,0-0.4,0c-0.1,0.1-0.2,0.3-0.3,0.4c-0.2,0-0.3,0-0.4,0l-0.1,0.1c-0.1,0.1-0.3,0-0.4,0
				c-0.1,0.2-0.4,0.3-0.6,0.5c-0.1,0-0.2,0-0.4,0c-0.1,0.1-0.2,0.2-0.3,0.3c-0.1,0-0.1-0.1-0.3-0.1c-0.6,0-1.2,0-1.9,0
				c-0.1,0.1-0.2,0.1-0.3,0.1l-0.1-0.1c-0.1,0-0.2,0-0.3,0l-0.1-0.1c-0.3,0-0.5,0-0.8,0l-0.1-0.1c-0.1,0-0.2,0-0.2,0l-0.1-0.1
				c-0.1,0-0.2,0-0.3,0c-0.2-0.1-0.3-0.2-0.5-0.2c0,0-0.1,0-0.2-0.1h-0.1c-0.1-0.1-0.2-0.1-0.2-0.3s-0.2-0.3-0.1-0.5l-0.1-0.1
				c0-0.1,0-0.2,0-0.3c-0.1,0-0.3,0-0.4,0c-0.1,0.2-0.3,0.3-0.4,0.5c-0.2,0-0.4,0-0.5,0c-0.1,0.1-0.2,0.1-0.3,0.2
				c-0.1,0.1-0.1,0.2-0.3,0.2c-0.1,0-0.2,0.1-0.3,0.2h-0.1c0,0.1-0.1,0.2-0.1,0.2h-0.1c-0.2,0.2-0.3,0.3-0.5,0.5
				c-0.2,0.1-0.5,0.2-0.7,0.4c-0.1,0-0.2,0-0.2,0c0,0.1,0,0.1,0,0.2c-0.1,0.1-0.3,0.1-0.4,0.2v0.1c-0.1,0.1-0.2,0.1-0.3,0.2
				c0,0-0.1,0-0.2,0L76.8,34c-0.1,0.1-0.3,0-0.4,0c-0.2-0.1-0.2-0.4-0.4-0.5c0-0.1,0-0.3-0.1-0.3c0-0.2,0-0.4,0-0.6
				c0,0-0.1-0.1-0.1-0.2c0-0.1,0-0.2,0-0.3c0,0,0,0,0.1-0.1s0.3-0.1,0.4-0.3c0.1-0.1,0.2-0.2,0.3-0.3h0.1c0.1-0.2,0.3-0.2,0.5-0.4
				c0.1-0.1,0.2-0.1,0.3-0.1c0.1-0.1,0.2-0.2,0.3-0.3c0.1-0.1,0.1-0.1,0.2-0.2c0.1,0,0.2,0,0.4,0c0-0.1,0.1-0.2,0.2-0.2s0.2,0,0.3,0
				c0.2-0.2,0.3-0.4,0.5-0.5c0.3-0.1,0.5-0.3,0.8-0.4c0,0,0-0.1,0.1-0.2c0.1-0.1,0.2,0,0.2-0.1c0.1-0.1,0.2-0.1,0.3-0.2
				c0.1-0.1,0.2,0,0.3-0.1c0,0,0-0.1,0-0.2c0.1-0.1,0.2,0,0.3-0.1c0.1-0.1,0.1-0.2,0.2-0.2s0.2-0.1,0.3-0.2c0.1-0.1,0.2-0.2,0.3-0.3
				l0,0c0.2,0,0.3-0.1,0.4-0.2c0-0.2,0.1-0.3,0.3-0.4c0.1-0.1,0.1-0.3,0.2-0.4s0.1-0.3,0.2-0.4s0.2-0.2,0.3-0.3
				c0.1-0.2,0.1-0.3,0.2-0.4s0.2-0.2,0.2-0.3c0-0.1,0-0.2,0.1-0.2c0-0.1,0.1-0.2,0.2-0.3c0.1,0,0.3,0,0.4-0.1c0.1,0,0.2,0,0.4,0
				c0.1,0.2,0.3,0.2,0.5,0.3c0.1,0,0.2,0,0.4,0C86,25.1,86,25.1,86.1,25.1C86,25,86,25.1,86.1,25.1z"/>
			<g>
				<path class="st0" d="M96.9,30.6l-0.1-0.1c0-0.1,0-0.3,0-0.5l0.1-0.1l-0.1-0.1c0-0.2,0-0.4,0-0.6l0.1-0.1c0-0.3,0-0.6,0-1L97,28
					c0-0.2,0-0.3,0-0.5c0.1-0.1,0.2-0.3,0.2-0.4c0-0.2,0.1-0.3,0.2-0.5c0-0.1,0.1-0.3,0.2-0.4s0.1-0.3,0.2-0.4
					c0.1-0.2,0.1-0.3,0.3-0.4c0-0.1,0-0.2,0-0.3V25c0.2-0.2,0.3-0.4,0.4-0.7c0.1-0.2,0.2-0.5,0.4-0.6c0,0,0-0.2,0.1-0.2h0.1
					c0-0.1,0-0.1,0.1-0.2c0.2,0,0.3,0,0.5,0c0,0.1,0.1,0.2,0.2,0.3c0,0,0,0,0.1-0.1c0,0.1,0,0.1,0,0.2c0.1,0.1,0.2,0,0.3,0.2
					c0.1,0.1,0.2,0.1,0.2,0.1c0.1,0,0.1,0.2,0.2,0.3c0,0.1,0,0.3,0,0.4l-0.1,0.1c-0.1,0.1,0,0.3,0,0.4c-0.1,0.1-0.1,0.2-0.1,0.4
					c-0.1,0.1-0.1,0.1-0.2,0.2c0,0.3-0.2,0.5-0.3,0.8c-0.1,0-0.1,0-0.2,0.1c0,0.1-0.1,0.2-0.1,0.4c0,0,0,0.2,0,0.3
					c-0.1,0-0.1,0-0.2,0c0,0-0.1,0.1-0.1,0.2s0,0.2,0,0.4c-0.1,0.1-0.3,0.2-0.4,0.3c0,0.2,0,0.3,0,0.4c-0.1,0.1-0.1,0.1-0.2,0.2
					c0,0.2,0,0.4,0,0.6l-0.1,0.1c0,0.1,0.1,0.2,0.1,0.3c0.1,0.1,0.2,0,0.3-0.1c0.2,0,0.4,0,0.6,0l0.1-0.1c0.1,0,0.2,0,0.3,0
					c0.1-0.1,0.3-0.2,0.4-0.3c0.1,0,0.2,0,0.3,0l0.1-0.1c0.1,0,0.2,0,0.2,0l0.1-0.1c0.1,0,0.1,0.1,0.2,0.1c0.1-0.1,0.3-0.2,0.5-0.3
					c0.2,0,0.4,0,0.6,0c0.1-0.2,0.4-0.3,0.6-0.5c0.2,0,0.3,0,0.4,0c0.1-0.1,0.3-0.2,0.4-0.3c0.1,0,0.2,0,0.3,0
					c0.1-0.1,0.2-0.2,0.3-0.2c0.2,0.1,0.4-0.2,0.6-0.1c0.1-0.1,0.3-0.2,0.5-0.3c0-0.1,0-0.1,0-0.2l0,0c0.2,0,0.5,0,0.7,0
					c0-0.1,0-0.1,0.1-0.2s0.2,0,0.3,0l0.1-0.1c0.1,0,0.2,0,0.3,0c0,0,0-0.1,0.1-0.3c0,0,0.1,0.1,0.2,0c0.1-0.2,0.3-0.3,0.4-0.5
					c0.1,0,0.2,0,0.2,0c0.1-0.1,0.2-0.2,0.3-0.4c0.1,0,0.2,0,0.3,0c0.2-0.1,0.2-0.3,0.4-0.3c0.1-0.1,0.3-0.1,0.4-0.2
					c0,0,0.1,0,0.2-0.1s0.2-0.3,0.3-0.3c0.2,0,0.3-0.2,0.4-0.3c0.1-0.1,0.2-0.2,0.3-0.3v-0.1c0.2-0.1,0.2-0.1,0.5-0.5
					c0-0.1,0-0.2,0-0.3c0,0,0.1-0.1,0.1-0.2c0.1-0.1,0.2,0,0.3,0c0.1,0,0.2,0,0.2,0c0.1,0.1,0.1,0.1,0.2,0.2c0,0.1,0,0.2,0,0.3
					c0.1,0,0.2,0,0.3,0.1c0,0.1,0.1,0.2,0.2,0.3c0,0.1,0,0.2,0,0.3c0,0.1,0.2,0.2,0.1,0.3c-0.1,0-0.1,0.1-0.2,0.1l0.1,0.1l-0.1,0.1
					c0,0.1,0,0.2,0,0.2c-0.1,0-0.1,0-0.2,0.1c0,0,0,0.1,0,0.2c-0.1,0.1-0.3,0-0.4,0.1c0,0.1-0.1,0.2-0.1,0.2c-0.1,0-0.2,0-0.3,0
					c-0.1,0.2-0.3,0.3-0.4,0.4c-0.1,0-0.2,0.1-0.2,0.1c-0.1,0-0.1,0.1-0.2,0.1c-0.1,0.1-0.2,0.2-0.2,0.3c-0.1,0-0.1,0-0.1,0
					c-0.1,0.1-0.2,0.2-0.3,0.4c-0.1,0-0.1,0-0.3,0c-0.1,0.1-0.1,0.2-0.2,0.2s-0.1,0-0.2,0c-0.1,0.1-0.2,0.3-0.3,0.3
					c-0.2,0.1-0.3,0.2-0.4,0.3c-0.2-0.1-0.3,0.1-0.5,0.1c-0.2,0.1-0.3,0.4-0.6,0.5c-0.2,0.1-0.3,0.3-0.5,0.5c-0.1,0-0.2,0-0.3,0.1
					c-0.1,0.1-0.2,0.1-0.3,0.2c-0.1,0.1-0.3,0.1-0.5,0.1c0,0.1,0,0.2,0,0.3c-0.1,0.1-0.3,0-0.4,0l-0.1,0.1c-0.1,0-0.2,0-0.2,0
					L105,30c-0.1,0-0.2,0-0.3,0c0,0,0,0-0.1,0c-0.1,0.1-0.2,0.2-0.3,0.3c-0.1,0-0.2,0-0.3,0.1c-0.1,0-0.1,0.1-0.2,0.1l-0.1-0.1
					c-0.1,0.1-0.2,0.3-0.3,0.3c-0.2,0.1-0.3,0.2-0.4,0.3c-0.1,0-0.2,0-0.3,0c-0.1,0.1-0.3,0.2-0.4,0.3c-0.1,0-0.2,0-0.3,0
					c-0.1,0.1-0.1,0.1-0.2,0.2c-0.1,0-0.2,0-0.3,0l-0.1,0.1c-0.2,0-0.3,0-0.5,0l-0.1,0.1l-0.1-0.1c0,0.1,0,0.1-0.1,0.2
					c-0.1,0.1-0.3,0-0.4,0.2c-0.2-0.1-0.3,0.1-0.4,0.1L99.7,32c-0.1,0-0.1,0.1-0.1,0.2c-0.1,0.1-0.2,0-0.3,0.1
					c-0.1,0-0.1-0.1-0.1-0.1c-0.2,0-0.3,0-0.5,0c-0.1-0.1-0.1-0.1-0.2-0.1s-0.1-0.1-0.2-0.2c-0.3,0-0.5-0.2-0.8-0.3
					c0-0.1,0-0.1,0-0.2c-0.1-0.1-0.2-0.2-0.3-0.3C96.9,30.9,96.9,30.8,96.9,30.6z"/>
				<path class="st0" d="M101.3,21.9c-0.1,0.1-0.2,0.2-0.2,0.2c-0.2,0-0.3,0-0.5,0l-0.1,0.1c-0.2-0.1-0.5-0.2-0.8-0.4
					c-0.1-0.1-0.2-0.3-0.3-0.5c0-0.1,0-0.3,0-0.4l-0.1-0.1c0-0.1,0-0.2,0-0.2l0.1-0.1c0.1-0.1,0-0.2,0.1-0.3c0.1-0.1,0-0.2,0.1-0.3
					c0-0.1,0.1-0.2,0.1-0.3c0.1-0.1,0.2-0.3,0.2-0.5s0.1-0.3,0.1-0.4s0.1-0.2,0.2-0.3h0.1c0.1-0.1,0-0.2,0.1-0.3
					c0.1-0.1,0.1-0.2,0.1-0.3c0.1,0,0.1,0,0.2,0c0.1-0.1,0.1-0.3,0.2-0.4c0.2-0.2,0.2-0.5,0.5-0.6c0.1,0,0.3,0,0.4,0
					c0.3,0.1,0.5,0.2,0.8,0.4c0.2,0.2,0.3,0.3,0.5,0.5c0,0,0,0.1,0,0.2l0.1,0.1c0,0.1,0,0.2,0,0.2l-0.1,0.1c0,0.3-0.2,0.5-0.3,0.8
					c-0.1,0.1,0,0.2-0.1,0.3c-0.3,0.2-0.3,0.6-0.5,0.9c0,0.1,0,0.2,0,0.3c-0.1,0-0.2,0.1-0.2,0.1c0,0.2,0,0.3,0,0.3
					c-0.1,0.1-0.1,0.3-0.2,0.4c0,0.1,0,0.2,0,0.4c-0.1,0-0.2,0-0.2,0.1C101.5,21.9,101.4,21.9,101.3,21.9z"/>
			</g>
			<path class="st0" d="M88.9,16.1L88.9,16.1l0.2,0.1c0,0,0,0.1,0.1,0.2c0.2,0,0.3,0.2,0.4,0.3c0.1,0.2,0.1,0.2,0.2,0.3
				c0,0.1,0,0.2,0,0.4c-0.1,0.2-0.2,0.4-0.2,0.6c-0.1,0-0.2,0.1-0.2,0.2s0,0.2,0,0.3c-0.1,0.1-0.2,0.1-0.2,0.2s0,0.2,0,0.2
				c-0.2,0.2-0.1,0.5-0.3,0.8l0.1,0.1c-0.1,0.1-0.2,0.2-0.3,0.3c-0.1,0-0.1,0-0.2,0c-0.1,0.1-0.2,0.2-0.2,0.2c-0.3,0-0.6,0-0.8,0
				c-0.1-0.1-0.2-0.1-0.3-0.2c0,0,0-0.1-0.1-0.2c-0.1,0-0.1,0-0.2,0c-0.1-0.2-0.2-0.3-0.3-0.6c0-0.1,0-0.2,0-0.4c0-0.2,0-0.3,0-0.5
				c0.1-0.1,0.1-0.2,0.1-0.4c0.1-0.1,0.2-0.2,0.4-0.2l0,0c0.1,0,0.1,0,0.2-0.1c0-0.1,0-0.2,0-0.4c0.1,0,0.2-0.1,0.2-0.1l-0.1-0.1
				c0.1-0.2,0.2-0.4,0.3-0.6h0.1c0.2-0.3,0.2-0.6,0.4-0.8c0.1,0,0.2,0,0.3,0c0.1,0.1,0.1,0.2,0.2,0.2C88.7,16.1,88.8,16.1,88.9,16.1
				z"/>
			<path class="st0" d="M150.4,18.2c0.3-0.2,0.3-0.6,0.5-0.8h0.1c0.1,0.2,0.4,0.2,0.5,0.4c0.1,0.2,0.2,0.4,0.3,0.5c0,0,0,0.1,0,0.2
				c0.1,0,0.2,0.1,0.2,0.2c0,0.3,0,0.5,0,0.8l-0.1,0.1c0,0.1,0,0.2,0,0.2l-0.1,0.1c0,0.2,0,0.4,0,0.6l-0.1,0.1l0.1,0.1v0.1
				c-0.1,0.1-0.3,0.3-0.5,0.5c0,0-0.2-0.1-0.2,0.1c-0.4,0-0.8,0-1.2,0c0,0-0.1-0.1-0.2-0.2c0-0.3,0-0.6,0-0.9l0.1-0.1
				c0.1-0.2-0.1-0.4,0.1-0.6c0.1-0.1,0-0.3,0.2-0.4c0-0.2,0-0.3,0-0.5c0.1,0,0.1,0,0.2,0c0,0,0-0.1,0-0.2l0.1-0.1
				C150.4,18.4,150.4,18.3,150.4,18.2z"/>
		</g>
	</g>
</g>
</svg>
