<?xml version="1.0" encoding="utf-8"?>
<!-- Generator: Adobe Illustrator 26.5.0, SVG Export Plug-In . SVG Version: 6.00 Build 0)  -->
<svg version="1.1" id="レイヤー_1" xmlns="http://www.w3.org/2000/svg" xmlns:xlink="http://www.w3.org/1999/xlink" x="0px"
	 y="0px" viewBox="0 0 184.4 172.6" style="enable-background:new 0 0 184.4 172.6;" xml:space="preserve">
<style type="text/css">
	.st0{opacity:0.14;fill:#FF0348;}
	.st1{fill:#FF0348;}
</style>
<g>
	<polygon class="st0" points="171.4,55.2 120.2,55.2 120.2,4 64.2,4 64.2,55.2 13,55.2 13,111.2 64.2,111.2 64.2,162.4 120.2,162.4 
		120.2,111.2 171.4,111.2 	"/>
	<path d="M48.1,143.5c0,0.5,0,1.1,0,1.9s0,1.4,0,1.9c0,0.5,0.1,0.9,0.1,1.2c0.1,0.3,0.1,0.6,0.2,0.8c0.1,0.2,0.2,0.4,0.4,0.5
		c0.2,0.3,0.5,0.5,0.8,0.6c0.3,0.1,0.7,0.2,1.1,0.2c0.8,0,1.4-0.2,1.8-0.6c0.4-0.4,0.7-1,0.9-1.6h3.1c-0.1,0.8-0.4,1.6-0.7,2.2
		s-0.8,1.1-1.3,1.6s-1.1,0.7-1.8,0.9s-1.3,0.3-2.1,0.3c-0.9,0-1.7-0.1-2.4-0.4c-0.7-0.3-1.3-0.7-1.9-1.3c-0.4-0.4-0.7-0.8-0.9-1.3
		s-0.4-0.9-0.5-1.5c-0.1-0.5-0.1-1.1-0.2-1.7c0-0.6,0-1.2,0-1.9c0-0.7,0-1.3,0-1.9c0-0.6,0.1-1.2,0.2-1.7c0.1-0.5,0.2-1,0.5-1.5
		s0.5-0.9,0.9-1.3c0.6-0.6,1.2-1,1.9-1.3c0.7-0.3,1.5-0.4,2.4-0.4c0.7,0,1.4,0.1,2.1,0.3c0.6,0.2,1.2,0.5,1.7,0.9
		c0.5,0.4,0.9,0.9,1.3,1.6s0.6,1.4,0.7,2.2h-3.1c-0.2-0.6-0.5-1.2-0.9-1.6c-0.4-0.4-1-0.6-1.8-0.6c-0.4,0-0.8,0.1-1.1,0.2
		c-0.3,0.1-0.6,0.3-0.8,0.6c-0.1,0.2-0.3,0.3-0.4,0.5c-0.1,0.2-0.2,0.5-0.2,0.8C48.1,142.6,48.1,143,48.1,143.5z M70.5,143.5
		c0,0.6,0,1.2,0,1.9c0,0.7,0,1.3,0,1.9c0,0.6-0.1,1.2-0.2,1.7c-0.1,0.5-0.3,1-0.5,1.5c-0.2,0.5-0.5,0.9-0.9,1.3
		c-0.6,0.6-1.2,1-1.9,1.3c-0.7,0.3-1.5,0.4-2.4,0.4s-1.7-0.1-2.4-0.4c-0.7-0.3-1.3-0.7-1.9-1.3c-0.4-0.4-0.7-0.8-0.9-1.3
		S59,149.5,59,149c-0.1-0.5-0.1-1.1-0.2-1.7c0-0.6,0-1.2,0-1.9c0-0.7,0-1.3,0-1.9c0-0.6,0.1-1.2,0.2-1.7c0.1-0.5,0.2-1,0.5-1.5
		s0.5-0.9,0.9-1.3c0.6-0.6,1.2-1,1.9-1.3c0.7-0.3,1.5-0.4,2.4-0.4s1.7,0.1,2.4,0.4c0.7,0.3,1.3,0.7,1.9,1.3c0.4,0.4,0.7,0.8,0.9,1.3
		c0.2,0.5,0.4,0.9,0.5,1.5C70.4,142.3,70.5,142.9,70.5,143.5z M67.4,145.4c0-0.8,0-1.4,0-1.9c0-0.5-0.1-0.9-0.1-1.2
		c-0.1-0.3-0.1-0.6-0.2-0.8c-0.1-0.2-0.2-0.4-0.4-0.5c-0.2-0.3-0.5-0.5-0.8-0.6c-0.3-0.2-0.7-0.2-1.1-0.2c-0.4,0-0.8,0.1-1.2,0.2
		c-0.3,0.2-0.6,0.4-0.8,0.6c-0.1,0.2-0.3,0.3-0.4,0.5c-0.1,0.2-0.2,0.5-0.2,0.8c-0.1,0.3-0.1,0.7-0.1,1.2s0,1.1,0,1.9s0,1.4,0,1.9
		s0.1,0.9,0.1,1.2c0.1,0.3,0.1,0.6,0.2,0.8s0.2,0.4,0.4,0.5c0.2,0.3,0.5,0.5,0.8,0.6c0.3,0.2,0.7,0.2,1.2,0.2c0.4,0,0.8-0.1,1.1-0.2
		c0.3-0.2,0.6-0.4,0.8-0.6c0.1-0.2,0.3-0.3,0.4-0.5c0.1-0.2,0.2-0.5,0.2-0.8c0.1-0.3,0.1-0.7,0.1-1.2
		C67.4,146.8,67.4,146.1,67.4,145.4z M78.3,147.8l-3.2-10.3h-3.2l5.2,15.9h2.3l5.3-15.9h-3.2L78.3,147.8z M86.6,153.3h3.1v-15.9
		h-3.1V153.3z M104.8,141.9c0.1,0.5,0.1,1.1,0.1,1.7c0,0.6,0,1.1,0,1.7s0,1.2,0,1.8c0,0.6,0,1.1-0.1,1.7c-0.1,0.6-0.2,1.1-0.5,1.6
		c-0.2,0.5-0.6,1-1,1.4c-0.5,0.5-1.1,0.9-1.9,1.1s-1.5,0.4-2.3,0.4h-5.7v-15.9h5.7c0.8,0,1.6,0.1,2.3,0.4c0.7,0.2,1.3,0.6,1.9,1.1
		c0.4,0.4,0.8,0.9,1,1.4C104.6,140.9,104.7,141.4,104.8,141.9z M101.8,145.3c0-0.6,0-1.1,0-1.5s0-0.8-0.1-1.1c0-0.3-0.1-0.6-0.2-0.8
		c-0.1-0.2-0.2-0.4-0.4-0.6c-0.3-0.3-0.6-0.6-1-0.7c-0.4-0.2-0.8-0.2-1.4-0.2h-2.3v10.3h2.3c0.5,0,1-0.1,1.4-0.2
		c0.4-0.2,0.7-0.4,1-0.7c0.3-0.4,0.5-0.9,0.5-1.5C101.8,147.4,101.8,146.5,101.8,145.3z M107.6,148.3h6.9v-2.7h-6.9V148.3z
		 M118,140.3v3.1l3.2-2.8v12.8h2.9v-15.9h-2.9L118,140.3z M138.9,142.2c0,0.7-0.1,1.4-0.4,2.1c-0.3,0.7-0.6,1.4-0.9,2.1l-3.4,6.9
		h-3.1l3.3-6.6c-0.2,0.1-0.4,0.1-0.6,0.2c-0.2,0-0.4,0-0.6,0c-0.5,0-1.1-0.1-1.6-0.3s-1-0.5-1.3-0.9c-0.4-0.4-0.7-0.9-0.9-1.5
		c-0.2-0.6-0.4-1.2-0.4-2c0-0.8,0.1-1.5,0.4-2.1s0.6-1.1,1-1.6c0.4-0.4,1-0.7,1.6-1c0.6-0.2,1.3-0.3,2-0.3s1.3,0.1,2,0.3
		c0.6,0.2,1.1,0.5,1.6,0.9c0.4,0.4,0.8,0.9,1,1.5S138.9,141.4,138.9,142.2z M136,142.2c0-0.7-0.2-1.3-0.6-1.7
		c-0.4-0.4-0.9-0.6-1.5-0.6s-1.1,0.2-1.5,0.6c-0.4,0.4-0.6,1-0.6,1.7c0,0.7,0.2,1.3,0.6,1.7s0.9,0.6,1.5,0.6c0.6,0,1.1-0.2,1.5-0.6
		C135.8,143.6,136,143,136,142.2z"/>
	<path class="st1" d="M60.9,33.7c-0.5,0-0.7-0.3-0.7-0.6c0-0.5,0.4-0.6,0.7-0.7c1.5-0.4,5.6-1.6,7.2-6.6c0.6-2,0.8-4.1,0.8-5.1
		c0-0.5-0.2-0.8-0.7-0.8h-7.6c-0.4,0-0.7,0.3-0.7,0.7v3.4c0,0.4,0,1.4-1.5,1.4c-1.5,0-1.5-1-1.5-1.4v-3.6c0-1,0.8-1.8,1.8-1.8h11.8
		c0.9,0,1.8,0.6,1.8,1.9c0,0.1-0.2,5.7-3.3,9.3C66,33.1,61,33.7,60.9,33.7z M75.6,26.5c0.2,0,3.9-1.3,6.3-5.3h5.4
		c0.4,0,0.5,0.4,0.5,0.6c0,0.3-0.3,2.8-1.6,5.2c-2.3,4.1-5.3,5.5-9.4,6.2c-0.7,0.1-1,0.2-1,0.7c0,0.3,0.3,0.7,0.7,0.7
		c0.2,0,1.8-0.2,3.3-0.5c2.3-0.5,6.2-1.6,8.8-5.6c2.5-3.8,2.6-7,2.6-7.1c0-0.8-0.6-1.5-1.6-1.5h-6.9c0.3-0.5,0.7-1.6,0.7-2.1
		c0-1-1.1-1.3-1.8-1.3c-1.2,0-1.4,0.7-1.5,1.4c-1,4.2-2.8,6-4.4,7.1c-0.6,0.4-0.7,0.5-0.7,0.8C75,26.3,75.3,26.5,75.6,26.5z
		 M110.5,25c0.2,0,0.8,0,0.8-0.7c0-0.5-0.4-0.7-0.8-0.7h-6v-4.1c1-0.1,2.9-0.5,3.4-0.6c0.4-0.1,1-0.3,1-0.9c0-0.7-0.6-1.4-1.4-1.4
		c-0.3,0-2.2,0.7-2.6,0.8c-3.9,1.1-7.6,1.3-8.9,1.3c-0.3,0-0.9,0-0.9,0.7c0,0.7,0.7,0.7,0.9,0.7c1.8,0,4-0.2,5.4-0.3v3.7h-7.1
		c-0.2,0-0.8,0-0.8,0.7c0,0.5,0.4,0.7,0.8,0.7h7.1c0,4.1-1.1,6.9-5,8.1c-0.9,0.3-1.1,0.3-1.1,0.8c0,0.4,0.3,0.7,0.7,0.7
		c0.2,0,3.2-0.5,5.1-1.9c3-2.2,3.2-5.4,3.3-7.7H110.5z M114.1,18.3c0.7,0.4,2.1,1.2,3.4,2.6c1.1,1.2,1.2,1.3,1.8,1.3
		c0.7,0,1.5-0.7,1.5-1.6c0-0.5-0.1-1.1-3.1-2.4c-1.8-0.8-3.5-1.2-3.7-1.2c-0.3,0-0.6,0.2-0.6,0.6C113.4,17.9,113.6,18,114.1,18.3z
		 M128.6,21.9c-0.4,0-0.5,0.2-0.7,0.5c-0.5,0.8-1.2,1.9-2.2,3c-4.3,4.4-8.8,5.2-10.7,5.6c-1.4,0.3-2.2,0.4-2.2,1.6
		c0,0.6,0.4,1.7,1.5,1.7c0.8,0,6.1-1.5,9.8-4.7c4.1-3.4,5.2-7,5.2-7.1C129.2,22.2,129,21.9,128.6,21.9z M80.8,47.5h-5.9
		c0.3,0.2,0.5,0.5,0.5,0.9c0,0.4-0.1,0.5-0.6,1.4h6c0.2,0,0.7,0.1,0.7,0.6S81,51,80.8,51h-1.3c-0.3,1.8-0.9,2.8-1.7,3.7
		c1,0.3,2.2,0.7,2.8,1.2c0.2,0.2,0.5,0.4,0.5,0.9c0,0.8-0.7,1.4-1.4,1.4c-0.3,0-0.5-0.1-0.8-0.3c-1.2-0.9-2.2-1.4-2.9-1.7
		c-1.5,1-3.2,1.6-5.6,1.9c-1,0.1-1.9,0.2-2,0.2c-0.4,0-0.6-0.3-0.6-0.6c0-0.3,0.2-0.5,0.5-0.6c2-0.3,4-0.6,5.6-1.8
		c-0.9-0.3-2.1-0.6-3.2-0.8c-0.6-0.1-0.8-0.5-0.8-0.9c0-0.2,0.1-0.4,0.2-0.6c0.4-0.7,1-1.7,1.2-2.1h-2.1c-0.2,0-0.7-0.1-0.7-0.6
		c0-0.5,0.5-0.6,0.7-0.6h2.6c0.2-0.4,1-2.2,1.1-2.3h-3.7c-0.2,0-0.7-0.1-0.7-0.6c0-0.5,0.5-0.6,0.7-0.6h3.1
		c-0.4-0.1-0.4-0.3-0.9-1.4c-0.3-0.7-0.6-1.2-0.9-1.6c-0.1-0.1-0.1-0.2-0.1-0.3c0-0.2,0.1-0.5,0.4-0.5h-1c-0.2,0-0.7-0.1-0.7-0.6
		c0-0.5,0.5-0.6,0.7-0.6h3.9v-1c0-0.8,0.6-1.3,1.4-1.3c0.8,0,1.4,0.4,1.4,1.3v1h3.9c0.2,0,0.7,0.1,0.7,0.6c0,0.5-0.5,0.6-0.7,0.6h-2
		c0.7,0.2,1.3,0.7,1.3,1.4c0,1-2.2,2.2-2.9,2.5h4.1c0.2,0,0.7,0.1,0.7,0.6C81.4,47.5,81,47.5,80.8,47.5z M74.1,51
		c-0.1,0.2-1.4,2.3-1.4,2.3c0,0.1,0.1,0.2,0.2,0.2c0.3,0.1,2,0.4,2.4,0.5c0.5-0.7,1.1-1.9,1.3-3H74.1z M76,46.4
		c-0.1-0.1-0.3-0.2-0.3-0.5c0-0.1,0-0.2,0.1-0.2c0.7-1.4,0.8-1.6,0.9-2.1c0.2-0.6,0.3-0.9,0.8-1.1h-6.4c0.8,0.3,3.1,1.5,3.1,2.6
		c0,0.6-0.4,1.1-1.1,1.3H76z M68.8,49.2c0-0.1,0.1-0.2,0.1-0.3c0-0.3-0.3-0.6-0.6-0.6c-0.1,0-0.9,0.3-1.3,0.5v-4.2h1
		c0.2,0,0.7-0.1,0.7-0.6c0-0.5-0.5-0.6-0.7-0.6h-1v-2.8c0-0.6,0-1.6-1.4-1.6c-1.4,0-1.4,1-1.4,1.6v2.8H63c-0.2,0-0.7,0.1-0.7,0.6
		c0,0.5,0.4,0.6,0.7,0.6h1.3v5.2c-0.3,0.1-1.5,0.5-1.8,0.6C62.2,50.6,62,51,62,51.3c0,0.6,0.5,1.1,0.9,1.1c0.2,0,0.3-0.1,1.4-0.6
		v4.5c0,0.3-0.1,0.5-0.5,0.5h-0.7c-0.2,0-0.7,0.1-0.7,0.6c0,0.5,0.5,0.6,0.7,0.6h2.2c0.9,0,1.8-0.3,1.8-1.6v-6.1
		C67.9,49.9,68.7,49.4,68.8,49.2z M101.9,57.4c0,0.5-0.5,0.6-0.7,0.6H89.7c-0.2,0-0.7-0.1-0.7-0.6c0-0.5,0.5-0.6,0.7-0.6h4.9V55
		h-3.3c-0.2,0-0.7-0.1-0.7-0.6c0-0.5,0.5-0.6,0.7-0.6h3.3v-1.6h-2.1c-1,0-1.8-0.4-1.8-1.6v-3.6c0-1.2,0.9-1.6,1.8-1.6h2.1V44h-4
		c-0.2,0-0.7,0-0.7-0.6c0-0.5,0.5-0.6,0.7-0.6h4v-1.4c-0.6,0-1.6,0.1-2.5,0.1c-1,0-1.5,0-1.5-0.6c0-0.4,0.3-0.6,0.8-0.6
		c3.1-0.1,5-0.5,6-0.7c0.4-0.1,2.1-0.6,2.3-0.6c0.8,0,1.1,0.6,1.1,1.1c0,0.6-0.4,0.8-0.7,0.8c-0.6,0.2-1.4,0.2-3,0.4v1.5h3.7
		c0.2,0,0.7,0.1,0.7,0.6c0,0.5-0.5,0.6-0.7,0.6h-3.7v1.5h2.1c1,0,1.8,0.5,1.8,1.6v3.6c0,1.2-0.9,1.6-1.8,1.6h-2.1v1.6h3.2
		c0.2,0,0.7,0.1,0.7,0.6c0,0.5-0.5,0.6-0.7,0.6h-3.2v1.8h4.1C101.4,56.8,101.9,56.9,101.9,57.4z M97.1,48.3h1.4v-1.1
		c0-0.4-0.1-0.5-0.5-0.5h-0.9V48.3z M97.1,51.2H98c0.4,0,0.5-0.1,0.5-0.5v-1.2h-1.4V51.2z M94.6,49.5h-1.4v1.2
		c0,0.4,0.1,0.5,0.5,0.5h0.9V49.5z M94.6,46.7h-0.9c-0.4,0-0.5,0.1-0.5,0.5v1.1h1.4V46.7z M90.1,52.4c0.3,0,0.6-0.2,0.6-0.6
		c0-0.2,0-0.2-0.2-0.5c-0.4-0.6-1.7-2.9-2.2-5v-0.4h1.4c0.2,0,0.7,0,0.7-0.6s-0.5-0.6-0.7-0.6h-1.4v-3.2c1.7-0.2,2.2-0.3,2.2-1.1
		c0-0.6-0.5-1.3-1.1-1.3c-0.2,0-0.4,0.1-0.7,0.2c-1.5,0.6-3.2,1-5.1,1.3c-0.1,0-0.7,0.1-0.7,0.6c0,0.5,0.5,0.6,0.7,0.6
		c0.5,0,1.7-0.1,2-0.1v3h-2.1c-0.2,0-0.7,0.1-0.7,0.6c0,0.5,0.5,0.6,0.7,0.6h1.9c-0.5,3.5-2,5.8-2.7,7c-0.1,0.2-0.2,0.3-0.2,0.5
		c0,0.3,0.2,0.6,0.6,0.6c0.6,0,2.1-2.3,2.5-2.9v5.8c0,0.5,0,1.5,1.4,1.5c1.4,0,1.4-1.1,1.4-1.5v-6.5C88.7,51,89.7,52.4,90.1,52.4z
		 M105.5,47.3c0.6,0.8,0.7,1,1.2,1c0.7,0,1.4-0.6,1.4-1.5c0-0.5-0.2-0.8-1.6-1.5c-1.1-0.6-2.3-0.9-2.5-0.9c-0.3,0-0.6,0.2-0.6,0.6
		c0,0.1,0.1,0.3,0.2,0.4C104.5,46.1,105.1,46.8,105.5,47.3z M104.1,39.8c0,0.1,0.1,0.3,0.2,0.3c0.5,0.5,1.1,1.1,1.7,1.9
		c0.7,1.1,0.8,1.2,1.3,1.2c0.7,0,1.3-0.7,1.3-1.4c0-1.1-3.5-2.6-3.9-2.6C104.4,39.2,104.1,39.5,104.1,39.8z M122.8,47.9
		c0,0.5-0.4,0.6-0.7,0.6c-1.4,0-4.5-1-6.4-1.7c-3.1,1.4-6.4,1.8-6.7,1.8c-0.6,0-0.6-0.5-0.6-0.6c0-0.3,0.2-0.5,0.5-0.6
		c2.7-0.4,4.1-1.1,5-1.6c-0.5-0.3-2.3-1.5-3.2-3.5h-1.1c-0.1,0-0.7,0-0.7-0.6c0-0.5,0.5-0.6,0.7-0.6h4.5v-0.4c0-0.6,0-1.7,1.4-1.7
		c1.4,0,1.4,1,1.4,1.7v0.4h4.9c0.2,0,0.7,0.1,0.7,0.6c0,0.5-0.5,0.6-0.7,0.6h-1.3c-0.8,1.5-2.1,2.8-3.2,3.5c1.7,0.9,2.9,1.2,4.8,1.5
		C122.8,47.4,122.8,47.8,122.8,47.9z M117.4,42.3h-3.6c0.6,1.3,1.5,2,1.8,2.3C116.2,44.1,116.9,43.4,117.4,42.3z M108.2,49.3
		c-0.3,0-0.5,0.2-0.5,0.4c-0.5,0.9-1.5,3.1-3.3,5.5c-0.7,1-0.8,1.1-0.8,1.4c0,0.6,0.6,1.4,1.4,1.4c0.6,0,0.9-0.3,1.5-1.8
		c1.2-2.5,2.3-6.2,2.3-6.4C108.8,49.6,108.5,49.3,108.2,49.3z M120.9,50.2v6.3c0,0.7,0,1.8-1.4,1.8s-1.4-1-1.4-1.8v-1.8h-5.7
		c-1.1,2.3-3.5,3.6-4,3.6c-0.3,0-0.6-0.2-0.6-0.6c0-0.2,0.1-0.4,0.2-0.5c2.1-1.8,2.3-4.4,2.3-5.2v-1.8c0-0.7,0-1.7,1.4-1.7
		c0.3,0,1.4,0,1.4,1.4v0.3h4.9c0-0.6,0-1.7,1.4-1.7C120.9,48.4,120.9,49.5,120.9,50.2z M118.1,51.3h-4.9c-0.1,1.4-0.3,2.1-0.3,2.3
		h5.3V51.3z"/>
	<path class="st1" d="M173.1,43.1c0.6,0.6,1.4,1.1,2.3,1.2v97.5c-0.6,0.2-1.1,0.6-1.6,1l-3,3l-3.4-3.4V42.8l2.7-2.7L173.1,43.1z
		 M156.8,159.8l-1.4-1.4H28.2l-1.4,1.4l3,3c0.9,0.9,1.3,2,1.3,3.2c0,0.1,0,0.3,0,0.4h121.5c0-0.1,0-0.3,0-0.4c0-1.1,0.4-2.3,1.3-3.2
		L156.8,159.8z M9.8,43.1c-0.2,0.2-0.5,0.4-0.8,0.6v98.5c0.3,0.2,0.6,0.4,0.8,0.6l3,3l4.2-4.2V44.3l-4.2-4.2L9.8,43.1z M178.4,28
		c0.9,0.9,2.4,0.9,3.3,0l1.2-1.2l-13.4-13.4l-1.2,1.2c-0.9,0.9-0.9,2.4,0,3.3l1,1l-5.6,5.6l-5.9-5.9c-0.8-0.8-2.1-0.8-2.9,0v0
		c-0.8,0.8-0.8,2.1,0,2.9l4.8,4.8l-37.2,37.2c-0.9,0.9-0.9,2.3,0,3.1l3,3l-9.2,9.2l-0.4,3.1l10.9-10.9l3,3c0.9,0.9,2.3,0.9,3.1,0
		l5.6-5.6l-5.5-5.5l1.1-1.1l5.5,5.5l2.8-2.8l-5.5-5.5l1.1-1.1l5.5,5.5l2.8-2.8l-5.5-5.5l1.1-1.1l5.5,5.5l2.8-2.8l-5.5-5.5l1.1-1.1
		l5.5,5.5l2.8-2.8l-5.5-5.5l1.1-1.1l5.5,5.5l2.8-2.8l-5.5-5.5l1.1-1.1l5.5,5.5l2.8-2.8l-5.5-5.5l1.1-1.1l5.5,5.5l7.3-7.3l4.8,4.8
		c0.8,0.8,2.1,0.8,2.9,0s0.8-2.1,0-2.9l-5.9-5.9l5.6-5.6L178.4,28z M15.1,11.6l1.2,1.2c0.6,0.6,1,1.3,1.2,2c0.5-1.5,1.3-2.8,2.4-3.8
		c1.9-1.8,4.4-3,7.2-3h130.1c2.8,0,5.3,1.1,7.2,3c0.7,0.7,1.3,1.4,1.7,2.3c0.1-0.2,0.2-0.3,0.4-0.5l1.2-1.2c0.5-0.5,1.1-0.7,1.8-0.7
		s1.3,0.3,1.8,0.7l3.9,3.9c-0.6-3.9-2.4-7.5-5.1-10.2C166.8,2,162.3,0,157.3,0H27.1c-5,0-9.6,2-12.8,5.3c-2.2,2.2-3.9,5.1-4.7,8.3
		l2-2C12.6,10.6,14.2,10.6,15.1,11.6z M4.5,28l1-1l5.6,5.6l-5.9,5.9c-0.8,0.8-0.8,2.1,0,2.9s2.1,0.8,2.9,0l4.8-4.8l7.3,7.3l5.5-5.5
		l1.1,1.1L21.2,45l2.8,2.8l5.5-5.5l1.1,1.1L25,48.8l2.8,2.8l5.5-5.5l1.1,1.1l-5.5,5.5l2.8,2.8l5.5-5.5l1.1,1.1l-5.5,5.5l2.8,2.8
		l5.5-5.5l1.1,1.1l-5.5,5.5l2.8,2.8l5.5-5.5l1.1,1.1l-5.5,5.5l2.8,2.8l5.5-5.5l1.1,1.1l-5.5,5.5l5.6,5.6c0.9,0.9,2.3,0.9,3.1,0l3-3
		L67,81.7l-0.4-3.1l-9.2-9.2l3-3c0.9-0.9,0.9-2.3,0-3.1L23.2,26.1l4.8-4.8c0.8-0.8,0.8-2.1,0-2.9v0c-0.8-0.8-2.1-0.8-2.9,0l-5.9,5.9
		l-5.6-5.6l1-1c0.9-0.9,0.9-2.4,0-3.3l-1.2-1.2L0,26.7L1.2,28C2.1,28.9,3.6,28.9,4.5,28z M175.4,32.5L175.4,32.5L175.4,32.5
		L175.4,32.5z M182.4,158c-0.9-0.9-2.4-0.9-3.3,0l-1,1l-5.6-5.6l5.9-5.9c0.8-0.8,0.8-2.1,0-2.9h0c-0.8-0.8-2.1-0.8-2.9,0l-4.8,4.8
		l-37.2-37.2c-0.9-0.9-2.3-0.9-3.1,0l-3,3l-9.2-9.2l-3.1-0.4l10.9,10.9l-3,3c-0.9,0.9-0.9,2.3,0,3.1l5.6,5.6l5.5-5.5l1.1,1.1
		l-5.5,5.5l2.8,2.8l5.5-5.5l1.1,1.1l-5.5,5.5l2.8,2.8l5.5-5.5l1.1,1.1l-5.5,5.5l2.8,2.8l5.5-5.5l1.1,1.1l-5.5,5.5l2.8,2.8l5.5-5.5
		l1.1,1.1l-5.5,5.5l2.8,2.8l5.5-5.5l1.1,1.1l-5.5,5.5l2.8,2.8l5.5-5.5l1.1,1.1l-5.5,5.5l7.3,7.3l-4.8,4.8c-0.8,0.8-0.8,2.1,0,2.9
		s2.1,0.8,2.9,0l5.9-5.9l5.6,5.6l-1,1c-0.9,0.9-0.9,2.4,0,3.3l1.2,1.2l13.4-13.4L182.4,158z M164.3,165.1L164.3,165.1L164.3,165.1
		L164.3,165.1z M19.2,165.1L19.2,165.1L19.2,165.1L19.2,165.1z M23.2,159.8l7.3-7.3L25,147l1.1-1.1l5.5,5.5l2.8-2.8l-5.5-5.5
		l1.1-1.1l5.5,5.5l2.8-2.8l-5.5-5.5l1.1-1.1l5.5,5.5l2.8-2.8l-5.5-5.5l1.1-1.1l5.5,5.5l2.8-2.8l-5.5-5.5l1.1-1.1l5.5,5.5l2.8-2.8
		l-5.5-5.5l1.1-1.1l5.5,5.5l2.8-2.8l-5.5-5.5l1.1-1.1l5.5,5.5l5.6-5.6c0.9-0.9,0.9-2.3,0-3.1l-3-3l10.9-10.9l-3.1,0.4l-9.2,9.2l-3-3
		c-0.9-0.9-2.3-0.9-3.1,0l-37.2,37.2L8,144.6c-0.8-0.8-2.1-0.8-2.9,0h0c-0.8,0.8-0.8,2.1,0,2.9l5.9,5.9L5.5,159l-1-1
		c-0.9-0.9-2.4-0.9-3.3,0L0,159.2l13.4,13.4l1.2-1.2c0.9-0.9,0.9-2.4,0-3.3l-1-1l5.6-5.6l5.9,5.9c0.8,0.8,2.1,0.8,2.9,0
		s0.8-2.1,0-2.9L23.2,159.8z"/>
	<path d="M91.5,67.5c-19.8,0-35.9,13.1-35.9,29.3c0,10.4,6.7,19.6,16.8,24.8v4.2l5.9,6.8c0.5,0,0.9-0.4,0.9-0.9V122h2.2v9.7
		c0,0.5,0.4,0.9,0.9,0.9h3.2c0.5,0,0.9-0.4,0.9-0.9V122h2.2v9.7c0,0.5,0.4,0.9,0.9,0.9h3.2c0.5,0,0.9-0.4,0.9-0.9V122h2.2v9.7
		c0,0.5,0.4,0.9,0.9,0.9h3.2c0.5,0,0.9-0.4,0.9-0.9V122h2.2v9.7c0,0.5,0.4,0.9,0.9,0.9l6.8-6.2v-4.8c10.1-5.2,16.8-14.3,16.8-24.8
		C127.4,80.6,111.3,67.5,91.5,67.5z M80.8,96.7l5.6,5.6c0.6,0.6,0.6,1.7,0,2.3c-0.6,0.6-1.7,0.6-2.3,0L78.5,99
		c-0.6-0.6-1.7-0.6-2.3,0l-5.6,5.6c-0.6,0.6-1.7,0.6-2.3,0c-0.6-0.6-0.6-1.7,0-2.3l5.6-5.6c0.6-0.6,0.6-1.7,0-2.3l-5.6-5.6
		c-0.6-0.6-0.6-1.7,0-2.3c0.6-0.6,1.7-0.6,2.3,0l5.6,5.6c0.6,0.6,1.7,0.6,2.3,0l5.6-5.6c0.6-0.6,1.7-0.6,2.3,0
		c0.6,0.6,0.6,1.7,0,2.3l-5.6,5.6C80.2,95,80.2,96,80.8,96.7z M91.5,116.6c-1.6,0-2.9-2.2-2.9-4.9c0-2.7,1.3-2.3,2.9-2.3
		c1.6,0,2.9-0.3,2.9,2.3C94.4,114.4,93.1,116.6,91.5,116.6z M110.9,96.7l5.6,5.6c0.6,0.6,0.6,1.7,0,2.3s-1.7,0.6-2.3,0l-5.6-5.6
		c-0.6-0.6-1.7-0.6-2.3,0l-5.6,5.6c-0.6,0.6-1.7,0.6-2.3,0s-0.6-1.7,0-2.3l5.6-5.6c0.6-0.6,0.6-1.7,0-2.3l-5.6-5.6
		c-0.6-0.6-0.6-1.7,0-2.3c0.6-0.6,1.7-0.6,2.3,0l5.6,5.6c0.6,0.6,1.7,0.6,2.3,0l5.6-5.6c0.6-0.6,1.7-0.6,2.3,0
		c0.6,0.6,0.6,1.7,0,2.3l-5.6,5.6C110.3,95,110.3,96,110.9,96.7z"/>
	<rect x="50.6" y="92.2" class="st1" width="80.2" height="6.6"/>
	<rect x="41.5" y="142.9" class="st1" width="99" height="6.6"/>
</g>
</svg>
