<svg width="54" height="48" viewBox="0 0 54 48" fill="none" xmlns="http://www.w3.org/2000/svg">
<path fill-rule="evenodd" clip-rule="evenodd" d="M32.1962 2.99999C29.8868 -1.00001 24.1133 -1.00002 21.8038 2.99998L1.01922 39C-1.29017 43 1.59655 48 6.21538 48H47.7846C52.4034 48 55.2902 43 52.9808 39L32.1962 2.99999ZM25.1992 25.4687C25.4856 27.9687 25.694 30.2279 25.8242 32.2461H27.7187C27.7708 31.0612 27.9466 29.1406 28.2461 26.4844C28.3633 25.4427 28.4805 24.388 28.5976 23.3203C28.7278 22.2526 28.845 21.2109 28.9492 20.1953C29.0534 19.1667 29.138 18.1901 29.2031 17.2656C29.2682 16.3281 29.3008 15.3841 29.3008 14.4336C29.3008 13.4831 29.0403 12.7214 28.5195 12.1484C28.207 11.8099 27.6341 11.6406 26.8008 11.6406C25.9675 11.6406 25.3489 11.8555 24.9453 12.2851C24.737 12.5195 24.5742 12.8385 24.457 13.2422C24.3398 13.6328 24.2812 14.2904 24.2812 15.2148C24.2812 16.1263 24.3984 17.7734 24.6328 20.1562C24.7239 21.1849 24.9128 22.9557 25.1992 25.4687ZM29.3398 37.6367C29.3398 37.1159 29.0078 36.5234 28.3437 35.8594C27.9792 35.4948 27.4323 35.3125 26.7031 35.3125C25.987 35.3125 25.388 35.5534 24.9062 36.0351C24.4245 36.5169 24.1836 37.1289 24.1836 37.8711C24.1836 38.6133 24.4245 39.2187 24.9062 39.6875C25.1406 39.9089 25.4141 40.0781 25.7266 40.1953C26.0521 40.3255 26.4883 40.3906 27.0351 40.3906C27.582 40.3906 28.1028 40.1562 28.5976 39.6875C28.832 39.4531 29.0143 39.1862 29.1445 38.8867C29.2747 38.5742 29.3398 38.1575 29.3398 37.6367Z" fill="#FF0000"/>
</svg>
